<svg width="94" height="116" viewBox="0 0 94 116" fill="none" xmlns="http://www.w3.org/2000/svg">
<path d="M93.3538 34.676C93.2063 35.5879 92.8608 36.4564 92.3416 37.2205C91.8248 37.9751 91.3573 38.4902 90.9537 38.7494L90.6404 38.961L89.0606 36.7545C89.3378 36.5167 89.5798 36.2405 89.7791 35.9343C90.0942 35.499 90.3052 34.9973 90.3959 34.4677C90.5715 33.4161 90.3959 32.5171 89.889 31.7936C89.3821 31.0702 88.5766 30.6092 87.5201 30.4304L74.4502 28.237L75.0129 24.8871L88.0795 27.0805C89.9973 27.4086 91.4081 28.2403 92.3925 29.6429C93.3768 31.0456 93.6819 32.7271 93.3538 34.676Z" fill="white"/>
<path d="M37.5335 91.506L42.5847 88.6974C43.0899 89.6063 43.756 90.1815 44.5828 90.4232C45.4096 90.665 46.2845 90.5293 47.2076 90.0164L54.9853 85.692C57.4876 84.3009 59.7739 83.8875 61.8443 84.4518C63.9146 85.0161 65.6202 86.5057 66.961 88.9206L68.8623 92.341L63.3666 95.3973L62.0985 93.1186C61.9083 92.7493 61.645 92.4225 61.3246 92.158C61.0043 91.8934 60.6335 91.6968 60.2349 91.5798C59.43 91.3458 58.5955 91.4683 57.7315 91.9473L50.2885 96.0863C49.5186 96.5259 48.69 96.8534 47.8277 97.0591C47.0392 97.233 46.383 97.2653 45.8591 97.1559C45.3891 97.0595 44.9264 96.9301 44.4745 96.7688C44.1463 96.6695 43.845 96.4967 43.5936 96.2635L43.3541 96.0469C43.3754 96.1536 43.3951 96.2766 43.4164 96.421C43.4345 96.7408 43.4219 97.0616 43.3787 97.379C43.3333 97.8685 43.2034 98.3464 42.9948 98.7915C42.6966 99.3653 42.3127 99.8903 41.8563 100.348C41.2361 100.989 40.5199 101.53 39.7335 101.951L32.3364 106.066C31.4883 106.536 30.9403 107.184 30.6959 108.003C30.5729 108.403 30.535 108.825 30.5848 109.241C30.6345 109.657 30.7707 110.058 30.9846 110.418L32.2527 112.696L26.7537 115.754L24.8655 112.336C23.5236 109.922 23.1588 107.686 23.7713 105.629C24.3837 103.572 25.9406 101.848 28.4418 100.457L36.2195 96.1322C37.1283 95.627 37.7014 94.9565 37.9387 94.121C38.1761 93.2854 38.0426 92.4138 37.5385 91.506" fill="white"/>
<path d="M33.4551 60.5159L33.6733 57.4858L43.2424 58.1782C44.6784 58.2875 45.8109 58.8261 46.6399 59.794C47.4689 60.7619 47.8303 61.9858 47.7242 63.4655C47.6784 64.1561 47.4812 64.8282 47.1468 65.4341C46.8187 66.0368 46.5015 66.4551 46.1953 66.6891L45.7425 67.0632L44.0544 65.1208C44.1364 65.0668 44.2153 65.0082 44.2907 64.9453C44.4539 64.7816 44.5906 64.5933 44.6959 64.3875C44.8615 64.1074 44.9608 63.7932 44.9862 63.4688C45.0322 62.8126 44.8818 62.2827 44.5351 61.8791C44.1906 61.4756 43.6853 61.2492 43.0242 61.2016" fill="white"/>
<path d="M49.8009 54.0414C49.9905 55.4451 50.0323 56.8648 49.9256 58.2772C49.8145 59.6736 49.5589 61.0546 49.1627 62.3982C48.8264 63.6036 48.38 64.7754 47.829 65.899C47.3379 66.8626 46.8627 67.726 46.4034 68.4894C46.054 69.0929 45.662 69.6707 45.2304 70.2185L44.7383 70.773L47.8241 73.032C47.9783 72.881 48.1823 72.6623 48.436 72.3758C48.9253 71.7832 49.3842 71.1661 49.8107 70.5269C50.4719 69.576 51.0667 68.5806 51.5907 67.5478C52.2152 66.2593 52.731 64.9209 53.1328 63.5466C53.6298 61.9367 53.9472 60.2768 54.0793 58.5971C54.2106 56.9292 54.1661 55.2521 53.9465 53.5936C53.7774 52.1455 53.4568 50.7192 52.99 49.3381C52.5701 48.1668 52.1485 47.1147 51.7252 46.1818C51.4142 45.4552 51.0427 44.7561 50.6146 44.0917L50.1388 43.3716L46.7512 44.9743C46.8414 45.122 46.9726 45.3434 47.1465 45.6305C47.4693 46.235 47.7601 46.8559 48.0177 47.4909C48.4248 48.4349 48.7754 49.4023 49.0676 50.388C49.4032 51.5825 49.6456 52.8013 49.7927 54.0333" fill="white"/>
<path d="M62.9372 52.8684C62.8476 53.7097 62.6706 54.5393 62.409 55.3439C62.1477 56.1388 61.8041 56.9041 61.3836 57.6275C61.0187 58.2794 60.5942 58.8961 60.1155 59.4698C59.6934 59.9608 59.2953 60.395 58.9212 60.7723C58.6335 61.0732 58.3242 61.3529 57.996 61.609L57.6367 61.8633L59.1132 63.6104C59.2231 63.5448 59.3724 63.4464 59.561 63.3184C59.9284 63.0439 60.2815 62.751 60.6192 62.4408C61.1379 61.983 61.6241 61.4896 62.0743 60.9643C62.6183 60.3049 63.1067 59.6014 63.5343 58.8612C64.0509 57.9975 64.4702 57.0792 64.7844 56.1232C65.0959 55.1739 65.3071 54.1946 65.4144 53.2014C65.5222 52.3371 65.5376 51.4638 65.4603 50.5962C65.3837 49.8569 65.2886 49.1865 65.1749 48.585C65.0963 48.1195 64.9794 47.6614 64.8254 47.2152L64.6499 46.723L62.4582 47.1725C62.4893 47.271 62.5353 47.4186 62.5943 47.6122C62.697 48.0083 62.778 48.4097 62.8371 48.8147C62.9397 49.4199 63.0066 50.0307 63.0373 50.6438C63.062 51.3845 63.0302 52.126 62.9421 52.8618" fill="white"/>
<path d="M36.8408 78.505C36.6473 77.2319 36.5879 75.9419 36.6636 74.6564C36.7435 73.3856 36.9552 72.1266 37.2952 70.8996C37.5825 69.7988 37.9708 68.7268 38.455 67.6973C38.886 66.8147 39.3043 66.0229 39.71 65.3218C40.0188 64.7677 40.367 64.2365 40.7518 63.7322L41.1832 63.2204L38.3435 61.2124C38.2057 61.3535 38.0154 61.552 37.7972 61.8145C37.3615 62.3612 36.9536 62.9295 36.575 63.5173C35.9883 64.3913 35.4631 65.3051 35.0034 66.252C34.4545 67.4318 34.0056 68.6555 33.6615 69.9103C33.234 71.3811 32.9704 72.8947 32.8757 74.4234C32.7815 75.9419 32.847 77.4661 33.0709 78.9709C33.247 80.2846 33.5604 81.5762 34.006 82.8245C34.4052 83.8832 34.8038 84.8335 35.2019 85.6757C35.4963 86.3308 35.8447 86.9602 36.2436 87.5573L36.6882 88.2135L39.7412 86.7059C39.6592 86.5714 39.5345 86.3778 39.3721 86.112C39.0699 85.5671 38.7961 85.007 38.5519 84.4338C38.1683 83.5791 37.8352 82.7027 37.5544 81.809C37.2314 80.7283 36.9929 79.6242 36.8408 78.5066" fill="white"/>
<path d="M59.7717 3.40667C57.4527 2.84224 55.0746 2.55697 52.688 2.55689C50.3185 2.55448 47.9565 2.82418 45.6485 3.36073C43.3453 3.89772 41.3931 4.54848 39.7919 5.31296C38.1908 6.07744 36.7597 6.83533 35.4987 7.58668C34.5029 8.15249 33.5544 8.79766 32.6623 9.51592L31.7665 10.3198L30.5723 8.43646C30.8172 8.21772 31.1617 7.93063 31.6058 7.57519C32.0498 7.21974 33.0106 6.58434 34.4882 5.66894C35.9753 4.75246 37.5257 3.94274 39.1275 3.2459C40.7418 2.54267 42.7777 1.89959 45.2351 1.31666C47.6769 0.736356 50.1782 0.443441 52.688 0.443896C55.1793 0.439655 57.6632 0.714792 60.0932 1.26415C62.5212 1.81099 64.5806 2.47706 66.2714 3.26232C67.9622 4.04758 69.478 4.82843 70.8189 5.60493C71.8641 6.18798 72.8658 6.8459 73.8161 7.57355L74.8004 8.42336L73.6061 10.3067C73.3874 10.0879 73.0697 9.80848 72.653 9.46834C72.2363 9.12821 71.3253 8.50812 69.9199 7.60803C68.523 6.71397 67.0604 5.927 65.5446 5.25388C64.031 4.58893 62.1067 3.97319 59.7717 3.40667Z" fill="white"/>
<path d="M16.3772 49.4854C16.327 53.059 16.7054 56.6258 17.5042 60.1093C18.2919 63.5689 19.4742 66.9266 21.028 70.1164C22.58 73.3001 24.1816 75.9321 25.8331 78.0122C27.4845 80.0924 29.0704 81.9287 30.5906 83.5211C32.1064 85.1146 33.3603 86.2798 34.3523 87.017L35.8287 88.0554L33.4795 90.4276C33.0836 90.1411 32.5493 89.7342 31.8767 89.2071C31.2041 88.6799 29.9557 87.4895 28.1315 85.6357C26.298 83.7707 24.5985 81.7786 23.0459 79.6741C21.4786 77.5534 19.86 74.7963 18.19 71.4026C16.5281 68.033 15.2656 64.4807 14.4283 60.818C13.593 57.1815 13.1676 53.4627 13.1602 49.7315C13.1602 46.0053 13.4445 42.779 14.0132 40.0525C14.5819 37.3259 15.2157 34.8531 15.9146 32.6341C16.6069 30.4183 17.2341 28.7401 17.7962 27.5994L18.7067 25.8735L21.8532 26.9891C21.6115 27.373 21.3097 27.9296 20.9477 28.6591C20.5856 29.3886 19.9841 30.9252 19.1431 33.269C18.3074 35.6068 17.6493 38.0044 17.1745 40.4413C16.69 42.8725 16.4242 45.8872 16.3772 49.4854Z" fill="white"/>
<path d="M29.0488 8.59624H29.0356C28.1682 8.39419 27.287 8.25659 26.3993 8.18451C25.2739 8.07296 24.0157 8.02045 22.659 8.00732C21.0585 8.02828 19.4644 8.21296 17.9015 8.55851C16.1033 8.9347 14.3525 9.50971 12.6814 10.2729C10.9975 11.0436 9.40875 12.007 7.94687 13.1438C6.69041 14.094 5.51905 15.1517 4.44603 16.305C3.58791 17.2618 2.79797 18.2775 2.08205 19.3449C1.59364 20.045 1.14189 20.77 0.728629 21.5169C0.543252 21.8909 0.400528 22.1912 0.298817 22.411L0.134766 22.7653L2.26743 24.1499L2.82521 22.8703C3.18577 22.1529 3.60325 21.4655 4.07363 20.8148C4.66914 19.9568 5.38605 19.0299 6.19318 18.0587C7.14983 16.9551 8.2217 15.9569 9.39053 15.0812C10.7217 14.0565 12.1654 13.1869 13.6936 12.4892C15.2325 11.7877 16.8493 11.2716 18.5101 10.952C19.9198 10.659 21.3526 10.4904 22.7918 10.4484C23.9689 10.4355 25.1453 10.5123 26.3108 10.6781C27.4804 10.8421 28.2564 10.975 28.6173 11.0701C28.9782 11.1653 29.2637 11.2506 29.454 11.3211L29.9855 11.5196L30.3349 8.97028L29.0488 8.59624Z" fill="white"/>
<path d="M15.0737 28.7537L17.1342 27.0098L11.6237 20.5003C10.7991 19.5225 9.81966 18.991 8.68552 18.9057C7.55139 18.8204 6.48286 19.2032 5.47996 20.0541C5.00597 20.4495 4.62509 20.9447 4.36443 21.5043C4.14632 21.9215 4.00936 22.3763 3.96085 22.8446L3.92969 23.3646L6.20836 23.5598C6.20367 23.473 6.20367 23.3859 6.20836 23.299C6.24058 23.0959 6.30365 22.899 6.39538 22.715C6.5102 22.4495 6.68414 22.2139 6.90393 22.026C7.35015 21.6508 7.8095 21.4813 8.28197 21.5174C8.75443 21.5535 9.1804 21.7968 9.55991 22.2474" fill="white"/>
<path d="M79.5471 19.1772C79.4401 18.411 79.2526 17.6583 78.9877 16.9314C78.7238 16.2135 78.3857 15.5251 77.9788 14.8775C77.6238 14.2947 77.2164 13.7456 76.7615 13.237C76.3612 12.7995 75.9839 12.4167 75.6296 12.0886C75.3571 11.822 75.0654 11.5758 74.7568 11.352L74.4287 11.1322L75.7165 9.4917C75.8199 9.54912 75.9593 9.63275 76.1348 9.7443C76.3104 9.85586 76.6434 10.1118 77.1306 10.5137C77.6187 10.9159 78.0781 11.3517 78.5054 11.8179C79.0246 12.4022 79.4933 13.0294 79.9064 13.693C80.4059 14.4652 80.8181 15.2905 81.1351 16.1538C81.4498 17.0118 81.6741 17.9003 81.8044 18.8049C81.9287 19.5907 81.9705 20.3874 81.9291 21.182C81.8799 21.859 81.8137 22.4747 81.7306 23.0292C81.6739 23.4568 81.5811 23.8788 81.4534 24.2907L81.3106 24.7402L79.2928 24.3974C79.3191 24.3055 79.3552 24.171 79.4044 23.9922C79.4847 23.627 79.546 23.2579 79.5881 22.8864C79.6618 22.3299 79.7029 21.7695 79.7111 21.2082C79.7098 20.528 79.6549 19.8489 79.5471 19.1772Z" fill="white"/>
<path d="M89.4656 38.7679L87.8628 39.9441C86.9359 38.5464 85.3397 36.9912 83.4957 36.6024C81.7453 36.2431 80.3788 36.5761 79.1664 36.8714C78.899 36.9354 78.6447 36.9977 78.4036 37.0486C78.0902 37.1027 77.772 37.1716 77.4357 37.2471C76.1659 37.5276 74.7256 37.8459 72.8094 37.4505C70.224 36.9157 68.2374 34.8257 67.2793 33.1442L68.8115 31.9253C69.389 32.7882 70.9786 34.8503 73.2409 35.3162C74.9175 35.664 76.266 35.3523 77.4554 35.0783C77.7835 35.0045 78.0837 34.934 78.3839 34.8799C78.6185 34.8306 78.8597 34.7732 79.1139 34.7158C80.4575 34.3877 81.9815 34.03 83.978 34.4435C86.6094 34.9865 88.5534 37.0748 89.4656 38.7679Z" fill="white"/>
<path d="M67.5321 38.8067L67.5124 39.0052C67.5037 39.1005 67.5179 39.1966 67.5538 39.2854C67.5898 39.3741 67.6465 39.453 67.7191 39.5154C67.9222 39.6837 68.1756 39.7795 68.4393 39.7877L86.3208 41.5758C86.5674 41.6121 86.819 41.5672 87.0377 41.4479C87.1246 41.4035 87.1991 41.3384 87.2546 41.2582C87.3102 41.1781 87.345 41.0854 87.356 40.9886L87.3757 40.79L89.7085 41.023L89.6872 41.2215C89.6595 41.6179 89.5463 42.0037 89.3554 42.3523C89.1646 42.7009 88.9005 43.0041 88.5815 43.241C87.9253 43.7309 87.0968 43.9261 86.0961 43.8266L68.2145 42.0385C67.2105 41.9389 66.4324 41.5829 65.8801 40.9705C65.6107 40.677 65.4086 40.3282 65.2879 39.9485C65.1672 39.5689 65.1308 39.1674 65.1812 38.7722L65.2009 38.5737L67.5321 38.8067Z" fill="white"/>
<path d="M54.8133 49.8623L54.2588 47.7756L66.6824 42.0552L67.2369 44.1419L54.8133 49.8623Z" fill="white"/>
<path d="M64.8934 27.854L67.6954 24.7699L68.2876 27.0485L64.6244 31.0547L64.3586 31.3598C64.1182 31.6247 63.8422 31.855 63.5384 32.0439C63.1775 32.2894 62.7775 32.4719 62.3555 32.5836C61.8785 32.7167 61.3785 32.7467 60.8889 32.6717C60.3993 32.5968 59.9313 32.4185 59.5158 32.1489C58.6299 31.5966 58.0404 30.7577 57.7473 29.6324C57.4542 28.507 57.5603 27.4871 58.0656 26.5728C58.2975 26.1359 58.6195 25.7532 59.0104 25.45C59.4012 25.1468 59.8519 24.9301 60.3328 24.8142C60.8015 24.6913 61.2902 24.6645 61.7695 24.7356C62.2488 24.8066 62.7088 24.974 63.1217 25.2276C64.0305 25.7525 64.6047 26.4754 64.8442 27.3963C64.888 27.5447 64.9047 27.6997 64.8934 27.854ZM59.6635 29.1353C59.7176 29.3696 59.8181 29.5908 59.959 29.7857C60.0998 29.9807 60.2782 30.1455 60.4837 30.2705C60.6803 30.3924 60.9003 30.4718 61.1294 30.5038C61.3585 30.5357 61.5917 30.5193 61.8142 30.4558C62.0395 30.4021 62.2512 30.3025 62.4362 30.163C62.6211 30.0235 62.7752 29.8473 62.8887 29.6454C63.0072 29.4364 63.0827 29.2059 63.1109 28.9673C63.1391 28.7286 63.1193 28.4868 63.0528 28.2559C62.9991 28.0216 62.8988 27.8005 62.7579 27.6057C62.617 27.411 62.4383 27.2466 62.2325 27.1224C62.0352 27.0006 61.8148 26.9212 61.5852 26.8893C61.3555 26.8573 61.1218 26.8736 60.8988 26.937C60.6737 26.9902 60.4622 27.0899 60.2778 27.2294C60.0934 27.3689 59.94 27.5453 59.8275 27.7474C59.7085 27.9558 59.6322 28.186 59.6032 28.4243C59.5742 28.6626 59.593 28.9043 59.6585 29.1353H59.6635Z" fill="white"/>
<path d="M55.5434 6.748L52.9186 6.58395C52.7654 6.57959 52.6153 6.53947 52.4803 6.46684C52.3453 6.39421 52.2291 6.29108 52.141 6.16561C51.9494 5.88745 51.8633 5.55006 51.8982 5.21411C51.9047 4.87821 52.0303 4.55553 52.2526 4.30362C52.3566 4.19029 52.4857 4.10291 52.6296 4.04849C52.7734 3.99408 52.928 3.97416 53.081 3.9903L55.7058 4.15435C55.8603 4.15802 56.0118 4.1972 56.1486 4.2689C56.2855 4.34059 56.404 4.44287 56.4949 4.56776C56.6862 4.84485 56.7722 5.18108 56.7377 5.51598C56.7297 5.85344 56.6024 6.17713 56.3784 6.42971C56.2735 6.54394 56.1434 6.63217 55.9985 6.68741C55.8536 6.74265 55.6978 6.76341 55.5434 6.748ZM55.6353 5.28628L53.0105 5.12223C52.8727 5.11348 52.8005 5.16272 52.7939 5.2699C52.7874 5.37708 52.853 5.43776 52.9908 5.45198L55.6156 5.61603C55.76 5.62423 55.8371 5.57173 55.8436 5.45198C55.8502 5.33222 55.7715 5.29285 55.6271 5.29285L55.6353 5.28628Z" fill="white"/>
</svg>
