<svg width="496" height="700" viewBox="0 0 496 700" fill="none" xmlns="http://www.w3.org/2000/svg">
<path d="M216.467 472.321C224.263 475.997 230.544 482.261 234.24 490.048C237.936 497.834 238.818 506.661 236.737 515.026C234.656 523.39 229.74 530.774 222.826 535.921C215.912 541.068 207.428 543.659 198.819 543.253C190.209 542.847 182.006 539.47 175.607 533.695C169.208 527.921 165.008 520.107 163.723 511.584C162.438 503.061 164.147 494.356 168.56 486.952C172.972 479.547 179.814 473.901 187.921 470.975C192.517 469.23 197.423 468.449 202.334 468.68C207.245 468.912 212.055 470.151 216.467 472.321ZM220.663 516.267C222.966 510.662 223.106 504.401 221.055 498.698C219.005 492.996 214.909 488.258 209.564 485.403C206.978 484.16 204.17 483.445 201.305 483.299C198.44 483.152 195.574 483.578 192.875 484.55C190.176 485.523 187.698 487.023 185.585 488.964C183.471 490.904 181.766 493.246 180.567 495.852C178.26 501.457 178.118 507.72 180.169 513.423C182.22 519.127 186.318 523.865 191.666 526.717C194.247 527.984 197.056 528.719 199.927 528.878C202.797 529.038 205.671 528.618 208.376 527.645C211.081 526.671 213.563 525.164 215.674 523.212C217.785 521.26 219.481 518.904 220.663 516.283M230.046 637.629L272.631 443.072L288.464 437.375L245.864 631.917L230.046 637.629ZM302.028 602.56C294.221 598.883 287.931 592.612 284.23 584.817C280.528 577.021 279.644 568.184 281.729 559.81C283.813 551.435 288.737 544.043 295.661 538.893C302.585 533.742 311.081 531.152 319.701 531.564C328.321 531.976 336.531 535.364 342.933 541.151C349.334 546.937 353.531 554.765 354.808 563.3C356.085 571.834 354.363 580.548 349.936 587.955C345.508 595.362 338.649 601.005 330.527 603.921C325.935 605.651 321.038 606.423 316.137 606.189C311.236 605.955 306.434 604.72 302.028 602.56ZM297.847 558.613C295.601 564.227 295.492 570.469 297.541 576.157C299.589 581.846 303.653 586.585 308.962 589.478C311.543 590.743 314.352 591.476 317.222 591.634C320.092 591.793 322.965 591.373 325.669 590.399C328.374 589.426 330.855 587.92 332.967 585.969C335.078 584.018 336.775 581.663 337.959 579.044C340.205 573.431 340.314 567.189 338.265 561.5C336.217 555.812 332.153 551.072 326.844 548.18C324.263 546.913 321.454 546.178 318.584 546.018C315.713 545.859 312.84 546.278 310.135 547.252C307.429 548.225 304.948 549.733 302.837 551.684C300.726 553.636 299.029 555.993 297.847 558.613Z" fill="white"/>
<path d="M244.798 102.114L244.776 79.8371C244.828 79.0993 244.674 78.3616 244.333 77.7054C243.992 77.0492 243.476 76.5 242.843 76.1185C242.278 75.7485 241.618 75.5518 240.943 75.5524C240.268 75.5531 239.608 75.7512 239.045 76.1223C238.408 76.5011 237.891 77.0505 237.55 77.7084C237.21 78.3663 237.06 79.1063 237.119 79.8447L237.143 104.236C237.145 106.49 238.104 107.601 240.002 107.599C240.642 107.603 241.275 107.466 241.856 107.199C242.438 106.932 242.953 106.54 243.366 106.052C244.32 104.95 244.81 103.522 244.736 102.067M244.77 136.293L244.746 112.318C243.438 113.984 241.777 115.34 239.883 116.29C237.989 117.239 235.909 117.758 233.791 117.809C232.542 117.837 231.3 117.606 230.144 117.132C228.988 116.658 227.943 115.95 227.073 115.052C226.153 114.078 225.437 112.928 224.969 111.671C224.501 110.415 224.29 109.077 224.349 107.738L224.321 79.8574C224.236 77.8677 224.609 75.8851 225.41 74.0618C226.211 72.2385 227.419 70.6231 228.942 69.3397C232.339 66.6248 236.603 65.2281 240.948 65.4067C245.235 65.2296 249.44 66.6193 252.778 69.3161C254.295 70.6032 255.501 72.2174 256.305 74.0374C257.109 75.8575 257.49 77.8361 257.419 79.8245L257.475 136.326C257.558 138.325 257.185 140.316 256.385 142.149C255.584 143.982 254.377 145.608 252.855 146.906C249.428 149.473 245.262 150.863 240.979 150.868C236.697 150.872 232.528 149.49 229.096 146.929C227.568 145.651 226.355 144.039 225.55 142.216C224.745 140.394 224.37 138.411 224.454 136.421L224.445 126.896L237.258 126.883L237.268 136.47C237.205 137.204 237.347 137.942 237.677 138.601C238.007 139.26 238.513 139.814 239.139 140.204C239.706 140.566 240.366 140.759 241.039 140.758C241.712 140.757 242.371 140.564 242.937 140.2C243.585 139.799 244.108 139.225 244.448 138.543C244.788 137.861 244.932 137.098 244.863 136.339" fill="#F4A276"/>
<path d="M245.078 385.008L245.056 362.747C245.121 361.997 244.974 361.244 244.632 360.573C244.291 359.902 243.768 359.34 243.123 358.951C242.559 358.581 241.898 358.384 241.223 358.385C240.549 358.386 239.889 358.584 239.325 358.955C238.687 359.336 238.169 359.889 237.829 360.549C237.488 361.21 237.34 361.952 237.399 362.693L237.423 387.069C237.426 389.323 238.384 390.433 240.283 390.431C240.923 390.436 241.555 390.299 242.137 390.032C242.718 389.765 243.233 389.373 243.647 388.884C244.6 387.783 245.091 386.355 245.017 384.9M245.051 419.125L245.027 395.212C243.718 396.879 242.058 398.235 240.164 399.184C238.27 400.133 236.189 400.652 234.072 400.704C232.814 400.744 231.562 400.522 230.395 400.053C229.228 399.584 228.171 398.877 227.292 397.978C226.376 396.996 225.667 395.839 225.207 394.577C224.747 393.315 224.545 391.974 224.614 390.632L224.586 362.844C224.5 360.852 224.872 358.867 225.673 357.041C226.474 355.215 227.683 353.597 229.207 352.311C232.607 349.602 236.87 348.211 241.214 348.394C245.499 348.211 249.704 349.595 253.043 352.288C254.561 353.577 255.768 355.194 256.572 357.017C257.376 358.84 257.756 360.821 257.684 362.812L257.74 419.298C257.823 421.296 257.45 423.287 256.65 425.12C255.849 426.953 254.642 428.58 253.12 429.877C249.693 432.445 245.527 433.835 241.244 433.839C236.962 433.844 232.793 432.462 229.361 429.901C227.833 428.623 226.62 427.01 225.815 425.188C225.01 423.366 224.635 421.383 224.719 419.393L224.71 409.821L237.523 409.808L237.533 419.38C237.47 420.114 237.612 420.852 237.942 421.511C238.272 422.17 238.778 422.724 239.404 423.114C239.971 423.476 240.631 423.669 241.304 423.668C241.977 423.667 242.636 423.474 243.202 423.11C243.851 422.71 244.375 422.136 244.715 421.454C245.056 420.772 245.199 420.008 245.128 419.249" fill="#F4A276"/>
<path d="M282.237 120.54L274.863 141.558C274.564 142.232 274.455 142.976 274.548 143.708C274.642 144.44 274.933 145.132 275.392 145.71C275.806 146.24 276.365 146.639 277 146.86C277.635 147.081 278.321 147.115 278.975 146.957C279.71 146.817 280.39 146.471 280.936 145.959C281.482 145.448 281.871 144.791 282.059 144.067L290.126 121.057C290.865 118.941 290.338 117.568 288.578 116.937C287.982 116.721 287.348 116.636 286.716 116.687C286.085 116.738 285.472 116.925 284.919 117.234C283.656 117.958 282.723 119.143 282.314 120.54M293.628 88.2486L285.685 110.919C287.471 109.782 289.485 109.053 291.585 108.784C293.685 108.515 295.818 108.713 297.833 109.363C299.031 109.745 300.138 110.37 301.082 111.201C302.026 112.032 302.787 113.05 303.318 114.19C303.857 115.421 304.143 116.749 304.16 118.093C304.178 119.437 303.925 120.771 303.419 122.016L294.182 148.27C293.596 150.175 292.581 151.92 291.215 153.372C289.848 154.824 288.168 155.944 286.302 156.645C282.198 158.082 277.713 157.987 273.673 156.379C269.569 155.127 266.064 152.418 263.817 148.763C262.815 147.047 262.216 145.126 262.064 143.144C261.912 141.163 262.212 139.173 262.941 137.324L281.567 84.1232C282.16 82.2092 283.181 80.455 284.551 78.9934C285.922 77.5317 287.607 76.4009 289.479 75.6864C293.562 74.3902 297.956 74.4498 302.003 75.8565C306.05 77.2632 309.533 79.9414 311.933 83.491C312.952 85.2054 313.565 87.1305 313.725 89.1186C313.885 91.1067 313.587 93.1051 312.855 94.9603L309.684 103.994L297.592 99.7611L300.763 90.7115C301.062 90.0397 301.171 89.2985 301.078 88.569C300.985 87.8395 300.693 87.1496 300.234 86.5747C299.82 86.045 299.261 85.6457 298.626 85.4246C297.991 85.2035 297.305 85.1699 296.651 85.3278C295.908 85.4885 295.225 85.8547 294.679 86.3848C294.134 86.9148 293.749 87.5874 293.567 88.3258" fill="#F4A276"/>
<path d="M188.656 387.518L181.283 408.536C180.983 409.208 180.874 409.949 180.968 410.679C181.061 411.408 181.353 412.098 181.812 412.673C182.224 413.206 182.782 413.608 183.417 413.832C184.053 414.056 184.739 414.092 185.394 413.935C186.129 413.793 186.808 413.447 187.354 412.935C187.899 412.424 188.29 411.769 188.479 411.045L196.545 388.02C197.284 385.904 196.758 384.531 194.998 383.9C194.402 383.682 193.766 383.597 193.134 383.651C192.502 383.705 191.889 383.897 191.339 384.212C190.073 384.932 189.138 386.119 188.734 387.518M200.048 355.211L192.105 377.882C193.889 376.741 195.904 376.009 198.004 375.74C200.105 375.471 202.239 375.671 204.253 376.326C205.453 376.706 206.562 377.332 207.509 378.162C208.456 378.993 209.22 380.011 209.753 381.152C210.286 382.384 210.567 383.708 210.582 385.05C210.596 386.391 210.344 387.721 209.838 388.964L200.602 415.217C200.021 417.127 199.008 418.877 197.641 420.332C196.274 421.787 194.591 422.908 192.721 423.608C188.615 425.031 184.133 424.932 180.093 423.327C175.991 422.08 172.485 419.376 170.236 415.726C169.234 414.007 168.635 412.082 168.486 410.098C168.337 408.114 168.641 406.121 169.376 404.272L188.064 350.947C188.656 349.035 189.675 347.282 191.042 345.821C192.41 344.36 194.091 343.228 195.96 342.51C200.021 341.038 204.481 341.105 208.496 342.699C212.612 343.958 216.135 346.663 218.414 350.315C219.437 352.028 220.052 353.953 220.212 355.942C220.371 357.931 220.072 359.93 219.336 361.784L216.165 370.834L204.012 366.709L207.183 357.674C207.482 357 207.59 356.256 207.497 355.524C207.404 354.793 207.112 354.1 206.654 353.522C206.239 352.992 205.681 352.593 205.046 352.372C204.41 352.151 203.725 352.117 203.071 352.275C202.33 352.441 201.649 352.809 201.105 353.338C200.56 353.867 200.173 354.537 199.986 355.273" fill="#F4A276"/>
<path d="M294.312 387.198L302.9 407.752C303.114 408.448 303.516 409.07 304.061 409.552C304.606 410.034 305.274 410.355 305.99 410.482C306.652 410.601 307.334 410.527 307.955 410.269C308.576 410.011 309.11 409.58 309.493 409.027C309.939 408.433 310.208 407.726 310.27 406.986C310.332 406.246 310.184 405.503 309.844 404.843L300.451 382.329C299.584 380.261 298.271 379.599 296.512 380.326C295.923 380.563 295.392 380.925 294.956 381.387C294.519 381.848 294.188 382.398 293.983 382.999C293.53 384.381 293.625 385.884 294.25 387.198M281.081 355.626L290.366 377.785C290.936 375.747 291.949 373.859 293.333 372.257C294.716 370.654 296.435 369.377 298.369 368.514C299.516 367.993 300.759 367.717 302.018 367.702C303.278 367.688 304.527 367.935 305.686 368.43C306.908 368.988 308.006 369.784 308.916 370.772C309.826 371.76 310.53 372.92 310.987 374.183L321.711 399.891C322.554 401.702 322.97 403.682 322.927 405.679C322.883 407.676 322.381 409.636 321.459 411.408C319.361 415.217 315.961 418.141 311.881 419.646C308.012 421.437 303.624 421.765 299.532 420.569C297.635 419.969 295.901 418.942 294.463 417.568C293.025 416.194 291.92 414.509 291.234 412.642L269.369 360.469C268.524 358.652 268.105 356.666 268.143 354.662C268.181 352.659 268.676 350.69 269.589 348.906C271.757 345.211 275.063 342.317 279.013 340.658C282.963 338.998 287.344 338.662 291.501 339.699C293.408 340.284 295.154 341.3 296.604 342.67C298.054 344.039 299.168 345.725 299.861 347.595L303.559 356.437L291.723 361.373L288.04 352.531C287.811 351.831 287.395 351.207 286.837 350.726C286.278 350.245 285.599 349.925 284.873 349.802C284.202 349.694 283.514 349.783 282.893 350.057C282.271 350.332 281.742 350.781 281.37 351.349C280.925 351.969 280.662 352.7 280.611 353.462C280.56 354.223 280.723 354.983 281.081 355.657" fill="#F4A276"/>
<path d="M185.371 126.132L193.944 146.686C194.173 147.387 194.589 148.011 195.148 148.492C195.706 148.973 196.385 149.292 197.111 149.416C197.775 149.533 198.458 149.457 199.079 149.196C199.701 148.936 200.233 148.501 200.614 147.946C201.057 147.35 201.324 146.642 201.383 145.902C201.443 145.162 201.292 144.42 200.95 143.762L191.557 121.263C190.706 119.195 189.393 118.533 187.634 119.26C187.044 119.496 186.512 119.857 186.075 120.318C185.638 120.78 185.307 121.331 185.104 121.933C184.65 123.32 184.746 124.829 185.371 126.147M172.187 94.5596L181.471 116.719C182.044 114.681 183.058 112.795 184.441 111.193C185.824 109.591 187.542 108.312 189.474 107.448C190.622 106.931 191.865 106.656 193.124 106.642C194.383 106.627 195.632 106.873 196.792 107.364C198.013 107.921 199.109 108.717 200.017 109.705C200.925 110.693 201.626 111.853 202.077 113.117L212.816 138.841C213.655 140.65 214.069 142.627 214.025 144.621C213.982 146.614 213.482 148.571 212.565 150.342C210.472 154.154 207.069 157.08 202.987 158.58C199.098 160.399 194.678 160.733 190.56 159.518C188.669 158.908 186.941 157.878 185.504 156.505C184.067 155.133 182.959 153.453 182.263 151.592L160.475 99.434C159.637 97.6143 159.223 95.6283 159.264 93.6255C159.304 91.6226 159.799 89.6551 160.71 87.871C162.879 84.1728 166.188 81.277 170.141 79.6171C174.094 77.9573 178.479 77.6228 182.638 78.6639C184.544 79.2543 186.289 80.2747 187.739 81.6464C189.188 83.018 190.303 84.7043 190.997 86.5751L194.68 95.4172L182.86 100.354L179.162 91.5114C178.948 90.8161 178.546 90.1934 178.001 89.7118C177.455 89.2302 176.788 88.9085 176.071 88.782C175.41 88.6628 174.727 88.7365 174.106 88.9945C173.485 89.2524 172.951 89.6836 172.569 90.2366C172.124 90.8562 171.861 91.5869 171.807 92.3473C171.753 93.1077 171.912 93.8681 172.264 94.5441" fill="#F4A276"/>
<path d="M336.903 137.422L350.95 120.117C351.459 119.586 351.813 118.924 351.972 118.206C352.132 117.487 352.092 116.738 351.856 116.041C351.643 115.403 351.252 114.839 350.729 114.416C350.206 113.993 349.574 113.727 348.905 113.651C348.169 113.542 347.417 113.642 346.734 113.94C346.052 114.239 345.468 114.723 345.048 115.338L329.629 134.295C328.21 136.025 328.243 137.507 329.726 138.71C330.218 139.113 330.791 139.407 331.407 139.572C332.022 139.736 332.665 139.767 333.293 139.664C334.724 139.4 336 138.598 336.857 137.422M315.271 164.027L330.381 145.363C328.338 145.814 326.221 145.813 324.179 145.362C322.136 144.911 320.216 144.019 318.553 142.75C317.55 141.988 316.717 141.025 316.107 139.922C315.497 138.82 315.124 137.602 315.011 136.347C314.915 135.009 315.09 133.665 315.527 132.397C315.963 131.128 316.652 129.961 317.551 128.965L335.083 107.335C336.278 105.739 337.822 104.436 339.598 103.527C341.374 102.618 343.334 102.128 345.328 102.092C349.665 102.116 353.848 103.701 357.111 106.557C360.556 109.112 362.948 112.837 363.837 117.033C364.201 118.99 364.113 121.006 363.58 122.925C363.047 124.843 362.083 126.615 360.76 128.104L325.22 172.075C324.022 173.678 322.473 174.987 320.692 175.901C318.911 176.815 316.945 177.31 314.944 177.35C310.625 177.379 306.447 175.817 303.207 172.962C299.752 170.389 297.346 166.651 296.435 162.44C296.05 160.484 296.119 158.466 296.636 156.542C297.153 154.617 298.105 152.836 299.419 151.337L305.463 143.89L315.413 151.954L309.384 159.401C308.875 159.933 308.521 160.594 308.361 161.313C308.202 162.031 308.242 162.78 308.477 163.478C308.691 164.115 309.082 164.679 309.605 165.102C310.127 165.526 310.76 165.791 311.428 165.868C312.185 165.964 312.953 165.849 313.647 165.534C314.342 165.22 314.936 164.72 315.363 164.088" fill="#F4A276"/>
<path d="M158.863 357.26L172.878 339.956C173.386 339.423 173.738 338.761 173.895 338.042C174.053 337.324 174.009 336.575 173.77 335.879C173.559 335.24 173.169 334.674 172.646 334.25C172.123 333.826 171.488 333.562 170.819 333.489C170.085 333.385 169.336 333.488 168.657 333.786C167.979 334.084 167.396 334.565 166.976 335.176L151.558 354.133C150.154 355.879 150.187 357.346 151.67 358.548C152.16 358.951 152.73 359.245 153.343 359.409C153.955 359.574 154.596 359.605 155.222 359.502C156.659 359.244 157.941 358.441 158.801 357.26M137.215 383.865L152.325 365.186C150.262 365.656 148.121 365.665 146.055 365.21C143.989 364.756 142.049 363.85 140.374 362.558C139.368 361.796 138.533 360.833 137.921 359.731C137.308 358.629 136.932 357.411 136.817 356.155C136.727 354.817 136.906 353.475 137.342 352.208C137.778 350.94 138.463 349.772 139.356 348.773L156.903 327.143C158.098 325.546 159.643 324.244 161.419 323.335C163.194 322.426 165.154 321.935 167.148 321.899C171.495 321.941 175.682 323.542 178.947 326.411C182.386 328.977 184.776 332.705 185.673 336.902C186.034 338.86 185.944 340.874 185.411 342.792C184.878 344.711 183.916 346.482 182.597 347.974L147.041 391.883C145.841 393.484 144.292 394.791 142.511 395.705C140.731 396.619 138.766 397.116 136.765 397.157C132.478 397.01 128.354 395.478 125.011 392.79C121.669 390.102 119.288 386.403 118.225 382.247C117.836 380.292 117.903 378.273 118.421 376.348C118.938 374.422 119.892 372.642 121.209 371.145L127.345 363.698L137.311 371.762L131.344 379.131C130.834 379.663 130.481 380.324 130.321 381.043C130.161 381.762 130.201 382.51 130.437 383.208C130.647 383.848 131.037 384.413 131.561 384.837C132.084 385.261 132.718 385.525 133.388 385.598C134.144 385.694 134.912 385.579 135.607 385.265C136.302 384.951 136.895 384.45 137.323 383.819" fill="#F4A276"/>
<path d="M354.293 175.317L335.362 187.007C334.707 187.338 334.156 187.843 333.77 188.467C333.383 189.091 333.177 189.81 333.174 190.544C333.16 191.217 333.338 191.88 333.689 192.454C334.04 193.028 334.548 193.49 335.153 193.784C335.81 194.126 336.55 194.278 337.289 194.223C338.028 194.168 338.737 193.907 339.336 193.471L360.056 180.668C361.969 179.509 362.416 178.103 361.426 176.483C361.098 175.929 360.651 175.454 360.116 175.094C359.582 174.734 358.974 174.498 358.337 174.402C356.901 174.166 355.43 174.494 354.231 175.317M383.406 157.381L362.994 169.967C365.093 170.213 367.112 170.92 368.906 172.036C370.701 173.152 372.227 174.651 373.375 176.425C374.068 177.476 374.535 178.659 374.746 179.9C374.957 181.141 374.908 182.413 374.602 183.633C374.251 184.936 373.642 186.155 372.81 187.216C371.979 188.278 370.941 189.161 369.76 189.813L346.078 204.425C344.428 205.539 342.544 206.259 340.571 206.529C338.599 206.798 336.591 206.611 334.702 205.98C330.617 204.506 327.203 201.603 325.092 197.808C322.697 194.252 321.682 189.943 322.239 185.692C322.539 183.728 323.282 181.857 324.412 180.221C325.542 178.586 327.028 177.229 328.76 176.253L376.757 146.627C378.422 145.52 380.316 144.804 382.297 144.535C384.278 144.265 386.295 144.449 388.195 145.072C392.266 146.489 395.679 149.346 397.79 153.106C400.189 156.684 401.213 161.009 400.673 165.283C400.39 167.255 399.657 169.136 398.532 170.781C397.407 172.425 395.919 173.789 394.183 174.768L386.006 179.732L379.311 168.824L387.441 163.799C388.099 163.465 388.652 162.957 389.04 162.331C389.429 161.704 389.638 160.983 389.646 160.246C389.66 159.571 389.48 158.906 389.126 158.332C388.772 157.757 388.26 157.297 387.651 157.006C386.972 156.667 386.213 156.523 385.457 156.592C384.702 156.661 383.981 156.94 383.375 157.396" fill="#F4A276"/>
<path d="M113.411 323.65L94.4502 335.324C93.7908 335.655 93.2358 336.162 92.8468 336.789C92.4578 337.416 92.2499 338.139 92.2462 338.877C92.2313 339.552 92.4117 340.216 92.7655 340.791C93.1194 341.366 93.6317 341.826 94.2408 342.117C94.8986 342.46 95.6398 342.612 96.3796 342.554C97.1195 342.496 97.828 342.23 98.4241 341.788L119.19 329.001C121.104 327.826 121.55 326.436 120.56 324.801C120.229 324.25 119.78 323.78 119.246 323.423C118.712 323.066 118.106 322.831 117.471 322.735C116.035 322.5 114.565 322.828 113.365 323.65M142.509 305.713L122.051 318.3C124.154 318.548 126.176 319.255 127.975 320.371C129.774 321.487 131.306 322.984 132.463 324.758C133.152 325.81 133.617 326.994 133.828 328.234C134.039 329.474 133.992 330.745 133.689 331.966C133.334 333.268 132.721 334.486 131.887 335.548C131.053 336.609 130.014 337.493 128.833 338.146L105.104 352.758C103.448 353.871 101.559 354.591 99.5812 354.86C97.6038 355.13 95.591 354.943 93.6972 354.313C89.6055 352.836 86.1828 349.935 84.056 346.141C81.66 342.579 80.6457 338.266 81.2034 334.01C81.5096 332.047 82.2568 330.179 83.389 328.547C84.5211 326.915 86.0086 325.56 87.7396 324.586L135.845 294.96C137.511 293.849 139.408 293.131 141.392 292.862C143.376 292.592 145.396 292.778 147.298 293.405C151.286 294.972 154.66 297.787 156.917 301.43C159.174 305.072 160.194 309.347 159.823 313.616C159.533 315.588 158.796 317.468 157.669 319.112C156.541 320.756 155.053 322.12 153.317 323.101L145.156 328.126L138.43 317.203L146.591 312.178C147.28 311.857 147.864 311.347 148.273 310.707C148.683 310.066 148.901 309.323 148.903 308.563C148.918 307.888 148.738 307.223 148.384 306.649C148.03 306.074 147.518 305.614 146.908 305.323C146.227 304.984 145.465 304.841 144.708 304.91C143.95 304.979 143.226 305.257 142.617 305.713" fill="#F4A276"/>
<path d="M385.52 219.362L407.128 214.231C407.855 214.123 408.538 213.816 409.102 213.344C409.665 212.872 410.087 212.254 410.321 211.557C410.549 210.924 410.588 210.238 410.434 209.584C410.28 208.929 409.939 208.333 409.453 207.868C408.936 207.334 408.28 206.956 407.56 206.777C406.839 206.597 406.082 206.624 405.376 206.853L381.654 212.465C379.478 212.977 378.568 214.166 379.049 216.034C379.189 216.651 379.46 217.231 379.844 217.734C380.228 218.237 380.716 218.651 381.274 218.949C382.568 219.626 384.073 219.774 385.474 219.362M352.198 227.253L375.55 221.718C373.63 220.828 371.93 219.524 370.572 217.9C369.215 216.276 368.234 214.372 367.698 212.325C367.368 211.11 367.296 209.839 367.487 208.595C367.677 207.351 368.125 206.16 368.802 205.099C369.544 203.979 370.505 203.021 371.626 202.283C372.748 201.544 374.007 201.04 375.328 200.801L402.415 194.367C404.336 193.834 406.353 193.748 408.312 194.116C410.271 194.483 412.12 195.294 413.717 196.486C417.143 199.172 419.478 203.009 420.289 207.286C421.438 211.398 421.053 215.788 419.205 219.637C418.301 221.406 417.006 222.947 415.419 224.141C413.831 225.336 411.993 226.153 410.042 226.532L355.113 239.554C353.184 240.09 351.159 240.181 349.19 239.819C347.221 239.457 345.36 238.652 343.748 237.465C340.319 234.838 337.97 231.046 337.146 226.805C335.993 222.658 336.373 218.235 338.214 214.345C339.107 212.56 340.398 211.004 341.986 209.795C343.574 208.587 345.419 207.758 347.377 207.374L356.638 205.173L359.599 217.643L350.338 219.845C349.608 219.956 348.923 220.266 348.357 220.74C347.792 221.214 347.367 221.835 347.13 222.534C346.91 223.169 346.876 223.854 347.032 224.507C347.189 225.161 347.529 225.756 348.013 226.223C348.552 226.762 349.231 227.139 349.973 227.313C350.715 227.487 351.491 227.45 352.213 227.206" fill="#F4A276"/>
<path d="M110.285 284.581L131.893 279.434C132.622 279.326 133.306 279.019 133.872 278.548C134.438 278.076 134.863 277.458 135.101 276.761C135.324 276.126 135.358 275.44 135.202 274.786C135.045 274.132 134.703 273.537 134.218 273.072C133.701 272.538 133.045 272.16 132.325 271.981C131.604 271.801 130.848 271.828 130.141 272.057L106.419 277.669C104.227 278.196 103.333 279.37 103.798 281.238C103.937 281.856 104.207 282.436 104.592 282.939C104.976 283.443 105.465 283.857 106.024 284.153C107.318 284.827 108.82 284.98 110.224 284.581M76.9169 292.457L100.284 286.922C98.366 286.031 96.6689 284.727 95.3141 283.103C93.9594 281.479 92.9806 279.575 92.4478 277.528C92.1187 276.314 92.0456 275.045 92.233 273.801C92.4205 272.557 92.8644 271.366 93.5367 270.303C94.2837 269.188 95.2456 268.233 96.3662 267.495C97.4868 266.757 98.7435 266.25 100.063 266.004L127.242 259.586C129.161 259.047 131.179 258.956 133.138 259.321C135.098 259.685 136.948 260.496 138.544 261.69C141.966 264.382 144.304 268.216 145.132 272.49C146.277 276.604 145.886 280.994 144.032 284.841C143.127 286.611 141.832 288.152 140.245 289.349C138.658 290.546 136.82 291.367 134.869 291.751L79.8932 304.757C77.9646 305.294 75.9393 305.385 73.9704 305.023C72.0016 304.661 70.1409 303.856 68.529 302.669C65.0902 300.047 62.735 296.253 61.9111 292.008C60.7514 287.863 61.1309 283.437 62.9793 279.549C63.8743 277.766 65.1652 276.21 66.7533 275.002C68.3414 273.794 70.1847 272.964 72.1424 272.578L81.4028 270.376L84.3638 282.847L75.1034 285.064C74.3729 285.167 73.6856 285.472 73.1189 285.944C72.5521 286.417 72.1283 287.038 71.895 287.738C71.6689 288.371 71.6306 289.056 71.7846 289.71C71.9386 290.365 72.2785 290.961 72.7632 291.426C73.3021 291.965 73.9809 292.343 74.723 292.517C75.4651 292.691 76.241 292.654 76.9632 292.41" fill="#F4A276"/>
<path d="M376.144 260.019L353.989 257.679C353.267 257.539 352.521 257.601 351.832 257.857C351.143 258.114 350.538 258.556 350.084 259.134C349.661 259.659 349.398 260.295 349.328 260.966C349.257 261.637 349.382 262.314 349.687 262.916C349.996 263.591 350.489 264.166 351.109 264.574C351.729 264.983 352.451 265.21 353.193 265.228L377.448 267.798C379.672 268.027 380.89 267.192 381.089 265.309C381.17 264.678 381.111 264.036 380.916 263.431C380.72 262.825 380.393 262.27 379.959 261.806C378.963 260.743 377.598 260.103 376.144 260.019ZM410.11 263.628L386.226 261.089C387.741 262.567 388.911 264.361 389.655 266.343C390.399 268.324 390.697 270.445 390.529 272.555C390.433 273.814 390.076 275.039 389.482 276.153C388.888 277.267 388.069 278.246 387.077 279.027C386.003 279.829 384.779 280.408 383.478 280.731C382.176 281.053 380.824 281.111 379.499 280.902L351.786 277.966C349.795 277.836 347.861 277.251 346.134 276.254C344.406 275.257 342.931 273.876 341.823 272.218C339.48 268.556 338.544 264.169 339.186 259.87C339.457 255.585 341.288 251.547 344.331 248.518C345.774 247.151 347.508 246.128 349.404 245.527C351.299 244.926 353.305 244.763 355.273 245.049L411.456 250.999C413.454 251.139 415.395 251.731 417.131 252.729C418.867 253.727 420.355 255.106 421.481 256.763C423.855 260.372 424.82 264.727 424.195 269.002C423.905 273.299 422.073 277.347 419.035 280.4C417.606 281.791 415.875 282.834 413.977 283.446C412.079 284.058 410.065 284.224 408.093 283.931L398.567 282.921L399.913 270.184L409.439 271.193C410.171 271.322 410.925 271.246 411.617 270.973C412.309 270.7 412.911 270.24 413.358 269.646C413.78 269.122 414.04 268.487 414.108 267.819C414.176 267.15 414.048 266.476 413.74 265.878C413.412 265.191 412.898 264.609 412.257 264.198C411.616 263.786 410.872 263.562 410.11 263.551" fill="#F4A276"/>
<path d="M94.7939 230.24L72.6694 227.9C71.9464 227.764 71.1998 227.829 70.5112 228.088C69.8227 228.347 69.2187 228.791 68.7652 229.37C68.3378 229.891 68.0723 230.525 68.0016 231.194C67.9309 231.864 68.0582 232.539 68.3675 233.138C68.6771 233.812 69.1699 234.387 69.7898 234.796C70.4097 235.204 71.1318 235.431 71.8742 235.45L96.1293 238.019C98.3525 238.248 99.5713 237.429 99.7701 235.53C99.8469 234.899 99.7855 234.259 99.5904 233.654C99.3952 233.049 99.0708 232.494 98.6397 232.027C97.6463 230.963 96.2782 230.328 94.8248 230.255M128.791 233.849L104.907 231.326C106.422 232.803 107.592 234.597 108.334 236.579C109.075 238.561 109.369 240.683 109.194 242.792C109.103 244.048 108.751 245.272 108.159 246.383C107.567 247.495 106.749 248.471 105.758 249.248C104.685 250.053 103.462 250.635 102.16 250.96C100.859 251.285 99.5055 251.346 98.1801 251.139L70.4666 248.203C68.4776 248.067 66.5458 247.479 64.819 246.483C63.0923 245.486 61.6161 244.108 60.5036 242.454C58.1666 238.79 57.2304 234.406 57.8669 230.107C58.135 225.825 59.9658 221.791 63.0118 218.77C64.4516 217.397 66.1851 216.37 68.0809 215.766C69.9766 215.162 71.985 214.998 73.9537 215.286L130.137 221.251C132.135 221.385 134.076 221.972 135.813 222.968C137.55 223.964 139.037 225.343 140.162 226.999C142.529 230.611 143.489 234.966 142.86 239.239C142.58 243.54 140.752 247.594 137.715 250.652C136.282 252.036 134.55 253.074 132.654 253.686C130.757 254.298 128.746 254.468 126.774 254.183L117.232 253.173L118.593 240.421L128.119 241.43C128.841 241.568 129.587 241.505 130.275 241.249C130.964 240.992 131.568 240.552 132.024 239.975C132.45 239.451 132.715 238.816 132.788 238.145C132.862 237.474 132.74 236.796 132.437 236.192C132.104 235.505 131.588 234.923 130.944 234.512C130.3 234.101 129.555 233.877 128.791 233.865" fill="#F4A276"/>
<path d="M372.264 317.142L392.342 326.801C392.971 327.182 393.692 327.383 394.427 327.383C395.162 327.382 395.883 327.18 396.511 326.797C397.088 326.447 397.551 325.936 397.843 325.327C398.136 324.719 398.246 324.038 398.159 323.368C398.097 322.63 397.827 321.924 397.382 321.332C396.936 320.739 396.332 320.285 395.639 320.021L373.646 309.422C371.638 308.456 370.218 308.828 369.386 310.537C369.1 311.104 368.941 311.727 368.921 312.361C368.9 312.996 369.018 313.627 369.266 314.212C369.847 315.551 370.92 316.617 372.264 317.188M341.374 302.322L362.997 312.751C362.069 310.849 361.572 308.767 361.541 306.651C361.509 304.535 361.944 302.438 362.815 300.509C363.324 299.358 364.069 298.325 365.001 297.479C365.934 296.632 367.033 295.991 368.229 295.595C369.502 295.205 370.84 295.072 372.165 295.203C373.49 295.335 374.776 295.727 375.948 296.359L401.047 308.468C402.878 309.262 404.503 310.466 405.795 311.988C407.086 313.51 408.011 315.309 408.496 317.245C409.464 321.485 408.866 325.933 406.81 329.766C405.105 333.703 402.024 336.884 398.143 338.713C396.325 339.517 394.347 339.897 392.36 339.824C390.373 339.751 388.428 339.227 386.673 338.293L335.781 313.751C333.948 312.949 332.32 311.741 331.022 310.218C329.723 308.695 328.788 306.896 328.285 304.959C327.284 300.792 327.829 296.404 329.817 292.607C331.536 288.655 334.625 285.456 338.515 283.599C340.331 282.774 342.313 282.377 344.307 282.44C346.301 282.502 348.255 283.021 350.016 283.958L358.65 288.117L353.088 299.67L344.455 295.51C343.824 295.126 343.1 294.924 342.362 294.924C341.624 294.925 340.901 295.129 340.271 295.515C339.698 295.866 339.238 296.374 338.946 296.979C338.653 297.584 338.541 298.261 338.623 298.928C338.698 299.687 338.987 300.41 339.454 301.013C339.922 301.616 340.549 302.075 341.266 302.337" fill="#F4A276"/>
<path d="M117.42 194.279L137.499 203.954C138.129 204.338 138.853 204.541 139.591 204.54C140.329 204.539 141.053 204.335 141.682 203.95C142.256 203.599 142.716 203.09 143.008 202.485C143.3 201.88 143.412 201.203 143.331 200.536C143.263 199.795 142.99 199.088 142.542 198.494C142.094 197.9 141.489 197.443 140.796 197.173L118.833 186.59C116.81 185.619 115.39 185.991 114.558 187.705C114.275 188.273 114.118 188.896 114.1 189.531C114.082 190.165 114.203 190.796 114.453 191.38C115.024 192.717 116.094 193.779 117.436 194.341M86.5458 179.489L108.169 189.919C107.241 188.017 106.744 185.934 106.712 183.819C106.681 181.703 107.116 179.606 107.987 177.677C108.502 176.528 109.249 175.497 110.18 174.649C111.112 173.8 112.208 173.153 113.401 172.747C115.975 171.974 118.752 172.254 121.12 173.527L146.234 185.636C148.063 186.427 149.685 187.629 150.974 189.148C152.264 190.668 153.185 192.464 153.668 194.397C154.643 198.637 154.044 203.088 151.982 206.919C150.288 210.858 147.211 214.04 143.331 215.866C141.512 216.669 139.534 217.049 137.547 216.976C135.56 216.903 133.615 216.38 131.86 215.445L80.8915 190.919C79.0578 190.117 77.4303 188.909 76.1317 187.386C74.8332 185.862 73.8976 184.064 73.3955 182.127C72.5768 177.887 73.1608 173.495 75.0592 169.616C76.9576 165.737 80.0673 162.582 83.9181 160.627C85.7344 159.801 87.7163 159.404 89.7106 159.466C91.7049 159.529 93.6582 160.049 95.4195 160.986L104.053 165.146L98.4917 176.699L89.8579 172.539C89.2294 172.158 88.5083 171.957 87.7733 171.958C87.0383 171.959 86.3176 172.161 85.6898 172.543C85.0833 172.881 84.5919 173.392 84.2788 174.012C83.9657 174.631 83.8454 175.33 83.9333 176.019C84.0113 176.775 84.2985 177.494 84.7626 178.097C85.2268 178.699 85.8496 179.16 86.5611 179.428" fill="#F4A276"/>
<path d="M339.376 342.847L323.661 327.07C323.188 326.506 322.569 326.083 321.871 325.85C321.173 325.616 320.424 325.58 319.707 325.747C319.048 325.883 318.444 326.208 317.967 326.683C317.49 327.158 317.163 327.762 317.024 328.42C316.839 329.137 316.859 329.891 317.08 330.598C317.302 331.304 317.717 331.934 318.278 332.417L335.493 349.69C337.038 351.232 338.582 351.401 339.908 350.056C340.36 349.612 340.71 349.076 340.936 348.484C341.162 347.893 341.258 347.26 341.217 346.628C341.121 345.176 340.46 343.819 339.376 342.847ZM363.545 367.076L346.547 350.111C346.789 352.212 346.565 354.34 345.892 356.344C345.219 358.349 344.113 360.18 342.652 361.709C341.788 362.626 340.741 363.352 339.58 363.842C338.419 364.333 337.169 364.576 335.909 364.556C334.568 364.506 333.251 364.187 332.036 363.618C330.821 363.049 329.732 362.242 328.835 361.244L309.164 341.519C307.69 340.158 306.552 338.475 305.838 336.601C305.124 334.727 304.853 332.713 305.046 330.717C305.537 326.396 307.579 322.401 310.793 319.472C313.699 316.313 317.663 314.331 321.934 313.904C323.917 313.749 325.91 314.048 327.761 314.776C329.612 315.504 331.274 316.643 332.621 318.108L372.505 358.113C373.973 359.48 375.109 361.163 375.828 363.035C376.547 364.907 376.829 366.918 376.653 368.915C376.223 373.21 374.227 377.196 371.045 380.113C368.119 383.278 364.144 385.273 359.858 385.728C357.873 385.902 355.874 385.618 354.015 384.897C352.157 384.176 350.489 383.038 349.141 381.571L342.372 374.785L351.456 365.745L358.224 372.531C358.697 373.095 359.316 373.517 360.014 373.751C360.712 373.985 361.461 374.021 362.178 373.854C362.836 373.716 363.44 373.39 363.916 372.916C364.392 372.441 364.721 371.839 364.861 371.181C365.041 370.442 365.01 369.667 364.772 368.944C364.534 368.221 364.098 367.579 363.514 367.091" fill="#F4A276"/>
<path d="M139.723 142.402L124.022 126.625C123.548 126.062 122.929 125.64 122.232 125.403C121.536 125.167 120.787 125.127 120.069 125.286C119.408 125.428 118.803 125.757 118.324 126.233C117.846 126.71 117.514 127.315 117.37 127.975C117.184 128.695 117.204 129.454 117.429 130.163C117.654 130.873 118.073 131.505 118.64 131.987L135.854 149.26C137.431 150.854 138.897 150.976 140.255 149.626C140.712 149.183 141.068 148.645 141.297 148.05C141.525 147.456 141.622 146.818 141.579 146.182C141.473 144.733 140.814 143.379 139.738 142.402M163.891 166.646L146.893 149.681C147.138 151.782 146.916 153.911 146.243 155.916C145.57 157.921 144.462 159.752 142.999 161.279C142.137 162.195 141.093 162.922 139.935 163.412C138.776 163.902 137.528 164.145 136.271 164.126C134.928 164.076 133.608 163.757 132.39 163.188C131.173 162.62 130.082 161.812 129.181 160.814L109.51 141.073C108.04 139.71 106.903 138.027 106.189 136.153C105.475 134.28 105.203 132.267 105.393 130.271C105.893 125.949 107.934 121.952 111.14 119.011C114.054 115.864 118.014 113.885 122.28 113.443C124.264 113.289 126.256 113.587 128.107 114.315C129.959 115.043 131.62 116.183 132.967 117.647L172.836 157.745C174.306 159.11 175.445 160.793 176.167 162.665C176.888 164.537 177.173 166.549 177 168.547C176.391 172.789 174.427 176.72 171.4 179.753C168.373 182.787 164.445 184.759 160.205 185.375C158.217 185.55 156.215 185.265 154.355 184.545C152.494 183.824 150.823 182.686 149.471 181.218L142.703 174.432L151.848 165.299L158.617 172.085C159.089 172.651 159.707 173.075 160.405 173.312C161.102 173.548 161.852 173.587 162.57 173.424C163.231 173.282 163.836 172.953 164.315 172.477C164.793 172 165.125 171.395 165.269 170.736C165.443 169.995 165.408 169.22 165.168 168.498C164.927 167.775 164.49 167.134 163.907 166.646" fill="#F4A276"/>
<path d="M251.195 248.364C252.781 248.419 254.282 249.097 255.37 250.253C256.458 251.408 257.046 252.946 257.006 254.533C256.961 255.355 256.753 256.159 256.393 256.899C256.033 257.639 255.529 258.3 254.911 258.842C253.724 260.006 252.128 260.656 250.466 260.653C248.876 260.606 247.369 259.93 246.277 258.773C245.185 257.617 244.596 256.074 244.64 254.484C244.685 253.658 244.894 252.85 245.257 252.107C245.619 251.364 246.128 250.702 246.751 250.159C247.335 249.579 248.028 249.121 248.792 248.812C249.555 248.504 250.372 248.352 251.195 248.364ZM260.472 262.989C261.662 261.864 262.609 260.506 263.252 258.999C263.896 257.493 264.224 255.871 264.215 254.233C264.307 252.571 264.062 250.908 263.496 249.343C262.929 247.779 262.052 246.345 260.918 245.128C259.782 243.865 258.39 242.858 256.835 242.176C255.279 241.493 253.597 241.15 251.898 241.169C250.089 241.17 248.298 241.527 246.628 242.22C244.957 242.913 243.439 243.928 242.161 245.208C239.409 247.619 237.711 251.012 237.431 254.66C237.295 256.351 237.519 258.05 238.091 259.647C238.662 261.243 239.566 262.7 240.744 263.92C242.666 265.877 245.085 267.273 247.741 267.958L249.069 268.28L267.136 272.755L273.027 267.253L259.13 263.824C259.619 263.623 260.064 263.329 260.441 262.959" fill="#00B5A5"/>
<path d="M185.168 248.429C186.756 248.484 188.258 249.163 189.348 250.317C190.439 251.472 191.03 253.01 190.994 254.599C190.948 255.421 190.737 256.226 190.375 256.967C190.012 257.707 189.505 258.367 188.884 258.908C188.298 259.487 187.604 259.945 186.842 260.255C186.079 260.566 185.263 260.723 184.44 260.718C182.849 260.672 181.343 259.996 180.25 258.839C179.158 257.682 178.569 256.139 178.613 254.549C178.658 253.724 178.868 252.916 179.23 252.173C179.593 251.43 180.101 250.767 180.724 250.224C181.308 249.644 182.002 249.186 182.765 248.878C183.528 248.57 184.345 248.417 185.168 248.429ZM194.445 263.055C195.636 261.929 196.582 260.571 197.226 259.065C197.869 257.559 198.197 255.936 198.188 254.298C198.28 252.637 198.036 250.974 197.469 249.409C196.902 247.844 196.026 246.41 194.891 245.193C193.752 243.93 192.358 242.923 190.8 242.241C189.242 241.558 187.557 241.215 185.856 241.235C182.224 241.363 178.76 242.799 176.102 245.277C173.444 247.756 171.77 251.112 171.389 254.726C171.249 256.415 171.471 258.114 172.04 259.711C172.608 261.308 173.511 262.765 174.686 263.985C176.61 265.947 179.036 267.344 181.699 268.023L183.027 268.346L201.124 272.82L207.016 267.319L193.119 263.89C193.605 263.685 194.05 263.391 194.43 263.024" fill="#00B5A5"/>
<path d="M235.581 288.564L216.979 288.582L216.974 283.92L227.62 261.432L233.609 261.426L223.164 283.327L235.576 283.315L235.581 288.564Z" fill="white"/>
<path d="M214.391 309.919C222.208 311.588 230.29 311.58 238.103 309.895C241.578 309.206 244.982 308.2 248.274 306.89C251.098 305.714 253.644 304.569 255.896 303.425C257.678 302.571 259.395 301.589 261.034 300.486L262.7 299.25L268.406 308.507C267.943 308.908 267.295 309.434 266.432 310.052C265.568 310.671 263.732 311.861 260.908 313.531C254.604 317.299 247.697 319.954 240.492 321.378C235.841 322.424 231.089 322.946 226.322 322.936C221.588 322.921 216.868 322.409 212.241 321.407C208.188 320.615 204.229 319.403 200.428 317.79C197.215 316.342 194.342 314.92 191.809 313.523C189.82 312.491 187.923 311.289 186.14 309.931L184.209 308.39L189.479 299.122L191.256 300.386C192.889 301.428 194.575 302.385 196.307 303.252C198.891 304.593 201.546 305.791 204.261 306.841C207.559 308.046 210.946 308.992 214.391 309.672" fill="#00B5A5"/>
<path d="M277.49 206.332L274.099 211.136L279.795 211.455L283.187 206.635L283.536 200.46L243.025 198.246L242.692 204.421L277.49 206.332Z" fill="white"/>
<path d="M174.588 211.204L177.989 216.017L172.293 216.332L168.891 211.534L168.546 205.344L209.036 203.05L209.398 209.24L174.588 211.204Z" fill="white"/>
</svg>
