<svg width="259" height="240" viewBox="0 0 259 240" fill="none" xmlns="http://www.w3.org/2000/svg">
<path d="M38.2354 129.16C40.4518 131.391 41.6958 134.408 41.6958 137.552C41.6958 140.696 40.4518 143.713 38.2354 145.944C37.1477 147.063 35.8421 147.948 34.3991 148.543C32.9562 149.138 31.4066 149.431 29.846 149.404C26.7042 149.404 23.6912 148.156 21.4696 145.935C19.2481 143.713 18 140.7 18 137.558C18 134.417 19.2481 131.404 21.4696 129.182C23.6912 126.96 26.7042 125.712 29.846 125.712C31.4066 125.685 32.9562 125.979 34.3991 126.574C35.8421 127.169 37.1477 128.054 38.2354 129.173M23.1741 130.764C21.428 132.598 20.454 135.033 20.454 137.565C20.454 140.097 21.428 142.532 23.1741 144.366C24.0366 145.259 25.0745 145.965 26.2226 146.438C27.3708 146.911 28.6044 147.142 29.846 147.116C31.0874 147.141 32.3208 146.91 33.4689 146.437C34.6169 145.964 35.6549 145.258 36.5178 144.366C38.2611 142.53 39.2331 140.096 39.2331 137.565C39.2331 135.034 38.2611 132.599 36.5178 130.764C35.6555 129.87 34.6176 129.164 33.4695 128.691C32.3213 128.218 31.0876 127.987 29.846 128.014C28.6042 127.987 27.3703 128.217 26.222 128.69C25.0737 129.163 24.036 129.869 23.1741 130.764Z" fill="#E84F35"/>
<path d="M158.891 29.4554C160.01 30.544 160.894 31.8505 161.489 33.2941C162.083 34.7378 162.375 36.288 162.347 37.8491C162.347 40.9908 161.099 44.0039 158.878 46.2254C156.656 48.447 153.643 49.695 150.501 49.695C147.359 49.695 144.346 48.447 142.125 46.2254C139.903 44.0039 138.655 40.9908 138.655 37.8491C138.66 35.5057 139.358 33.216 140.661 31.2685C141.964 29.321 143.815 27.8028 145.98 26.9053C148.144 26.0077 150.526 25.7709 152.825 26.2247C155.125 26.6785 157.238 27.8026 158.899 29.4554M143.825 31.0461C142.935 31.937 142.235 32.9993 141.767 34.1687C141.3 35.338 141.074 36.5901 141.105 37.8491C141.074 39.1081 141.3 40.3602 141.767 41.5295C142.235 42.6988 142.935 43.7611 143.825 44.652C145.6 46.4114 147.998 47.3986 150.497 47.3986C152.996 47.3986 155.394 46.4114 157.169 44.652C158.056 43.7597 158.753 42.6968 159.217 41.5275C159.682 40.3582 159.905 39.1069 159.872 37.8491C159.903 36.5901 159.677 35.338 159.21 34.1687C158.742 32.9993 158.042 31.937 157.152 31.0461C155.378 29.2847 152.98 28.2961 150.48 28.2961C147.98 28.2961 145.582 29.2847 143.808 31.0461" fill="#F4A276"/>
<path d="M204.261 104.694C205.565 105.989 206.379 107.696 206.564 109.525C206.749 111.353 206.295 113.189 205.277 114.719C204.26 116.249 202.744 117.379 200.986 117.916C199.229 118.453 197.339 118.363 195.641 117.662C193.942 116.961 192.539 115.693 191.672 114.073C190.804 112.453 190.525 110.583 190.883 108.78C191.241 106.978 192.213 105.355 193.633 104.19C195.054 103.024 196.835 102.387 198.672 102.388C199.712 102.371 200.744 102.566 201.705 102.963C202.666 103.359 203.536 103.949 204.261 104.694ZM194.222 105.752C193.059 106.975 192.41 108.598 192.41 110.285C192.41 111.972 193.059 113.595 194.222 114.818C195.404 115.989 197 116.646 198.664 116.646C200.327 116.646 201.924 115.989 203.106 114.818C204.269 113.595 204.917 111.972 204.917 110.285C204.917 108.598 204.269 106.975 203.106 105.752C201.924 104.581 200.327 103.924 198.664 103.924C197 103.924 195.404 104.581 194.222 105.752Z" fill="#075066"/>
<path d="M92.9089 88.7192L87.4851 94.143L89.6005 98.6614L86.3851 101.877L77.8518 82.2885L81.0587 79.0817L100.643 87.6108L97.4273 90.8303M89.3001 87.1031L82.9752 84.1924L85.8774 90.5384L89.3001 87.1031Z" fill="#E84F35"/>
<path d="M164.01 91.5665L159.331 86.8874L155.43 88.7066L152.68 85.9312L169.582 78.5698L172.349 81.3367L164.949 98.2384L162.174 95.4672M165.381 88.4527L167.894 82.9951L162.428 85.4997L165.381 88.4527Z" fill="#E84F35"/>
<path d="M104.721 214.794L98.0744 214.828C97.8916 214.836 97.7088 214.809 97.5367 214.746C97.3647 214.684 97.2066 214.588 97.0718 214.464C96.9471 214.351 96.8479 214.214 96.7808 214.06C96.7137 213.906 96.6802 213.739 96.6825 213.571V211.287H93.336V213.402C93.3388 213.571 93.3059 213.738 93.2396 213.894C93.1733 214.049 93.0749 214.188 92.9511 214.303C92.6816 214.553 92.3243 214.687 91.9568 214.676L86.2454 214.705C86.0015 214.732 85.755 214.69 85.5342 214.582C85.3134 214.475 85.1273 214.308 84.9973 214.1C84.8843 213.912 84.8246 213.697 84.8246 213.478C84.8246 213.259 84.8843 213.044 84.9973 212.856C85.1096 212.649 85.2789 212.479 85.4852 212.366C85.6915 212.253 85.926 212.201 86.1608 212.217H89.338V208.016H86.1565C85.506 207.994 84.8592 208.122 84.2663 208.391C83.6734 208.659 83.1504 209.061 82.7381 209.565C81.873 210.676 81.4321 212.059 81.4943 213.466C81.4467 214.88 81.9193 216.264 82.8228 217.354C83.2436 217.851 83.7709 218.247 84.3655 218.513C84.9602 218.778 85.607 218.907 86.2581 218.889L90.9119 218.86C91.7642 218.904 92.6097 218.688 93.336 218.239C94.0623 217.791 94.6349 217.133 94.9776 216.351C95.3044 217.178 95.8839 217.882 96.6336 218.361C97.3832 218.84 98.2649 219.071 99.1533 219.02L104.742 218.991C105.401 219.012 106.055 218.882 106.655 218.61C107.256 218.338 107.785 217.931 108.203 217.421C109.04 216.29 109.489 214.919 109.485 213.512C109.48 212.105 109.022 210.737 108.177 209.611C107.756 209.112 107.225 208.716 106.627 208.455C106.028 208.193 105.378 208.072 104.725 208.101H101.582L101.607 212.302H104.746C104.987 212.28 105.228 212.325 105.445 212.432C105.661 212.539 105.844 212.703 105.973 212.907C106.092 213.093 106.156 213.308 106.156 213.529C106.156 213.75 106.092 213.965 105.973 214.151C105.842 214.366 105.654 214.54 105.43 214.653C105.206 214.767 104.954 214.816 104.704 214.794" fill="#00B5A5"/>
<path d="M177.497 214.409L170.246 214.447C170.047 214.457 169.848 214.427 169.661 214.36C169.474 214.292 169.301 214.188 169.155 214.053C169.019 213.93 168.91 213.779 168.837 213.61C168.765 213.442 168.728 213.26 168.731 213.076V210.584L165.08 210.605V212.915C165.085 213.1 165.05 213.283 164.977 213.453C164.904 213.622 164.795 213.774 164.657 213.897C164.513 214.036 164.342 214.144 164.156 214.217C163.969 214.29 163.77 214.325 163.57 214.32L157.342 214.35C157.076 214.379 156.807 214.333 156.566 214.216C156.325 214.099 156.122 213.917 155.98 213.69C155.858 213.484 155.793 213.25 155.793 213.011C155.793 212.771 155.858 212.537 155.98 212.332C156.103 212.106 156.288 211.921 156.513 211.798C156.738 211.675 156.994 211.619 157.249 211.638H160.719L160.697 207.056H157.224C156.514 207.031 155.808 207.17 155.161 207.464C154.515 207.758 153.945 208.197 153.497 208.748C152.554 209.961 152.075 211.47 152.143 213.004C152.095 214.543 152.607 216.046 153.586 217.235C154.053 217.781 154.639 218.214 155.299 218.5C155.959 218.786 156.675 218.917 157.393 218.885L162.47 218.855C164.549 218.855 166.027 217.943 166.904 216.118C167.262 217.019 167.894 217.785 168.711 218.307C169.527 218.83 170.488 219.082 171.456 219.029L177.552 218.999C178.271 219.021 178.984 218.877 179.638 218.58C180.292 218.283 180.87 217.84 181.326 217.286C182.237 216.052 182.727 214.557 182.722 213.023C182.717 211.489 182.219 209.998 181.301 208.769C180.841 208.224 180.261 207.793 179.608 207.507C178.954 207.222 178.244 207.091 177.531 207.124H174.104L174.13 211.705L177.557 211.684C177.819 211.663 178.082 211.713 178.318 211.83C178.553 211.947 178.753 212.126 178.894 212.348C179.024 212.55 179.094 212.785 179.094 213.025C179.094 213.266 179.024 213.501 178.894 213.702C178.752 213.935 178.548 214.123 178.305 214.246C178.062 214.37 177.79 214.423 177.519 214.4" fill="#00B5A5"/>
<path d="M179.469 135.185L164.42 131.157C164.796 129.755 164.598 128.26 163.872 127.003C163.146 125.746 161.95 124.829 160.547 124.454C159.145 124.078 157.65 124.276 156.393 125.002C155.136 125.728 154.219 126.924 153.844 128.327L151.834 135.845L177.442 142.699L177.997 140.621L154.482 134.326L155.384 130.967L178.91 137.262L179.469 135.185Z" fill="#00B5A5"/>
<path d="M74.4419 136.602L89.4905 132.574C89.3047 131.88 89.2574 131.156 89.3515 130.443C89.4456 129.73 89.6791 129.043 90.0388 128.42C90.3984 127.798 90.8772 127.252 91.4477 126.815C92.0182 126.377 92.6692 126.057 93.3637 125.871C94.0582 125.685 94.7825 125.638 95.4952 125.732C96.2079 125.826 96.8952 126.059 97.5176 126.419C98.1401 126.779 98.6857 127.257 99.1231 127.828C99.5606 128.398 99.8814 129.049 100.067 129.744L102.081 137.262L76.4726 144.116L75.9142 142.038L99.4157 135.756L98.5273 132.371L75.013 138.667L74.4419 136.602Z" fill="#00B5A5"/>
<path d="M62.6423 68.1747L66.4161 64.4263L108.165 81.9371L103.938 86.1298L69.7711 71.5127L69.6399 71.6438L84.037 105.874L79.7471 110.122L62.6423 68.1747Z" fill="#075066"/>
<path d="M185.464 62.4253L189.212 66.2033L171.701 107.948L167.509 103.725L182.13 69.554L181.999 69.4271L147.768 83.82L143.516 79.53L185.464 62.4253Z" fill="#075066"/>
<path d="M105.889 49.6993H110.471L109.307 55.7958C108.957 55.6217 108.573 55.5277 108.182 55.5208C107.797 55.5254 107.419 55.6196 107.078 55.7958L105.889 49.6993ZM106.058 58.1607L99.8811 57.395L101.303 53.0458L106.735 56.0581C106.292 56.5105 106.042 57.1172 106.037 57.7504C106.037 57.8223 106.045 57.9661 106.058 58.1481V58.1607ZM107.987 59.853L105.334 65.4968L101.641 62.8018L106.185 58.533C106.365 58.8752 106.621 59.1715 106.934 59.3996C107.246 59.6276 107.606 59.7813 107.987 59.8488V59.853ZM110.196 58.533L114.739 62.8018L111.025 65.4968L108.393 59.853C108.774 59.7828 109.134 59.6271 109.446 59.3978C109.759 59.1684 110.015 58.8714 110.196 58.5288V58.533ZM109.624 56.0496L115.078 53.0374L116.482 57.3865L110.301 58.1523C110.326 58.0125 110.34 57.8711 110.344 57.7292C110.334 57.0953 110.076 56.4905 109.624 56.0454V56.0496Z" fill="#F4A276"/>
<path d="M42.8977 67.8319H47.4838L46.3161 73.9453C45.9672 73.7681 45.5821 73.674 45.1908 73.6703C44.8061 73.6729 44.4275 73.7671 44.0866 73.9453L42.8977 67.8319ZM43.067 76.2933L36.8901 75.5276L38.3117 71.1742L43.7439 74.1907C43.2993 74.6421 43.0488 75.2494 43.0458 75.8829C43.0458 75.9549 43.0543 76.1029 43.067 76.2806V76.2933ZM45.0004 77.9856L42.3435 83.6251L38.6501 80.9302L43.1939 76.6614C43.3746 77.004 43.6314 77.3007 43.9445 77.5288C44.2577 77.7568 44.6188 77.9102 45.0004 77.9771V77.9856ZM47.2046 76.6698L51.7484 80.9386L48.0338 83.6336L45.4023 77.9856C45.783 77.9148 46.1428 77.7589 46.4549 77.5296C46.767 77.3003 47.0232 77.0035 47.2046 76.6614V76.6698ZM46.6334 74.1864L52.0868 71.1699L53.4914 75.5233L47.3357 76.2806C47.3583 76.1406 47.3724 75.9993 47.378 75.8575C47.3711 75.5423 47.3017 75.2315 47.1739 74.9432C47.0461 74.6549 46.8624 74.3948 46.6334 74.178V74.1864Z" fill="#E84F35"/>
<path d="M59.6385 161.525H64.2245L63.0569 167.643C62.7083 167.464 62.3231 167.368 61.9315 167.363C61.5465 167.368 61.168 167.463 60.8273 167.643L59.6385 161.525ZM59.8077 169.986L53.6309 169.221L55.0524 164.867L60.4888 167.884C60.0431 168.335 59.7911 168.942 59.7865 169.576C59.7865 169.652 59.795 169.792 59.8077 169.978V169.986ZM61.7411 171.679L59.0885 177.327L55.3951 174.628L59.9346 170.363C60.1159 170.705 60.3728 171.001 60.6859 171.228C60.999 171.455 61.36 171.608 61.7411 171.674V171.679ZM63.9495 170.363L68.4891 174.623L64.7745 177.322L62.143 171.674C62.5237 171.605 62.8839 171.451 63.1966 171.223C63.5094 170.995 63.7668 170.7 63.9495 170.359V170.363ZM63.3742 167.88L68.8318 164.863L70.2321 169.216L64.0553 169.982C64.08 169.842 64.0941 169.701 64.0976 169.559C64.0939 169.245 64.0281 168.934 63.904 168.645C63.7798 168.356 63.5998 168.094 63.3742 167.875V167.88Z" fill="#075066"/>
<path d="M222.406 137.939H226.992L225.825 144.056C225.476 143.878 225.091 143.782 224.699 143.777C224.314 143.781 223.936 143.877 223.595 144.056L222.406 137.939ZM222.58 146.4L216.399 145.634L217.833 141.256L223.269 144.272C222.824 144.723 222.572 145.33 222.567 145.964C222.554 146.066 222.563 146.206 222.58 146.392V146.4ZM224.509 148.093L221.856 153.741L218.163 151.046L222.707 146.756C222.883 147.102 223.138 147.404 223.45 147.635C223.763 147.866 224.126 148.021 224.509 148.088V148.093ZM226.717 146.756L231.261 151.024L227.564 153.736L224.928 148.088C225.307 148.015 225.665 147.857 225.975 147.626C226.284 147.395 226.538 147.098 226.717 146.756ZM226.142 144.272L231.6 141.256L233 145.609L226.823 146.375C226.848 146.235 226.862 146.094 226.865 145.952C226.852 145.324 226.593 144.727 226.142 144.289V144.272Z" fill="#F4A276"/>
<path d="M89.3761 167.956L85.2427 168.688L82.937 155.64C82.7461 154.765 82.7378 153.86 82.9125 152.981C83.0872 152.102 83.4412 151.269 83.9524 150.534C84.979 149.095 86.4993 148.197 88.5131 147.839C89.4575 147.669 90.4276 147.706 91.3561 147.949C92.0725 148.1 92.7532 148.387 93.3615 148.795L94.0172 149.277L91.9823 152.196C91.9146 152.133 91.8088 152.048 91.6692 151.943C91.3932 151.778 91.0935 151.657 90.7807 151.583C90.3494 151.457 89.8952 151.431 89.4523 151.507C89.0594 151.541 88.6787 151.66 88.3368 151.856C87.9949 152.053 87.7001 152.322 87.4732 152.644C87.2462 152.967 87.0926 153.335 87.023 153.723C86.9534 154.111 86.9696 154.51 87.0704 154.891" fill="#075066"/>
<path d="M102.495 148.757C102.743 148.905 102.957 149.103 103.125 149.337C103.293 149.571 103.411 149.838 103.473 150.119C103.534 150.401 103.537 150.692 103.482 150.975C103.427 151.258 103.314 151.527 103.151 151.765C102.981 152.017 102.763 152.233 102.509 152.4C102.254 152.567 101.97 152.682 101.67 152.738L95.9887 153.973L96.4371 156.034L102.119 154.794C102.667 154.689 103.189 154.473 103.65 154.159C104.111 153.844 104.503 153.438 104.801 152.966C105.385 151.989 105.576 150.827 105.335 149.714C105.094 148.602 104.439 147.623 103.502 146.976C103.036 146.669 102.511 146.462 101.961 146.366C101.411 146.271 100.847 146.29 100.304 146.421L94.6052 147.657L95.0494 149.717L100.748 148.482C101.043 148.408 101.35 148.395 101.65 148.442C101.95 148.489 102.237 148.596 102.495 148.757Z" fill="#00B5A5"/>
<path d="M151.944 162.067C151.734 162.265 151.567 162.503 151.452 162.768C151.338 163.033 151.279 163.318 151.279 163.607C151.279 163.895 151.338 164.181 151.452 164.446C151.567 164.71 151.734 164.949 151.944 165.147C152.163 165.357 152.422 165.522 152.705 165.633C152.988 165.743 153.29 165.796 153.594 165.79H159.428V167.905H153.598C153.039 167.919 152.484 167.817 151.966 167.606C151.448 167.395 150.98 167.079 150.59 166.678C149.812 165.848 149.38 164.753 149.38 163.615C149.38 162.478 149.812 161.383 150.59 160.552C150.982 160.154 151.452 159.841 151.97 159.632C152.488 159.423 153.044 159.323 153.602 159.338H159.437V161.453H153.607C153.303 161.443 153.001 161.494 152.717 161.603C152.434 161.712 152.175 161.877 151.957 162.088" fill="#00B5A5"/>
<path d="M105.042 159.622C105.301 159.859 105.507 160.148 105.648 160.47C105.789 160.791 105.862 161.138 105.862 161.489C105.862 161.841 105.789 162.188 105.648 162.509C105.507 162.831 105.301 163.12 105.042 163.357C104.776 163.613 104.462 163.813 104.118 163.946C103.773 164.079 103.406 164.142 103.037 164.131H95.9888V166.67H103.063C103.741 166.687 104.415 166.564 105.043 166.309C105.671 166.053 106.24 165.671 106.714 165.185C107.656 164.177 108.181 162.848 108.181 161.468C108.181 160.088 107.656 158.76 106.714 157.752C106.239 157.267 105.67 156.886 105.042 156.631C104.414 156.376 103.74 156.254 103.063 156.271H95.9888V158.809H103.063C103.431 158.799 103.798 158.862 104.142 158.996C104.485 159.13 104.799 159.331 105.064 159.588" fill="#00B5A5"/>
<path d="M151.724 173.223C151.524 173.51 151.384 173.836 151.315 174.179C151.246 174.523 151.248 174.877 151.321 175.219C151.393 175.562 151.536 175.886 151.739 176.171C151.943 176.457 152.202 176.697 152.502 176.878C152.816 177.071 153.164 177.199 153.527 177.257C153.89 177.314 154.26 177.299 154.618 177.212L161.535 175.732L162.072 178.232L155.155 179.713C154.496 179.871 153.811 179.893 153.144 179.775C152.476 179.657 151.84 179.402 151.275 179.027C150.14 178.241 149.347 177.052 149.058 175.702C148.768 174.351 149.005 172.941 149.719 171.759C150.08 171.186 150.556 170.694 151.117 170.313C151.677 169.932 152.31 169.671 152.976 169.546L159.898 168.066L160.431 170.566L153.526 172.047C153.164 172.114 152.818 172.253 152.51 172.455C152.201 172.657 151.935 172.918 151.728 173.223" fill="#00B5A5"/>
<path d="M102.237 170.964C102.38 171.187 102.475 171.437 102.516 171.699C102.558 171.96 102.545 172.228 102.479 172.484C102.412 172.74 102.294 172.98 102.131 173.189C101.968 173.398 101.764 173.57 101.531 173.697C101.287 173.832 101.018 173.918 100.741 173.949C100.464 173.98 100.183 173.956 99.9147 173.879L94.7194 172.529L94.2329 174.399L99.4113 175.749C99.905 175.892 100.423 175.931 100.933 175.864C101.443 175.797 101.933 175.625 102.373 175.359C103.256 174.803 103.894 173.932 104.158 172.922C104.421 171.912 104.289 170.839 103.79 169.923C103.536 169.477 103.192 169.089 102.781 168.783C102.37 168.476 101.899 168.258 101.4 168.142L96.2213 166.792L95.7348 168.662L100.922 170.024C101.193 170.089 101.449 170.206 101.675 170.369C101.9 170.533 102.092 170.739 102.237 170.976" fill="#00B5A5"/>
<path d="M156.843 183.728C156.749 183.977 156.708 184.243 156.721 184.509C156.735 184.776 156.804 185.036 156.923 185.274C157.042 185.513 157.209 185.724 157.414 185.895C157.619 186.065 157.856 186.192 158.112 186.266C158.379 186.347 158.659 186.375 158.936 186.347C159.214 186.319 159.483 186.237 159.729 186.105L164.526 183.69L165.398 185.416L160.613 187.819C160.162 188.06 159.666 188.205 159.157 188.247C158.648 188.288 158.135 188.225 157.651 188.06C156.668 187.703 155.857 186.984 155.385 186.05C154.914 185.116 154.816 184.037 155.113 183.034C155.269 182.546 155.524 182.096 155.862 181.711C156.199 181.326 156.613 181.014 157.076 180.796L161.857 178.393L162.703 180.119L157.922 182.522C157.67 182.641 157.445 182.809 157.258 183.016C157.071 183.223 156.928 183.465 156.835 183.728" fill="#00B5A5"/>
<path d="M130.287 143.794C130.095 143.999 129.863 144.163 129.605 144.274C129.348 144.386 129.07 144.444 128.789 144.444C128.509 144.444 128.231 144.386 127.973 144.274C127.716 144.163 127.484 143.999 127.292 143.794C127.087 143.581 126.927 143.329 126.821 143.053C126.715 142.777 126.665 142.482 126.674 142.187V136.518H124.622V142.191C124.609 142.734 124.707 143.275 124.912 143.778C125.116 144.282 125.422 144.738 125.811 145.119C126.62 145.874 127.685 146.294 128.791 146.294C129.898 146.294 130.963 145.874 131.772 145.119C132.16 144.738 132.466 144.282 132.671 143.778C132.876 143.275 132.974 142.734 132.961 142.191V136.518H130.909V142.191C130.917 142.486 130.866 142.78 130.759 143.055C130.652 143.33 130.492 143.582 130.287 143.794Z" fill="#E84F35"/>
<path d="M129.128 127.988C129.107 128.043 129.077 128.12 129.035 128.213C128.952 128.388 128.854 128.557 128.743 128.716C128.593 128.948 128.414 129.16 128.21 129.347C127.957 129.559 127.671 129.729 127.364 129.85C126.994 130.005 126.597 130.083 126.196 130.078C125.72 130.077 125.251 129.97 124.823 129.763C124.395 129.557 124.018 129.257 123.721 128.885C122.999 127.997 122.63 126.873 122.684 125.729C122.682 125.189 122.748 124.65 122.879 124.126C122.976 123.684 123.131 123.258 123.34 122.857C123.501 122.564 123.679 122.282 123.873 122.01C124.007 121.814 124.165 121.635 124.343 121.477L124.529 121.304L126.111 122.814C126.078 122.835 126.035 122.874 125.976 122.92C125.87 123.026 125.769 123.137 125.676 123.254C125.534 123.428 125.405 123.611 125.291 123.804C125.164 124.04 125.065 124.29 124.994 124.549C124.906 124.851 124.862 125.165 124.863 125.48C124.828 126.01 124.978 126.536 125.286 126.969C125.416 127.13 125.579 127.261 125.766 127.35C125.952 127.44 126.156 127.486 126.363 127.486C126.57 127.486 126.774 127.44 126.96 127.35C127.147 127.261 127.311 127.13 127.44 126.969C127.744 126.566 127.894 126.068 127.863 125.564V124.295H129.949V125.459C129.925 125.883 130.066 126.299 130.342 126.622C130.472 126.763 130.631 126.875 130.809 126.948C130.987 127.021 131.178 127.054 131.37 127.045C131.552 127.05 131.732 127.015 131.898 126.942C132.064 126.869 132.212 126.759 132.33 126.622C132.598 126.294 132.732 125.877 132.707 125.454C132.709 125.04 132.613 124.632 132.428 124.261C132.296 123.965 132.114 123.693 131.89 123.457L131.62 123.208L133.122 121.706L133.308 121.85C133.458 121.998 133.599 122.155 133.731 122.319C133.936 122.565 134.115 122.831 134.264 123.115C134.673 123.927 134.894 124.82 134.911 125.729C134.961 126.761 134.628 127.775 133.976 128.577C133.694 128.919 133.34 129.193 132.938 129.38C132.536 129.567 132.097 129.661 131.654 129.655C131.326 129.658 131.002 129.597 130.697 129.478C130.434 129.379 130.189 129.236 129.974 129.055C129.804 128.909 129.648 128.748 129.509 128.572C129.398 128.444 129.306 128.302 129.234 128.149" fill="#E84F35"/>
<path d="M198.795 190.332C205.75 185.735 211.221 179.218 214.546 171.573C215.392 169.537 216.097 167.658 216.661 165.938C217.134 164.597 217.508 163.224 217.782 161.83L218.002 160.345L225.588 162.13C225.558 162.553 225.495 163.175 225.389 163.945C225.119 165.487 224.772 167.015 224.348 168.523C223.751 170.806 222.997 173.045 222.089 175.224C220.92 177.895 219.532 180.465 217.939 182.907C216.106 185.815 213.956 188.511 211.529 190.945C209.119 193.358 206.462 195.511 203.601 197.367C201.135 199.024 198.502 200.416 195.745 201.522C193.375 202.422 191.188 203.162 189.183 203.743C187.645 204.224 186.07 204.575 184.474 204.792L182.731 205.008L180.726 197.642L182.27 197.38C183.633 197.079 184.98 196.707 186.306 196.267C188.306 195.644 190.268 194.905 192.182 194.055C194.479 192.985 196.689 191.74 198.795 190.332Z" fill="#00B5A5"/>
<path d="M170.745 175.69C171.44 171.598 171.254 167.405 170.199 163.391C169.76 161.605 169.158 159.863 168.401 158.187C167.725 156.749 167.069 155.463 166.43 154.316C165.943 153.414 165.393 152.547 164.784 151.723L164.103 150.876L168.757 147.699C168.973 147.928 169.264 148.258 169.624 148.685C170.316 149.578 170.961 150.506 171.558 151.465C173.657 154.648 175.196 158.166 176.11 161.868C176.758 164.255 177.141 166.707 177.252 169.178C177.369 171.635 177.227 174.096 176.829 176.523C176.514 178.641 175.977 180.72 175.226 182.725C174.557 184.417 173.89 185.943 173.224 187.303C172.732 188.355 172.154 189.364 171.494 190.319L170.762 191.356L165.863 188.847L166.476 187.895C166.976 187.022 167.431 186.124 167.839 185.204C168.484 183.837 169.049 182.432 169.531 180.999C170.078 179.259 170.489 177.48 170.762 175.677" fill="#075066"/>
<path d="M133.938 133.023C134.739 133.197 135.556 133.285 136.375 133.285C137.184 133.284 137.991 133.199 138.782 133.031C139.492 132.892 140.187 132.688 140.86 132.422C141.439 132.181 141.955 131.948 142.421 131.716C142.782 131.541 143.131 131.342 143.466 131.119L143.808 130.865L144.972 132.744C144.879 132.824 144.743 132.934 144.57 133.069C144.397 133.205 144.02 133.438 143.44 133.776C142.152 134.544 140.741 135.085 139.269 135.375C138.319 135.59 137.349 135.7 136.375 135.701C135.408 135.701 134.444 135.6 133.498 135.401C132.671 135.236 131.863 134.986 131.087 134.656C130.431 134.36 129.843 134.072 129.323 133.784C128.918 133.572 128.532 133.327 128.168 133.052L127.778 132.744L128.853 130.865L129.213 131.123C129.373 131.233 129.72 131.432 130.249 131.707C130.773 131.986 131.315 132.232 131.869 132.443C132.543 132.689 133.235 132.883 133.938 133.023Z" fill="#075066"/>
<path d="M118.771 133.057C120.369 133.401 122.022 133.401 123.619 133.057C124.329 132.917 125.025 132.712 125.697 132.443C126.272 132.206 126.792 131.969 127.254 131.741C127.617 131.565 127.967 131.364 128.303 131.14L128.641 130.886L129.809 132.765C129.712 132.849 129.581 132.955 129.386 133.09C129.023 133.347 128.648 133.584 128.261 133.801C127.682 134.137 127.081 134.434 126.462 134.69C125.693 134.993 124.899 135.23 124.089 135.4C123.138 135.614 122.166 135.722 121.191 135.722C120.224 135.724 119.26 135.623 118.314 135.422C117.486 135.259 116.678 135.009 115.903 134.677C115.247 134.385 114.659 134.093 114.143 133.81C113.738 133.597 113.352 133.35 112.988 133.074L112.594 132.765L113.669 130.886L114.033 131.144C114.366 131.358 114.711 131.555 115.065 131.732C115.591 132.007 116.132 132.252 116.685 132.464C117.359 132.712 118.05 132.907 118.754 133.048" fill="#075066"/>
<path d="M148.83 206.366C148.086 204.805 147.781 202.478 148.695 200.592C149.541 198.823 150.81 198.002 151.703 197.237C152.511 196.5 153.679 195.79 154.415 194.275C155.092 192.875 154.812 191.047 154.36 189.812L156.149 189.363C156.835 190.899 157.169 193.239 156.242 195.159C155.375 196.953 154.127 197.698 153.26 198.544C152.414 199.263 151.301 199.961 150.565 201.484C149.888 202.885 150.197 204.725 150.624 205.871L148.83 206.366Z" fill="#E84F35"/>
<path d="M111.054 204.433C111.951 202.555 112.323 199.779 111.219 197.499C110.191 195.383 108.681 194.394 107.606 193.471C106.637 192.587 105.233 191.732 104.349 189.905C103.536 188.212 103.875 186.034 104.42 184.549L102.267 184.011C101.446 185.852 101.044 188.665 102.157 190.967C103.198 193.124 104.674 194.034 105.736 195.011C106.739 195.857 108.088 196.703 108.973 198.54C109.785 200.232 109.396 202.432 108.901 203.807L111.054 204.433Z" fill="#E84F35"/>
<path d="M154.681 110.854C153.004 110.735 151.318 110.816 149.659 111.095C148.011 111.373 146.399 111.84 144.858 112.487C143.509 113.033 142.221 113.719 141.016 114.535C139.992 115.254 139.086 115.949 138.296 116.62C137.67 117.136 137.087 117.702 136.553 118.313L136.024 118.977L134.97 117.805C135.119 117.627 135.322 117.382 135.592 117.086C136.155 116.501 136.748 115.946 137.369 115.423C138.303 114.61 139.292 113.864 140.331 113.189C141.609 112.389 142.953 111.701 144.35 111.133C145.979 110.443 147.683 109.945 149.427 109.648C151.159 109.357 152.919 109.259 154.673 109.356C156.201 109.419 157.718 109.642 159.2 110.021C160.469 110.363 161.611 110.727 162.635 111.116C163.429 111.401 164.203 111.742 164.949 112.136L165.732 112.61L165.123 114.061C164.948 113.937 164.694 113.78 164.361 113.591C164.028 113.402 163.323 113.078 162.246 112.618C161.17 112.161 160.061 111.785 158.929 111.493C157.535 111.156 156.113 110.942 154.681 110.854Z" fill="#075066"/>
<path d="M79.9331 182.894C79.2963 184.362 78.8376 185.9 78.5666 187.476C78.2931 189.041 78.2022 190.633 78.2959 192.219C78.3575 193.601 78.5659 194.972 78.9178 196.31C79.2421 197.455 79.5806 198.487 79.9331 199.407C80.1925 200.136 80.5108 200.844 80.885 201.522L81.3081 202.203L79.9289 202.774C79.8147 202.588 79.6666 202.33 79.4762 201.996C79.2858 201.662 78.9812 200.955 78.5455 199.881C78.1096 198.793 77.7519 197.676 77.4751 196.538C77.1555 195.14 76.9615 193.715 76.8955 192.282C76.7885 190.603 76.8794 188.918 77.1663 187.26C77.4476 185.614 77.913 184.005 78.5539 182.463C79.0937 181.112 79.7714 179.82 80.5762 178.609C81.287 177.58 81.9723 176.671 82.6408 175.871C83.1462 175.247 83.6978 174.662 84.2908 174.12L84.9634 173.566L86.0719 174.568C85.9027 174.687 85.6827 174.864 85.4077 175.101C85.1327 175.338 84.6208 175.871 83.8677 176.696C83.1194 177.517 82.4335 178.392 81.8158 179.315C81.0844 180.451 80.4544 181.648 79.9331 182.894Z" fill="#075066"/>
<path d="M170.741 137.025C171.872 134.963 172.752 132.773 173.364 130.501C173.972 128.247 174.319 125.93 174.396 123.597C174.496 121.566 174.376 119.531 174.037 117.526C173.721 115.808 173.367 114.257 172.975 112.872C172.689 111.779 172.317 110.711 171.862 109.678L171.329 108.62L173.423 107.969C173.567 108.256 173.749 108.658 173.978 109.17C174.393 110.228 174.753 111.307 175.056 112.402C176.179 116.074 176.65 119.915 176.448 123.749C176.376 126.221 176.015 128.676 175.374 131.064C174.736 133.426 173.837 135.709 172.691 137.871C171.718 139.774 170.551 141.572 169.21 143.236C168.033 144.646 166.905 145.887 165.825 146.959C165 147.802 164.113 148.582 163.172 149.294L162.11 150.018L160.625 148.397C160.884 148.249 161.23 148.016 161.666 147.703C162.102 147.39 162.935 146.684 164.137 145.588C165.343 144.487 166.466 143.298 167.496 142.03C168.723 140.461 169.809 138.786 170.741 137.025Z" fill="#075066"/>
<path d="M77.7502 125.86C77.8397 127.989 78.1632 130.102 78.7148 132.16C79.2568 134.208 80.0141 136.194 80.974 138.083C81.7803 139.728 82.7513 141.287 83.872 142.736C84.845 143.961 85.7758 145.038 86.6643 145.969C87.3361 146.707 88.0661 147.391 88.8473 148.012L89.6934 148.617L88.4792 150.047C88.2508 149.878 87.9462 149.624 87.5569 149.332C86.797 148.674 86.0711 147.978 85.3823 147.246C84.3078 146.149 83.3085 144.98 82.3912 143.748C81.2822 142.207 80.3003 140.578 79.4551 138.878C78.43 136.885 77.6215 134.787 77.0436 132.621C76.4639 130.465 76.1094 128.254 75.986 126.025C75.8536 124.105 75.906 122.177 76.1425 120.267C76.371 118.643 76.6389 117.169 76.9463 115.846C77.168 114.826 77.4607 113.822 77.8221 112.842L78.2663 111.81L80.0347 112.445C79.8771 112.77 79.7359 113.103 79.6117 113.443C79.434 113.866 79.1548 114.797 78.7655 116.197C78.3794 117.599 78.0966 119.027 77.9194 120.47C77.7148 122.259 77.6582 124.062 77.7502 125.86Z" fill="#075066"/>
<path d="M100.896 110.854C102.574 110.735 104.26 110.816 105.918 111.095C107.566 111.373 109.176 111.84 110.716 112.487C112.067 113.032 113.356 113.718 114.562 114.535C115.581 115.254 116.491 115.948 117.278 116.621C117.906 117.135 118.491 117.701 119.025 118.313L119.554 118.977L120.603 117.805C120.459 117.627 120.252 117.382 119.985 117.086C119.421 116.501 118.827 115.946 118.204 115.423C117.278 114.61 116.296 113.863 115.264 113.189C113.986 112.39 112.641 111.702 111.245 111.133C109.616 110.443 107.912 109.945 106.168 109.648C104.437 109.357 102.679 109.259 100.926 109.356C99.3981 109.419 97.8809 109.642 96.3992 110.021C95.13 110.363 93.9877 110.727 92.9639 111.116C92.1692 111.401 91.3958 111.741 90.6497 112.136L89.8628 112.61L90.4762 114.061C90.6497 113.938 90.8993 113.782 91.2335 113.591C91.5678 113.401 92.2743 113.075 93.3489 112.618C94.4239 112.162 95.5311 111.786 96.6615 111.493C98.0518 111.157 99.4689 110.943 100.896 110.854Z" fill="#075066"/>
<path d="M138.296 83.0329V82.6902C138.302 82.4987 138.267 82.3082 138.194 82.131C138.121 81.9539 138.012 81.7941 137.873 81.6621C137.72 81.5192 137.54 81.4082 137.344 81.3356C137.148 81.2629 136.939 81.2301 136.73 81.239L115.222 81.1798C115.015 81.1707 114.808 81.2034 114.614 81.2761C114.42 81.3488 114.242 81.46 114.092 81.6029C113.955 81.7361 113.847 81.8961 113.774 82.073C113.701 82.2498 113.665 82.4397 113.669 82.6309V82.9736H111.274V82.6309C111.232 81.4872 111.614 80.3681 112.345 79.4875C112.702 79.0803 113.145 78.7586 113.643 78.5462C114.141 78.3338 114.681 78.2362 115.222 78.2606L136.747 78.3241C137.291 78.3032 137.832 78.4041 138.331 78.6193C138.83 78.8345 139.275 79.1586 139.633 79.5679C140.368 80.4494 140.75 81.5728 140.703 82.7198V83.0582L138.296 83.0329Z" fill="#075066"/>
<path d="M115.45 208.634V209.057C115.444 209.304 115.489 209.549 115.583 209.777C115.677 210.005 115.818 210.211 115.996 210.381C116.194 210.562 116.427 210.702 116.679 210.792C116.932 210.883 117.2 210.923 117.468 210.91L145.137 210.991C145.402 211.007 145.668 210.97 145.918 210.88C146.168 210.791 146.398 210.651 146.592 210.47C146.766 210.298 146.902 210.092 146.993 209.865C147.084 209.638 147.127 209.395 147.121 209.15V208.727H150.197V209.15C150.252 210.622 149.762 212.062 148.822 213.195C148.363 213.718 147.793 214.132 147.153 214.404C146.513 214.677 145.819 214.801 145.124 214.769L117.451 214.688C116.753 214.715 116.057 214.586 115.415 214.31C114.774 214.034 114.201 213.619 113.741 213.093C112.797 211.959 112.308 210.515 112.37 209.04V208.617L115.45 208.634Z" fill="#075066"/>
<path d="M118.56 150.183H139.269V146.197H148.741V161.276H109.091V146.197H118.56V150.183Z" fill="#E84F35"/>
<path d="M125.697 157.832C124.864 158.763 124.404 159.968 124.404 161.216C124.404 162.465 124.864 163.67 125.697 164.601C126.097 165.034 126.582 165.38 127.123 165.616C127.663 165.853 128.246 165.975 128.836 165.975C129.426 165.975 130.009 165.853 130.549 165.616C131.09 165.38 131.575 165.034 131.975 164.601C132.808 163.67 133.268 162.465 133.268 161.216C133.268 159.968 132.808 158.763 131.975 157.832C131.575 157.399 131.09 157.053 130.549 156.816C130.009 156.58 129.426 156.458 128.836 156.458C128.246 156.458 127.663 156.58 127.123 156.816C126.582 157.053 126.097 157.399 125.697 157.832ZM123.518 166.539C122.129 165.113 121.352 163.201 121.352 161.21C121.352 159.219 122.129 157.307 123.518 155.881C124.215 155.181 125.043 154.626 125.956 154.247C126.868 153.868 127.846 153.673 128.834 153.673C129.822 153.673 130.8 153.868 131.712 154.247C132.624 154.626 133.453 155.181 134.15 155.881C135.539 157.307 136.316 159.219 136.316 161.21C136.316 163.201 135.539 165.113 134.15 166.539C133.453 167.24 132.625 167.796 131.713 168.176C130.8 168.556 129.822 168.751 128.834 168.751C127.846 168.751 126.867 168.556 125.955 168.176C125.043 167.796 124.214 167.24 123.518 166.539Z" fill="#F4A276"/>
</svg>
