<svg width="166" height="166" viewBox="0 0 166 166" fill="none" xmlns="http://www.w3.org/2000/svg">
<path d="M97.314 113.69C94.325 113.69 91.3353 113.69 88.345 113.69C86.6632 113.69 85.4486 112.454 85.5201 110.81C85.5761 109.363 87.0474 108.213 88.5864 108.263C90.7374 108.332 92.8923 108.315 95.0452 108.282C96.2424 108.265 96.8873 107.537 96.9008 106.353C96.9008 105.839 96.839 105.312 96.9336 104.809C97.2387 103.229 98.405 102.528 100.326 102.706C101.388 102.804 102.298 104.024 102.302 105.357C102.302 105.774 102.302 106.192 102.302 106.609C102.331 107.495 102.881 108.122 103.653 108.24C104.705 108.379 105.77 108.379 106.822 108.24C107.818 108.12 108.285 107.402 108.285 106.345C108.285 100.466 108.328 94.5747 108.262 88.707C108.243 86.9203 109.436 85.3767 111.446 85.5194C113.526 85.6661 115.623 85.5561 117.712 85.5503C118.969 85.5503 119.662 84.8596 119.666 83.6208C119.666 81.4038 119.693 79.1829 119.656 76.9698C119.639 75.8371 120.149 74.9804 121.06 74.4826C121.506 74.2328 122.012 74.1104 122.523 74.1288C123.034 74.1471 123.53 74.3056 123.957 74.5868C124.88 75.1656 125.042 76.1111 125.055 77.0701C125.09 79.2543 125.055 81.4385 125.069 83.6304C125.069 84.8711 125.77 85.56 127.025 85.56C129.307 85.56 131.589 85.56 133.872 85.56C135.351 85.56 136.424 86.5421 136.436 88.0278C136.468 91.9795 136.468 95.9312 136.436 99.8829C136.436 101.193 135.084 102.324 133.665 102.331C132.344 102.331 131.128 101.122 131.051 99.6956C131.028 99.2461 131.051 98.7965 131.051 98.345C131.059 98.1087 131.019 97.8732 130.933 97.6529C130.847 97.4327 130.716 97.2323 130.55 97.0641C130.384 96.8959 130.185 96.7634 129.965 96.6748C129.746 96.5861 129.511 96.5432 129.274 96.5486C128.44 96.5313 127.602 96.5255 126.764 96.5486C126.304 96.5598 125.866 96.7532 125.548 97.0864C125.23 97.4197 125.058 97.8654 125.069 98.3257C125.069 100.574 125.005 102.825 125.088 105.079C125.148 106.723 123.81 108.157 122.192 107.933C121.807 107.89 121.418 107.89 121.033 107.933C120.611 107.966 120.216 108.156 119.928 108.466C119.639 108.776 119.477 109.182 119.473 109.606C119.473 110.57 119.46 111.535 119.473 112.5C119.487 113.424 119.95 113.899 120.879 113.901C123.771 113.912 126.668 113.912 129.568 113.901C130.429 113.901 130.995 113.308 131.055 112.405C131.099 111.713 131.055 110.993 131.236 110.335C131.657 108.801 132.916 108.02 134.426 108.332C135.046 108.479 135.593 108.843 135.966 109.36C136.339 109.876 136.513 110.509 136.457 111.144C136.44 111.464 136.446 111.786 136.457 112.108C136.492 113.355 137.037 113.88 138.276 113.91C138.875 113.898 139.474 113.958 140.058 114.092C141.499 114.501 142.235 115.52 142.24 116.986C142.25 119.203 142.24 121.424 142.24 123.637C142.24 124.747 142.754 125.271 143.843 125.273C145.932 125.273 148.021 125.273 150.111 125.273C150.854 125.273 151.597 125.291 152.341 125.273C153.306 125.244 153.806 124.695 153.812 123.701C153.812 122.896 153.812 122.094 153.812 121.291C153.812 120.037 153.183 119.361 151.93 119.305C151.609 119.288 151.288 119.305 150.964 119.305C149.259 119.305 148.323 118.402 148.197 116.872C148.054 115.157 149.701 113.893 150.991 113.907C151.408 113.907 151.825 113.907 152.244 113.907C153.275 113.907 153.808 113.368 153.81 112.328C153.81 108.153 153.81 103.977 153.81 99.7998C153.81 98.1192 154.984 96.9615 156.654 96.9326C157.287 96.9453 157.919 96.8752 158.533 96.7242C159.456 96.4579 159.601 95.636 159.588 94.8159C159.572 93.7508 159.553 92.7089 160.466 91.9216C161.238 91.254 162.105 90.9954 163.073 91.3698C164.04 91.7441 164.811 92.2902 164.811 93.4614C164.811 94.4956 164.791 95.5279 164.811 96.5602C164.861 98.7425 164.963 100.923 164.986 103.103C164.977 104.088 164.912 105.072 164.793 106.05C164.704 106.914 163.556 107.902 162.669 107.927C162.123 107.942 161.574 107.904 161.03 107.937C160.034 107.995 159.354 108.498 159.261 109.447C159.159 110.502 159.163 111.564 159.273 112.618C159.365 113.53 160.005 113.93 160.951 113.922C161.678 113.891 162.406 113.967 163.111 114.146C164.287 114.489 164.778 115.304 164.814 116.567C164.861 118.206 164.982 119.848 164.99 121.478C164.99 123.381 164.648 124.405 163.113 124.922C162.534 125.115 161.864 125.069 161.233 125.082C159.902 125.109 159.219 125.756 159.217 127.06C159.217 129.597 159.217 132.135 159.217 134.674C159.217 136.314 160.093 137.044 161.704 136.771C163.279 136.503 164.72 137.526 164.793 139.087C164.874 140.854 164.793 142.631 164.818 144.403C164.853 146.332 164.982 148.244 164.99 150.166C164.99 151.575 164.633 152.804 163.117 153.425C161.636 154.033 159.62 152.804 159.607 151.179C159.591 148.962 159.607 146.741 159.607 144.528C159.607 142.84 159.004 142.157 157.355 142.255C154.942 142.398 153.731 140.818 153.806 138.728C153.872 136.935 153.328 136.428 151.489 136.461C150.211 136.484 149.002 136.306 148.462 135.002C148.199 134.365 148.251 133.582 148.236 132.864C148.203 131.469 147.612 130.863 146.201 130.861C145.397 130.861 144.594 130.861 143.791 130.861C142.825 130.861 142.256 131.411 142.246 132.366C142.246 133.202 142.246 134.037 142.246 134.875C142.246 136.225 143.233 137.053 144.588 136.822C144.99 136.747 145.402 136.757 145.799 136.853C146.196 136.948 146.568 137.127 146.891 137.376C147.214 137.626 147.481 137.941 147.674 138.3C147.867 138.66 147.981 139.056 148.01 139.463C148.085 140.64 146.583 142.192 145.307 142.234C144.793 142.251 144.279 142.22 143.762 142.234C142.796 142.269 142.244 142.84 142.238 143.778C142.238 144.644 142.238 145.514 142.238 146.381C142.227 146.617 142.264 146.852 142.347 147.074C142.43 147.295 142.558 147.497 142.722 147.667C142.886 147.838 143.083 147.973 143.301 148.064C143.519 148.156 143.753 148.202 143.99 148.2C144.376 148.212 144.762 148.2 145.148 148.2C146.693 148.2 147.952 149.342 147.917 150.708C147.879 152.291 146.622 153.593 145.112 153.603C143.343 153.603 141.574 153.58 139.807 153.612C138.006 153.647 136.695 152.406 136.807 150.654C136.936 148.64 136.84 146.602 136.838 144.584C136.838 142.799 136.283 142.23 134.55 142.23C133.843 142.23 133.136 142.23 132.426 142.23C131.389 142.23 130.91 142.768 130.838 143.803C130.78 144.642 130.707 145.514 130.433 146.298C130.064 147.357 129.187 147.831 128.048 147.824C125.862 147.81 123.675 147.839 121.483 147.812C120.294 147.797 119.299 148.426 119.436 149.809C119.504 150.5 119.309 151.245 119.108 151.932C118.751 153.145 117.726 153.545 116.598 153.589C114.833 153.659 113.064 153.61 111.296 153.607C109.39 153.607 108.282 152.509 108.27 150.629C108.26 150.469 108.26 150.308 108.27 150.147C108.44 148.682 107.793 147.855 105.92 147.832C105.072 147.818 104.232 147.911 103.504 147.241C102.777 146.572 102.497 145.717 102.491 144.783C102.466 141.733 102.466 138.681 102.491 135.627C102.502 134.387 102.657 133.146 102.661 131.905C102.661 130.827 102.468 129.744 102.499 128.667C102.535 126.898 103.23 125.792 104.706 125.461C105.085 125.37 105.481 125.367 105.862 125.452C106.243 125.537 106.6 125.707 106.906 125.95C107.212 126.192 107.459 126.501 107.628 126.853C107.797 127.205 107.884 127.59 107.882 127.981C107.89 131.995 107.89 136.011 107.882 140.027C107.882 141.829 108.482 142.433 110.265 142.433C110.906 142.433 111.562 142.352 112.195 142.45C113.414 142.643 114.045 141.433 114.041 140.422C114.041 138.954 113.877 137.485 113.881 136.017C113.881 134.261 114.045 132.507 114.047 130.753C114.047 129.063 113.891 127.373 113.881 125.682C113.881 124.505 114.074 123.327 114.028 122.155C114 121.388 113.785 120.638 113.4 119.973C113.163 119.587 112.458 119.427 111.933 119.321C111.315 119.197 110.633 119.354 110.033 119.192C108.791 118.854 108.37 117.841 108.278 116.662C108.251 116.311 108.278 115.956 108.278 115.601C108.262 114.422 107.561 113.712 106.378 113.71C103.358 113.685 100.336 113.69 97.314 113.69ZM128.015 119.286C125.766 119.286 123.516 119.275 121.269 119.286C120.021 119.286 119.475 119.865 119.475 121.102C119.475 125.571 119.475 130.04 119.475 134.51C119.475 134.734 119.463 134.96 119.475 135.183C119.541 136.179 120.151 136.812 121.165 136.816C125.757 136.835 130.352 136.835 134.947 136.816C135.924 136.816 136.797 135.957 136.826 135.05C136.847 134.471 136.826 133.893 136.826 133.304C136.826 129.355 136.826 125.405 136.826 121.455C136.826 120.087 136.023 119.284 134.66 119.28C132.445 119.276 130.228 119.28 128.011 119.28L128.015 119.286ZM116.602 96.537H115.735C114.358 96.537 113.692 97.1892 113.686 98.5457C113.686 99.2847 113.671 100.024 113.686 100.763C113.688 101.27 113.888 101.756 114.244 102.118C114.599 102.48 115.081 102.689 115.588 102.702C116.326 102.743 117.066 102.743 117.805 102.702C118.79 102.623 119.799 101.93 119.678 100.745C119.595 99.9195 119.678 99.0763 119.656 98.237C119.645 97.7891 119.461 97.3629 119.142 97.0476C118.824 96.7322 118.396 96.5521 117.948 96.5448C117.507 96.5178 117.048 96.5312 116.598 96.5312L116.602 96.537Z" fill="#075066"/>
<path d="M99.6563 56.8177C97.3392 56.8177 95.0221 56.8177 92.7051 56.8177C91.4403 56.8177 90.9132 57.3464 90.9151 58.6141C90.9151 59.629 90.9981 60.6304 90.22 61.4891C89.9753 61.7779 89.6698 62.0093 89.3254 62.1668C88.9809 62.3242 88.606 62.4038 88.2273 62.3998C84.4942 62.4153 80.7657 62.4153 77.0416 62.3998C75.883 62.3998 74.8867 61.9406 74.3827 60.9083C73.9251 59.9725 73.9502 58.9499 74.6839 58.0603C74.9365 57.7227 75.2661 57.4501 75.6452 57.2652C76.0244 57.0803 76.4422 56.9884 76.8639 56.9972C79.1134 57.0165 81.3629 56.9972 83.6221 56.9972C84.8965 56.9972 85.4565 56.3855 85.5376 55.0985C85.5663 54.2606 85.7112 53.4307 85.9681 52.6326C86.3987 51.4228 87.5804 51.3109 88.6386 51.2356C89.9033 51.1468 91.1796 51.2144 92.4521 51.2144C93.4851 51.2144 94.5239 51.2819 95.5415 51.1951C96.4664 51.116 96.8932 50.4927 96.8932 49.5569C96.8932 47.3399 96.8932 45.119 96.8932 42.9078C96.8932 40.9783 98.0343 39.8456 99.9536 39.8398C100.307 39.8398 100.66 39.8398 101.014 39.8398C101.917 39.8244 102.473 39.261 102.485 38.3599C102.5 37.3237 102.377 36.2818 103.064 35.3518C103.837 34.3137 104.912 33.9895 106.453 34.4487C107.208 34.6745 107.863 35.784 107.89 36.8221C107.915 37.7521 107.615 38.7902 108.585 39.4597C108.853 39.6596 109.17 39.7854 109.502 39.8244C110.431 39.8727 111.365 39.8456 112.296 39.8398C113.325 39.8398 113.825 39.3131 113.87 38.2634C113.906 37.3758 114.011 36.4882 114.028 35.5987C114.049 34.5182 112.804 33.6268 111.672 33.9007C111.292 33.9837 110.898 33.987 110.517 33.9104C110.135 33.8339 109.773 33.6791 109.454 33.456C109.136 33.2329 108.866 32.9461 108.664 32.6139C108.461 32.2816 108.33 31.9111 108.278 31.5255C108.054 30.1749 109 28.8609 110.523 28.6776C111.653 28.5425 112.812 28.639 113.957 28.6235C114.524 28.643 115.093 28.6217 115.658 28.5598C118.249 28.1546 119.421 29.5574 119.446 31.7571C119.492 35.8091 119.46 39.8611 119.46 43.8995C119.46 45.0573 120.016 45.6226 121.197 45.6226C125.188 45.6226 129.174 45.6226 133.155 45.6226C135.588 45.6226 136.438 46.4755 136.438 48.9376C136.438 50.6394 136.438 52.3432 136.438 54.045C136.438 55.5288 135.154 56.8949 133.735 56.7791C132.445 56.6769 131.018 55.6851 131.031 54.0199C131.057 53.2462 130.932 52.4749 130.663 51.7488C130.514 51.3919 129.85 51.1198 129.384 51.0523C128.597 50.9404 127.782 51.0156 126.979 51.0233C125.756 51.0349 125.073 51.7392 125.071 52.978C125.071 53.3967 125.082 53.8134 125.071 54.2322C125.03 55.4323 124.308 56.1115 123.275 56.5572C122.323 56.9663 121.537 56.7039 120.765 56.0729C119.931 55.3879 119.622 54.5505 119.651 53.4815C119.655 52.8704 119.523 52.2659 119.265 51.7122C118.99 51.114 118.396 50.9578 117.72 51.0079C116.947 51.0658 116.175 51.0079 115.403 51.0233C114.364 51.033 113.717 51.5771 113.704 52.6171C113.667 55.4767 113.673 58.3363 113.704 61.1939C113.704 62.0718 114.507 62.7742 115.522 62.7664C117.758 62.751 119.994 62.6545 122.23 62.6005C122.779 62.587 123.348 62.6951 123.877 62.587C125.125 62.3304 125.571 61.5123 125.374 60.2716C125.177 59.0309 125.845 57.5702 127.204 57.165C128.564 56.7598 129.821 57.1515 130.396 58.4153C130.666 59.0127 130.817 59.657 130.84 60.3121C130.894 62.3998 130.858 64.4895 130.862 66.5772C130.862 67.8411 131.389 68.3813 132.653 68.3659C133.868 68.3485 135.113 68.2714 135.878 69.4619C136.191 69.9208 136.38 70.4523 136.428 71.0055C136.492 72.962 136.461 74.9224 136.452 76.8828C136.43 77.5667 136.15 78.217 135.667 78.7023C135.184 79.1876 134.535 79.4717 133.851 79.4973C132.316 79.4973 131.074 78.3396 131.053 76.8925C131.053 76.5066 131.053 76.1207 131.053 75.7347C131.053 74.4999 130.404 73.8342 129.151 73.7666C128.487 73.73 127.784 73.8072 127.17 73.6123C125.959 73.2264 125.295 72.0513 125.26 70.637C125.241 69.8652 125.53 68.9988 124.681 68.4547C124.513 68.3188 124.314 68.2279 124.101 68.1903C122.943 68.1653 121.784 68.1363 120.626 68.1903C119.832 68.2289 119.494 68.7557 119.467 69.541C119.457 70.2991 119.393 71.0555 119.274 71.8043C119.081 72.9331 118.035 73.7126 116.805 73.7647C115.575 73.8168 114.455 73.1434 114.192 72.0281C114.003 71.1603 113.906 70.2749 113.902 69.3866C113.889 68.5338 113.362 68.2405 112.703 68.198C111.582 68.1266 110.454 68.1575 109.328 68.1865C108.647 68.2038 107.946 69.049 107.909 69.8478C107.857 70.3268 107.857 70.8101 107.909 71.2891C108.102 72.414 107.108 73.566 105.642 73.7435C104.177 73.921 102.9 73.1762 102.732 71.7985C102.489 69.8266 102.566 67.816 102.491 65.817C102.45 64.7519 102.813 63.8277 103.686 63.2701C104.244 62.919 104.899 62.7522 105.557 62.7934C107.202 62.9632 108.282 62.1355 108.282 60.505C108.282 59.7988 108.293 59.0926 108.282 58.3826C108.26 57.3657 107.689 56.7965 106.698 56.7946C104.349 56.8061 102.002 56.8138 99.6563 56.8177Z" fill="#075066"/>
<path d="M0.0662628 71.0754V65.7751C0.0662628 63.9864 0.678342 63.1798 2.43932 62.7843C4.02652 62.4254 5.43996 63.8532 5.47472 65.0997C5.47675 65.8583 5.54719 66.6152 5.68518 67.3611C5.82807 68.0326 6.3359 68.3972 7.06384 68.3895C7.8362 68.3895 8.60857 68.3143 9.38093 68.405C10.7326 68.5651 11.4296 67.6563 11.4624 66.3674C11.4573 65.7066 11.5431 65.0483 11.7173 64.4109C12.1035 63.1779 13.04 62.7283 14.297 62.7901C15.22 62.8345 16.1526 62.8132 16.8072 61.9758C16.9211 61.8272 17.0891 61.6555 17.0891 61.4934C17.1007 60.2701 17.1605 59.0391 17.0331 57.8273C16.9558 57.0767 16.3186 56.8027 15.5463 56.8124C13.3624 56.8375 11.1766 56.822 8.98122 56.8124C6.93253 56.8124 5.85317 55.7531 5.85317 53.7522C5.85317 51.8883 5.87248 50.0263 5.85317 48.1566C5.83772 47.1571 6.29534 46.3235 7.07928 45.9318C8.04473 45.4514 9.18397 45.3646 10.1243 46.1479C10.9083 46.8001 11.364 47.5777 11.0898 48.6988C10.7132 50.281 11.8621 51.456 13.6173 51.3827C14.2835 51.3557 14.9477 51.2766 15.6119 51.2168C16.0503 51.1935 16.4628 51.0026 16.764 50.6836C17.0653 50.3646 17.2321 49.942 17.23 49.5034C17.2493 49.0229 17.2127 48.5386 17.23 48.0582C17.2996 46.7982 18.3094 45.7061 19.4544 45.6269C21.0532 45.515 22.1287 46.2271 22.4299 47.6375C22.5452 48.1601 22.6099 48.6925 22.623 49.2275C22.6462 50.8579 23.5885 51.6702 25.1892 51.3866C25.8239 51.2826 26.4748 51.4096 27.0237 51.7446C27.5725 52.0796 27.9829 52.6002 28.1802 53.2119C28.549 54.3484 28.0083 55.8264 26.8884 56.2779C26.0665 56.5794 25.2028 56.7512 24.328 56.7873C23.0614 56.8722 22.6443 57.2234 22.6327 58.5239C22.6327 59.3594 22.6327 60.1949 22.6327 61.0323C22.6327 62.1456 23.4862 62.7071 24.5906 62.6859C27.0834 62.6415 29.5801 62.6994 32.069 62.819C32.9785 62.8634 34.0771 64.3858 33.9883 65.4856C33.7952 67.857 34.2451 68.5227 36.9329 68.3799C38.4274 68.3066 39.6169 69.6418 39.6053 71.1989C39.5937 72.756 38.5472 73.7575 36.9387 73.7613C36.5197 73.7613 36.0698 73.6629 35.6933 73.7864C35.1732 73.939 34.6946 74.2075 34.2934 74.5717C33.8223 75.0406 33.7817 78.6334 34.2722 79.0347C34.7519 79.425 35.3392 79.6599 35.9559 79.7081C38.1707 79.7834 40.397 79.7081 42.6079 79.7448C43.0601 79.7389 43.5067 79.8445 43.9083 80.0524C44.3099 80.2602 44.6539 80.5639 44.91 80.9364C45.1661 81.3089 45.3263 81.7387 45.3764 82.1878C45.4264 82.637 45.3649 83.0915 45.1972 83.5112C44.7454 84.5647 43.1022 85.5179 41.9147 85.2594C41.4204 85.1513 40.8681 85.3211 40.3429 85.325C38.8272 85.3365 37.3095 85.325 35.7937 85.325C34.4421 85.325 33.9729 85.7765 34.0115 87.1619C34.0404 88.1652 33.9729 89.1377 33.3241 89.9443C32.9682 90.3707 32.4873 90.6746 31.9492 90.8131C31.4111 90.9516 30.8431 90.9177 30.3254 90.7161C29.3001 90.3437 28.4235 89.1396 28.4138 87.9954C28.3945 85.7475 28.4138 83.4996 28.4138 81.2421C28.4138 79.9416 27.3364 79.2103 26.0253 79.3319C24.5211 79.4708 22.9957 79.3627 21.48 79.3569C20.7076 79.3569 19.9121 79.4554 19.1629 79.3184C18.0333 79.11 16.9848 78.0835 17.232 76.289C17.3217 75.6935 17.6215 75.1497 18.0771 74.7555C18.5328 74.3614 19.1144 74.1429 19.717 74.1395C20.1669 74.1395 20.6168 74.1492 21.0687 74.1395C21.532 74.1406 21.977 73.9587 22.3069 73.6334C22.6367 73.3082 22.8246 72.8659 22.8297 72.4029C22.849 71.5366 22.8432 70.6664 22.8297 69.8019C22.8123 68.7195 22.2504 68.1734 21.1942 68.1696C20.3272 68.1696 19.4564 68.1696 18.5913 68.1696C17.4753 68.1696 16.9095 68.7214 16.8535 69.854C16.8323 70.3345 16.8689 70.8188 16.8535 71.2993C16.7801 72.7811 15.7548 73.7517 14.2738 73.7594H13.3084C11.6961 73.7594 10.9121 74.7145 11.1844 76.316C11.5126 78.1877 9.58559 79.8625 7.66049 79.519C6.67959 79.3435 5.64271 79.5191 4.63285 79.4766C3.62299 79.4342 2.57064 79.5075 1.63222 79.22C0.543192 78.8842 0.0875064 77.8693 0.0701283 76.7366C0.0488884 74.8746 0.0662628 72.9702 0.0662628 71.0754Z" fill="#075066"/>
<path d="M82.1123 65.6854C84.3466 65.6525 86.5642 66.0748 88.6299 66.9265C90.6956 67.7781 92.5661 69.0412 94.1273 70.6389C95.6885 72.2365 96.9077 74.1351 97.7106 76.219C98.5134 78.3029 98.8832 80.5284 98.7972 82.7598C98.438 91.9597 91.2667 98.8249 82.1914 98.7844C72.4481 98.74 65.5567 90.9564 65.6919 81.9744C65.8271 72.9925 72.7783 65.8513 82.1123 65.6854ZM85.2017 78.8718L85.4102 78.9586C85.2382 79.2513 85.0398 79.5278 84.8174 79.7844C83.2586 81.3036 81.69 82.8112 80.1118 84.3072C79.5944 84.7992 79.5036 85.3492 80.0906 85.7679C82.0215 87.1378 83.9524 88.4885 85.9316 89.7716C86.897 90.4007 88.0305 89.8122 88.2255 88.6776C88.3684 87.8402 88.4804 86.9989 88.6271 86.1692C89.1948 82.918 89.776 79.6686 90.3418 76.4155C90.5349 75.3697 89.6505 74.486 88.7295 74.7986C87.6076 75.1845 86.5031 75.6417 85.4006 76.0913C83.5102 76.8631 81.6141 77.6195 79.7431 78.4318C77.3256 79.4815 74.9255 80.5717 72.5292 81.6676C72.2666 81.7892 71.8669 82.1134 71.8997 82.2658C71.9463 82.4215 72.0255 82.5654 72.1321 82.6882C72.2386 82.8109 72.37 82.9097 72.5176 82.9778C73.541 83.3637 74.6088 83.63 75.636 84.0082C76.5069 84.3285 77.2503 84.0661 77.9531 83.6223C80.3667 82.0497 82.7765 80.4559 85.1921 78.8718H85.2017Z" fill="#075066"/>
<path d="M41.1539 144.174C41.1539 146.904 41.2061 149.636 41.1423 152.364C41.0245 157.319 38.8426 161.132 34.4325 163.434C32.9557 164.201 31.331 164.64 29.6689 164.723C24.2238 164.938 18.7735 165.01 13.3181 164.939C8.86733 164.879 5.04221 163.276 2.39881 159.484C1.22675 157.804 0.686096 155.915 0.417701 153.868C-0.296732 148.403 0.122289 142.927 0.120358 137.467C0.120358 134.485 0.63203 131.485 2.56486 128.992C4.4668 126.542 6.83408 124.869 9.97373 124.261C12.4376 123.782 14.8956 123.703 17.3807 123.715C20.7559 123.732 24.1388 123.611 27.5044 123.752C30.5938 123.883 33.6504 124.375 36.2301 126.376C38.0117 127.712 39.3884 129.515 40.2078 131.585C40.9202 133.416 41.2488 135.373 41.1732 137.335C41.1037 139.61 41.1539 141.893 41.1539 144.174ZM20.6632 159.581V159.388C23.5113 159.388 26.3652 159.523 29.2016 159.347C31.7408 159.191 33.7084 157.935 34.8997 155.548C35.7049 153.933 35.898 152.204 35.9096 150.495C35.9456 145.818 35.8864 141.14 35.7319 136.461C35.6026 132.427 32.9785 129.542 28.7807 129.322C25.7434 129.17 22.7003 129.146 19.6572 129.129C18.1916 129.118 16.7261 129.241 15.2586 129.311C14.019 129.368 12.7755 129.395 11.5397 129.503C8.79008 129.758 6.15055 132.205 5.84933 135.099C5.70451 136.484 5.48052 137.874 5.48438 139.261C5.49404 143.778 5.53846 148.297 5.68907 152.812C5.75081 154.337 6.33423 155.794 7.34191 156.941C9.03338 158.938 11.335 159.401 13.7139 159.538C16.0271 159.679 18.348 159.581 20.6632 159.581Z" fill="#075066"/>
<path d="M144.505 0.136561C147.077 0.136561 149.655 0.0285069 152.219 0.159715C157.494 0.427918 161.665 2.5774 163.72 7.70608C164.338 9.2497 164.55 10.9863 164.772 12.6514C164.965 14.1642 164.965 15.7059 164.981 17.236C164.981 17.8978 164.807 18.5616 164.815 19.2215C164.815 20.1746 164.992 21.1259 164.981 22.0752C164.952 24.6068 164.996 27.1479 164.762 29.664C164.523 32.2535 163.718 34.6808 161.901 36.7029C160.19 38.6074 158.217 40.041 155.708 40.6218C154.545 40.8983 153.363 41.0854 152.171 41.1814C150.356 41.3183 148.533 41.357 146.712 41.3878C144.801 41.4187 142.885 41.4669 140.978 41.3762C138.409 41.2547 135.795 41.2586 133.296 40.7395C130.773 40.2078 128.51 38.8256 126.886 36.8245C125.56 35.2659 124.649 33.3985 124.237 31.3948C123.936 29.9714 123.769 28.5232 123.737 27.0688C123.671 22.9898 123.601 18.9031 123.756 14.828C123.843 12.5453 124.082 10.1855 124.771 8.02638C125.59 5.46591 127.372 3.45919 129.761 2.03327C132.005 0.696114 134.43 0.184785 136.982 0.146195C139.489 0.107604 141.997 0.136561 144.505 0.136561ZM144.301 35.8038V35.6108C147.212 35.6108 150.126 35.6861 153.032 35.5896C154.415 35.5461 155.745 35.0507 156.819 34.1795C157.894 33.3082 158.652 32.1091 158.979 30.7658C159.357 29.1423 159.552 27.4815 159.559 25.8146C159.582 21.4597 159.456 17.1048 159.396 12.7499C159.366 10.5444 158.466 8.73259 156.853 7.2758C155.477 6.03125 153.764 5.57781 151.966 5.55659C147.243 5.50063 142.52 5.52763 137.795 5.545C136.907 5.5238 136.019 5.59234 135.144 5.74954C132.582 6.2898 130.576 7.61731 129.78 10.228C129.382 11.4899 129.166 12.8025 129.141 14.1256C129.126 18.9629 129.23 23.7983 129.307 28.6356C129.346 31.1016 130.431 33.0118 132.416 34.4724C133.849 35.5279 135.505 35.7285 137.164 35.7845C139.543 35.8617 141.922 35.8038 144.301 35.8038Z" fill="#075066"/>
<path d="M41.1538 20.7818C41.1538 23.2902 41.1345 25.7985 41.1538 28.3069C41.1847 31.7279 40.1459 34.7863 37.8095 37.2715C35.9346 39.2647 33.6059 40.4475 30.8023 40.8642C25.8012 41.609 20.7828 41.4643 15.776 41.3486C12.6209 41.2772 9.40404 41.1807 6.49032 39.5058C2.92008 37.4451 0.956352 34.4331 0.429216 30.3522C-0.240806 25.1792 0.0758625 19.9907 0.116411 14.8137C0.139582 12.0101 0.272808 9.13324 1.77505 6.5554C3.6654 3.31187 6.38411 1.2299 10.0779 0.558428C11.7062 0.292694 13.3538 0.163608 15.0036 0.172524C19.6378 0.122356 24.2623 0.0567457 28.8868 0.189883C32.1867 0.284429 35.1893 1.39198 37.5759 3.80967C39.9625 6.22736 41.0515 9.18148 41.1461 12.5118C41.2118 15.2518 41.1538 18.0187 41.1538 20.7818ZM20.5704 35.8031C22.9474 35.8031 25.3282 35.8648 27.7013 35.7799C29.2962 35.724 30.9008 35.587 32.3354 34.6956C35.0387 33.0169 35.9056 30.3406 35.8941 27.4618C35.8689 22.0958 36.3748 16.7105 35.5542 11.3599C35.3168 9.68175 34.4387 8.16052 33.1039 7.11494C31.6596 5.97074 29.9199 5.53275 28.0836 5.53468C23.4494 5.53468 18.8152 5.52503 14.1811 5.53468C13.2928 5.52156 12.4051 5.58613 11.528 5.72763C9.00434 6.18686 7.03289 7.49892 6.26632 10.0092C5.77184 11.6364 5.51178 13.3256 5.49396 15.026C5.44891 19.7971 5.51327 24.5681 5.68705 29.3392C5.75464 31.2012 6.72008 32.7448 8.17019 34.0125C9.71491 35.3632 11.528 35.7086 13.428 35.7742C15.8127 35.8649 18.1935 35.8031 20.5762 35.8031H20.5704Z" fill="#075066"/>
<path d="M102.302 156.551C102.302 158.446 102.302 160.341 102.302 162.237C102.302 163.725 101.052 164.894 99.5984 164.997C98.3336 165.085 96.702 163.551 96.8951 162.27C96.9252 161.885 96.9252 161.498 96.8951 161.112C96.8835 159.91 96.3525 159.428 95.1573 159.364C94.344 159.339 93.5373 159.21 92.7572 158.978C91.8246 158.673 91.28 157.958 91.2916 156.914C91.2916 156.464 91.3051 156.013 91.2916 155.563C91.253 154.295 90.5309 153.551 89.2661 153.62C87.6828 153.705 86.3003 153.446 85.692 151.774C85.4989 151.229 85.524 150.591 85.5144 149.994C85.4912 148.482 84.883 147.81 83.3904 147.83C81.5406 147.853 79.6831 148.055 77.8429 147.945C76.5338 147.868 74.9369 148.038 74.3345 146.315C74.208 145.961 74.1389 145.589 74.1298 145.213C74.1124 142.998 74.1298 140.775 74.1298 138.564C74.1298 137.061 73.5023 136.474 71.9691 136.442C71.2836 136.422 70.5518 136.399 69.9243 136.16C68.8777 135.762 68.171 134.423 68.3603 133.524C68.6634 132.052 69.6038 131.147 70.9457 131.06C71.3937 131.031 71.8455 131.06 72.2974 131.06C73.3941 131.06 74.095 130.342 74.1375 129.225C74.1626 128.532 74.1047 127.801 74.3074 127.157C74.6647 126.028 76.1881 125.086 77.0976 125.312C78.372 125.628 79.6406 126.91 79.5479 128.191C79.3548 130.915 79.9341 131.137 82.4694 131.072C84.686 131.016 86.9104 131.062 89.1213 131.06C90.6351 131.06 91.2974 130.387 91.2994 128.837C91.2994 126.715 91.4056 124.592 91.2685 122.47C91.1526 120.671 92.5506 119.74 93.9157 119.695C95.9084 119.632 97.903 119.645 99.9015 119.695C101.128 119.722 102.292 121.065 102.304 122.335C102.315 123.685 101.195 124.988 99.9189 125.073C99.3744 125.109 98.826 125.073 98.2796 125.082C97.2697 125.111 96.7117 125.682 96.7098 126.684C96.7098 130.8 96.7098 134.913 96.7098 139.021C96.7098 140.661 95.9586 141.671 94.3927 142.141C92.9368 142.581 91.3206 141.37 91.3032 139.847C91.2878 138.788 91.5851 137.62 90.4652 136.881C90.1721 136.666 89.8306 136.527 89.4708 136.474C88.6386 136.414 87.8006 136.445 86.9606 136.457C85.9064 136.474 85.3271 137.059 85.3232 138.089C85.3232 138.99 85.3232 139.89 85.3232 140.791C85.3232 141.948 85.833 142.429 87.0185 142.433C87.5322 142.433 88.0574 142.375 88.5633 142.454C89.9999 142.68 90.9171 143.833 90.9209 145.331C90.9209 145.684 90.9209 146.037 90.9209 146.39C90.9479 147.515 91.6218 148.206 92.7475 148.214C94.9661 148.225 97.1886 148.304 99.3995 148.188C101.101 148.1 102.389 149.697 102.323 151.083C102.236 152.885 102.302 154.72 102.302 156.551Z" fill="#075066"/>
<path d="M37.5468 45.6346H43.7257C45.0773 45.6346 45.5967 45.106 45.5967 43.7244C45.5967 39.6146 45.5735 35.5027 45.6083 31.3909C45.6218 29.7412 46.4502 28.8555 48.1436 28.4966C49.1264 28.2863 50.3602 29.1449 50.8468 30.3451C50.9529 30.6388 51.0045 30.9494 50.9994 31.2616C51.011 33.5095 50.9994 35.7593 50.9994 38.015C50.9994 39.1939 51.6868 39.8133 52.8878 39.8808C53.693 39.9252 54.5387 40.0005 55.2763 40.2918C56.2881 40.6912 56.821 41.5498 56.7863 42.6863C56.7863 43.0722 56.7863 43.4581 56.7863 43.844C56.7863 44.9863 57.4312 45.6212 58.6071 45.6482C59.0242 45.6482 59.4413 45.6482 59.8603 45.6482C61.2119 45.6597 62.4863 46.8348 62.552 48.1199C62.6195 49.4706 61.2505 50.9717 59.8892 51.0489C59.196 51.0875 58.5009 51.1203 57.8154 51.2245C57.0759 51.3345 56.767 51.8033 56.7766 52.5751C56.8017 54.9195 56.7882 57.2658 56.7766 59.6102C56.7766 61.0014 55.9328 62.1572 54.5503 62.3559C53.4188 62.5199 52.1618 62.2575 51.5555 60.7969C51.4174 60.4126 51.3596 60.0042 51.3856 59.5967C51.4647 57.0883 50.7812 56.7024 48.6823 56.8182C47.2399 56.8992 45.8419 55.811 45.6179 54.5356C45.5195 53.9741 45.589 53.3778 45.5832 52.799C45.5716 51.595 45.0406 51.0508 43.8454 51.0489C39.6347 51.0489 35.4247 51.0489 31.2154 51.0489C29.5509 51.0489 28.57 49.677 28.4445 48.2723C28.3325 47.0065 29.7962 45.6694 31.1787 45.6559C33.3046 45.6212 35.4267 45.6366 37.5468 45.6346Z" fill="#075066"/>
<path d="M85.52 28.3251C85.52 27.4588 85.5972 26.5885 85.5026 25.726C85.3288 24.1612 86.7056 22.7141 88.399 22.8819C88.6875 22.9051 88.9774 22.9051 89.2659 22.8819C90.5809 22.797 91.3011 22.031 91.3031 20.7054C91.3031 18.4247 91.3031 16.146 91.3031 13.8653C91.3031 12.6169 92.3998 11.5498 93.6414 11.4997C94.3967 11.496 95.1489 11.4047 95.8831 11.2276C96.6304 11.0173 96.9143 10.3902 96.9046 9.59331C96.8795 7.31454 96.893 5.03383 96.9046 2.75313C96.9046 1.19408 97.955 0.136709 99.4901 0.134779C101.516 0.134779 103.545 0.134779 105.563 0.134779C105.872 0.133731 106.178 0.194107 106.463 0.312398C106.748 0.430689 107.007 0.604536 107.225 0.823797C107.442 1.04306 107.614 1.30335 107.73 1.58953C107.845 1.87571 107.903 2.18206 107.899 2.49072C107.899 2.52159 107.899 2.55439 107.899 2.5872C107.706 5.23257 108.372 5.86738 110.965 5.74196C112.56 5.66478 113.756 6.98264 113.669 8.73079C113.562 10.807 114.068 11.5267 116.445 11.5093C118.007 11.5093 119.293 12.4876 119.459 13.8016C119.62 15.077 118.457 16.746 117.007 16.8329C114.841 16.979 112.666 16.9319 110.508 16.692C108.656 16.4701 108.31 15.4378 108.32 13.9154C108.337 11.4842 107.803 11.0501 105.424 11.1215C105.007 11.133 104.588 11.1041 104.171 11.1215C102.856 11.189 102.354 11.764 102.284 13.0645C102.253 13.8356 102.123 14.5994 101.898 15.3375C101.502 16.5492 100.4 16.7595 99.3124 16.8811C98.8683 16.9351 98.4126 16.8811 97.9608 16.8965C97.1151 16.9409 96.4721 17.8613 96.5068 18.6678C96.5744 20.1787 96.5068 21.6933 96.5358 23.2061C96.5474 23.8679 96.6903 24.5259 96.6922 25.1877C96.7016 25.5998 96.6262 26.0095 96.4707 26.3914C96.3152 26.7732 96.0829 27.1191 95.7882 27.4076C95.4935 27.6961 95.1427 27.9211 94.7575 28.0686C94.3723 28.2161 93.9609 28.2831 93.5487 28.2653C93.3556 28.2653 93.1625 28.2557 92.9694 28.2402C91.6313 28.1206 90.9922 28.7091 90.8995 30.0366C90.8435 30.8432 90.7971 31.6902 90.5133 32.4292C90.2879 32.9823 89.8669 33.4333 89.3303 33.6962C88.7937 33.9592 88.1791 34.0157 87.6034 33.8551C86.4198 33.5348 85.4312 32.5662 85.5026 31.2927C85.5644 30.3202 85.52 29.3207 85.52 28.3251Z" fill="#075066"/>
<path d="M62.5655 159.388H58.4218C57.354 159.388 56.8365 159.937 56.7709 161.014C56.7207 161.826 56.7381 162.695 56.4504 163.43C55.985 164.617 54.6102 165.273 53.4787 164.943C52.2101 164.574 51.3431 163.81 51.3779 162.212C51.4061 161.827 51.4061 161.44 51.3779 161.055C51.2389 159.968 50.6885 159.353 49.6401 159.347C48.7031 159.33 47.7762 159.151 46.9001 158.818C45.8458 158.432 45.6489 157.385 45.6238 156.395C45.6025 155.482 46.0409 154.676 46.8982 154.363C47.7842 154.066 48.7041 153.88 49.6362 153.811C50.6017 153.717 51.347 153.055 51.3933 152.075C51.5594 148.576 51.849 148.293 55.3536 148.202C56.3943 148.175 56.9814 147.59 56.9852 146.535C56.9852 144.22 56.962 141.904 56.9852 139.589C56.9796 139.089 57.1094 138.596 57.3609 138.164C57.6124 137.731 57.9763 137.375 58.4139 137.132C58.8516 136.889 59.3469 136.769 59.8472 136.784C60.3476 136.8 60.8345 136.95 61.2564 137.219C62.1658 137.787 62.467 138.738 62.5578 139.728C62.6292 140.528 62.5713 141.343 62.5713 142.149C62.5713 144.889 62.5713 147.629 62.5713 150.369C62.5401 151.047 62.5446 151.726 62.5848 152.403C62.6852 153.367 63.2027 153.775 64.1527 153.777C66.3385 153.777 68.5223 153.777 70.7081 153.777C72.6834 153.777 73.9443 155.062 73.9559 157.057C73.9559 157.952 73.6875 159 74.875 159.382C75.3983 159.552 75.9911 159.546 76.553 159.552C78.3564 159.573 79.5439 160.628 79.5478 162.253C79.5478 163.82 78.283 164.954 76.5201 164.954C74.7205 164.954 72.9171 164.887 71.1136 164.977C69.762 165.045 68.4104 163.658 68.3486 162.276C68.2134 159.37 68.2095 159.37 65.2591 159.37L62.5655 159.388Z" fill="#075066"/>
<path d="M69.5134 28.3887C71.0407 28.4813 72.5661 28.6009 74.0954 28.6569C75.2849 28.7012 76.4897 28.5681 77.6657 28.7032C78.6774 28.8189 79.1795 29.6409 79.4363 30.5864C79.668 31.4373 79.5444 32.1918 78.9227 32.8632C78.1503 33.6968 77.3239 34.1598 76.0997 33.9032C74.7616 33.6215 73.9487 34.4223 73.9467 35.8135C73.9467 36.649 73.9467 37.4825 73.9467 38.3219C73.9467 39.2866 74.5067 39.8462 75.4606 39.8539C76.3604 39.8539 77.2602 39.8713 78.1638 39.8539C79.276 39.8288 79.8611 38.9624 79.7993 37.8298C79.666 35.3755 80.925 33.6003 83.7654 34.5245C84.3311 34.7175 84.7887 35.5337 85.0745 36.1627C85.3236 36.7107 85.3043 37.4015 85.3217 38.0305C85.3603 39.4564 85.7542 39.8577 87.2255 39.8577C88.3126 39.8577 89.4036 39.8577 90.1991 40.7743C90.9464 41.6348 91.1646 42.6363 90.7089 43.6686C90.2725 44.6333 89.5059 45.2565 88.3628 45.2508C87.9438 45.2508 87.5248 45.2276 87.1097 45.2508C85.9202 45.326 85.2483 45.9859 85.3004 47.0838C85.3487 48.1045 85.2811 49.1619 84.5706 50.0456C84.274 50.4383 83.8702 50.7371 83.4077 50.9058C82.9453 51.0746 82.4439 51.1062 81.9638 50.9969C80.9984 50.8039 80.2048 50.2251 79.9499 49.2005C79.812 48.5849 79.7434 47.9558 79.7452 47.325C79.7182 45.82 79.1524 45.2469 77.6116 45.2469H65.5666C63.8597 45.2469 62.7823 44.2821 62.7649 42.7385C62.7475 41.056 63.8925 39.7787 65.5801 39.8713C68.4765 40.0333 68.4282 39.111 68.3606 36.948C68.349 36.5312 68.3606 36.1125 68.3606 35.6958C68.3606 34.4589 67.8123 33.9457 66.5707 33.8588C65.7018 33.799 64.7827 33.7682 63.9871 33.4614C62.9792 33.0755 62.566 31.8232 62.7707 30.5169C62.8943 29.7316 63.9292 28.7804 64.8406 28.6723C65.6245 28.5778 66.4162 28.5141 67.206 28.4794C67.9957 28.4446 68.7507 28.4794 69.523 28.4794L69.5134 28.3887Z" fill="#075066"/>
<path d="M22.0493 102.316C20.9893 102.316 19.9254 102.316 18.8672 102.316C17.504 102.316 16.8475 102.988 16.8494 104.379C16.8494 105.297 16.9518 106.225 16.2952 107.015C15.9186 107.428 15.4334 107.726 14.8949 107.877C14.3565 108.027 13.7866 108.023 13.2502 107.866C12.7264 107.68 12.2726 107.337 11.9506 106.885C11.6286 106.432 11.454 105.891 11.4506 105.336C11.4352 103.441 11.3792 101.544 11.4622 99.6535C11.5819 97.0004 10.9602 96.3444 8.37278 96.5373C7.65063 96.5914 7.10997 96.3444 6.58477 95.8388C5.99391 95.2735 5.8124 94.6464 5.85101 93.8669C5.88384 93.0237 6.0441 92.1013 5.29298 91.4607C4.96115 91.1962 4.56568 91.0232 4.14604 90.9591C3.40071 90.8318 2.61096 90.9166 1.8888 90.7217C0.645304 90.386 -0.206227 88.9639 0.0988552 87.7445C0.390421 86.5868 1.21105 85.4754 2.75384 85.5275C4.64613 85.5931 6.54421 85.5834 8.43843 85.5275C8.84738 85.5132 9.25403 85.5942 9.62624 85.7641C9.99846 85.934 10.326 86.1881 10.583 86.5063C10.84 86.8245 11.0194 87.198 11.107 87.5975C11.1945 87.9969 11.1879 88.4112 11.0876 88.8077C10.8791 89.7724 11.6958 91.343 13.0417 91.1636C13.899 91.0478 14.7795 91.1983 15.6542 91.125C16.6196 91.0459 17.1989 90.305 17.2472 89.3209C17.2742 88.6263 17.2008 87.8892 17.4094 87.2505C17.8419 85.9346 19.0738 85.321 20.437 85.5564C21.6632 85.7745 22.6151 86.8897 22.6267 88.3581C22.6421 90.5905 22.5707 92.8269 22.4857 95.0593C22.4471 96.0723 23.3411 96.8847 24.6425 96.929C25.3357 96.9503 25.9942 96.655 26.726 97.0949C27.9096 97.8127 28.543 99.011 28.2263 100.387C28.0197 101.284 26.6372 102.295 25.523 102.316C24.3626 102.334 23.2059 102.316 22.0493 102.316Z" fill="#075066"/>
<path d="M147.998 57.0111C150.794 57.0111 153.598 57.0536 156.386 56.9918C157.819 56.9609 159.283 58.1109 159.228 59.8243C159.163 61.6092 159.296 63.3998 159.315 65.1884C159.333 66.732 157.983 68.0982 156.365 68.1908C156.204 68.2033 156.043 68.2033 155.882 68.1908C154.1 68.0094 153.465 68.6422 153.586 70.5158C153.623 71.0812 153.415 71.689 153.214 72.237C152.801 73.3715 151.862 73.7497 150.734 73.7806C150.414 73.7902 150.091 73.7999 149.769 73.7806C148.116 73.6783 147.676 75.0849 147.867 76.1655C148.078 77.3541 147.612 78.2879 146.741 78.9652C145.969 79.5653 145.033 79.7486 144.115 79.2315C143.161 78.6932 142.445 77.9426 142.43 76.7694C142.404 74.9081 142.404 73.0429 142.43 71.1738C142.445 69.5723 143.656 68.4455 145.274 68.3625C146.06 68.322 146.998 68.7696 147.591 67.911C147.892 67.4847 148.094 66.9971 148.184 66.4831C148.284 65.8252 148.211 65.1325 148.209 64.4629C148.209 63.0737 147.552 62.4061 146.185 62.4041C144.032 62.4041 141.877 62.4273 139.724 62.3926C138.578 62.3752 137.552 62.0992 137.021 60.8817C136.249 59.1451 137.514 57.0227 139.421 57.0111C142.277 56.9918 145.137 57.0111 147.998 57.0111Z" fill="#075066"/>
<path d="M56.7769 6.33166C56.7769 7.39162 56.7769 8.45156 56.7769 9.51151C56.7769 10.8622 57.4354 11.5124 58.8314 11.5086C59.9088 11.5086 60.9863 11.3793 61.805 12.373C62.0929 12.7009 62.2919 13.0971 62.3832 13.5237C62.4745 13.9503 62.4549 14.3931 62.3263 14.81C62.0676 15.6976 61.5269 16.4983 60.5094 16.7009C59.8567 16.8194 59.1954 16.8839 58.5321 16.8939C57.3253 16.9325 56.7808 17.4419 56.7769 18.6304C56.7769 20.9111 56.7615 23.1899 56.7769 25.4706C56.7904 27.0509 55.5604 28.1372 54.0215 28.2568C52.6448 28.3629 51.3781 26.9853 51.3704 25.4783C51.3704 25.1561 51.3704 24.8358 51.3704 24.5136C51.3414 23.1629 50.6366 22.4335 49.2869 22.5011C47.8175 22.5763 46.5431 22.3351 45.8403 20.8764C45.6818 20.5346 45.5982 20.1629 45.5951 19.7862C45.5719 17.9242 45.6356 16.0584 45.5681 14.1906C45.5159 12.7878 46.9197 11.2963 48.3215 11.4565C49.0108 11.5375 49.7677 11.3619 50.4455 11.1304C50.636 11.0421 50.8037 10.9113 50.9356 10.7481C51.0675 10.5848 51.1601 10.3935 51.2063 10.1888C51.3318 9.05808 51.4496 7.89072 51.3047 6.7716C51.1638 5.68721 49.8064 5.06012 48.5899 5.37463C47.5781 5.63511 46.8521 5.0659 46.2728 4.4774C45.9467 4.17132 45.718 3.77615 45.615 3.34111C45.512 2.90608 45.5393 2.45038 45.6935 2.03075C46.184 0.680083 47.1301 0.0356222 48.474 0.101226C50.3663 0.186125 52.2644 0.12052 54.1606 0.124379C55.6416 0.124379 56.7344 1.17211 56.7673 2.65784C56.7982 3.89081 56.7769 5.11221 56.7769 6.33166Z" fill="#075066"/>
<path d="M34.4344 102.702C35.5601 102.702 36.6839 102.702 37.8096 102.702C39.3234 102.702 39.9799 102.017 39.9992 100.481C39.9992 99.877 39.9471 99.2441 40.1055 98.6768C40.3835 97.6754 41.9746 96.5852 42.7508 96.7473C44.2955 97.0676 45.344 98.2543 45.4116 99.6416C45.4521 100.435 45.4579 101.322 45.817 101.984C46.3268 102.922 47.4332 102.791 48.3272 102.675C49.6248 102.505 50.6617 103.574 50.9204 104.463C51.4997 106.478 49.955 108.149 47.8947 107.954C46.5006 107.821 45.0737 108.056 43.6622 108.072C42.969 108.072 42.2739 107.921 41.5787 107.913C39.6787 107.888 37.7768 107.879 35.8768 107.913C34.6719 107.937 34.025 108.651 34.0173 109.843C34.0173 110.646 34.0057 111.448 34.0173 112.251C34.0347 113.332 34.5966 113.872 35.6605 113.878C36.626 113.878 37.6088 113.791 38.4796 114.456C38.9478 114.817 39.3011 115.306 39.4968 115.864C39.6925 116.421 39.7221 117.024 39.5822 117.598C39.3408 118.48 38.1572 119.278 37.072 119.282C35.1759 119.282 33.2778 119.282 31.3816 119.282C29.6805 119.282 28.5625 118.236 28.4216 116.511C28.4216 116.448 28.4216 116.382 28.4216 116.318C28.3482 113.773 28.271 113.633 25.6584 113.717C23.9747 113.771 22.8413 112.239 22.8335 111.001C22.8258 109.762 23.9651 108.116 25.6411 108.288C26.0259 108.334 26.4148 108.334 26.7996 108.288C27.823 108.139 28.5683 107.784 28.437 106.551C28.3057 105.318 28.4679 104.114 29.526 103.283C29.9151 102.976 30.3843 102.787 30.8777 102.738C32.0536 102.659 33.245 102.702 34.4344 102.702Z" fill="#075066"/>
<path d="M62.5233 130.848C61.6544 130.848 60.7855 130.848 59.9205 130.848C58.0475 130.863 57.1651 129.675 56.9952 128.133C56.8426 126.752 58.3333 125.329 59.8374 125.258C60.2545 125.239 60.6716 125.258 61.0906 125.258C62.1796 125.258 62.7126 124.679 62.7666 123.56C62.8149 122.547 62.4635 121.465 63.4251 120.604C64.1067 119.996 64.825 119.657 65.7228 119.666C66.0125 119.666 66.3021 119.666 66.5898 119.666C67.7986 119.655 68.3276 119.128 68.3508 117.93C68.3508 117.351 68.2871 116.772 68.3797 116.193C68.5941 114.891 69.8762 113.889 71.3128 113.878C73.1433 113.856 74.9738 113.856 76.8043 113.878C78.1443 113.895 79.5751 115.279 79.5346 116.508C79.4805 118.202 78.4224 119.435 76.7753 119.273C76.5509 119.259 76.3259 119.259 76.1014 119.273C74.7942 119.3 73.7515 119.819 73.9253 121.422C74.0914 122.947 73.6646 124.299 72.0678 124.882C71.4885 125.088 70.8204 125.036 70.1929 125.05C68.8161 125.075 68.1326 125.713 68.1674 127.074C68.2021 128.434 68.1172 129.721 66.7288 130.408C66.1917 130.65 65.6142 130.79 65.0258 130.821C64.1974 130.898 63.3575 130.848 62.5233 130.848Z" fill="#075066"/>
<path d="M45.5892 128.004C45.5892 126.173 45.5892 124.342 45.5892 122.51C45.5892 120.88 46.7477 119.707 48.3832 119.668C48.5759 119.653 48.7697 119.653 48.9624 119.668C50.7002 119.886 51.4456 118.852 51.3915 117.216C51.3297 115.346 51.9032 114.528 53.4305 114.03C54.8362 113.573 56.7401 114.862 56.7671 116.346C56.8077 118.433 56.8019 120.523 56.7671 122.611C56.7498 123.795 55.4676 125.015 54.2705 125.057C53.7897 125.075 53.305 125.057 52.8242 125.057C51.714 125.079 50.9976 125.796 50.9938 126.921C50.9938 129.237 50.9938 131.552 50.9938 133.868C50.9938 135.33 49.9375 136.366 48.5261 136.451C46.8578 136.552 45.6162 135.184 45.6007 133.879C45.5718 131.923 45.5892 129.962 45.5892 128.004Z" fill="#075066"/>
<path d="M56.9701 105.34C56.9701 103.476 56.9701 101.614 56.9701 99.7441C56.9701 98.3934 58.0514 97.0621 59.3432 96.7784C60.7585 96.4697 62.5909 98.1947 62.4461 99.6553C62.3978 100.142 62.5504 100.643 62.5543 101.139C62.5697 102.876 62.5543 104.622 62.5543 106.362C62.5543 107.796 63.0408 108.292 64.5141 108.276C65.5858 108.259 66.6149 108.276 67.4105 109.172C68.1693 110.042 68.401 111.012 67.9028 112.056C67.4394 113.021 66.669 113.669 65.5298 113.677C63.6336 113.695 61.7375 113.677 59.8433 113.677C58.1499 113.677 56.9836 112.519 56.972 110.818C56.9604 109 56.9701 107.169 56.9701 105.34Z" fill="#075066"/>
<path d="M116.627 164.972H111.136C109.836 164.972 108.751 164.2 108.39 163.06C108.089 162.095 108.39 160.655 109.564 159.961C109.937 159.737 110.359 159.611 110.794 159.592C113.111 159.556 115.428 159.579 117.73 159.573C118.971 159.573 119.63 158.871 119.674 157.618C119.699 156.897 119.715 156.148 119.913 155.461C120.207 154.438 121.618 153.643 122.632 153.794C123.918 153.987 125.048 155.145 125.059 156.339C125.079 158.361 125.079 160.383 125.059 162.405C125.046 163.756 123.793 164.962 122.41 164.97C120.481 164.983 118.554 164.972 116.627 164.972Z" fill="#075066"/>
<path d="M62.7566 56.8392C62.7566 56.0366 62.8222 55.2281 62.745 54.4331C62.5249 52.1409 64.1217 51.3285 65.8344 51.2494C67.132 51.1915 68.4392 51.3401 69.7407 51.4134C70.5613 51.4597 71.4032 51.4462 72.1987 51.6276C73.0966 51.8321 73.9635 53.0825 73.9269 53.9932C73.894 54.8132 73.2279 56.1678 72.2547 56.4225C71.5634 56.6154 70.8316 56.8431 70.1423 56.7852C68.7906 56.6714 67.97 57.4123 68.138 58.8421C68.2693 59.9477 68.0955 61.0147 67.1455 61.7711C66.7446 62.1086 66.2546 62.3229 65.7345 62.3883C65.2144 62.4537 64.6865 62.3673 64.2144 62.1396C63.303 61.7209 62.7025 60.9453 62.7431 59.8242C62.7856 58.8286 62.7566 57.8329 62.7566 56.8392Z" fill="#075066"/>
<path d="M85.1223 11.1249C84.3209 11.1249 83.5177 11.1249 82.7163 11.1249C80.9341 11.1095 79.8026 10.1602 79.7582 8.28083C79.6823 6.20995 79.7623 4.13629 79.9976 2.07741C80.0845 1.3905 80.8743 0.533803 81.5559 0.234726C83.2589 -0.537083 84.9774 0.686225 85.1358 2.56365C85.1918 3.22355 85.1203 3.9452 85.3713 4.52405C85.5837 5.01222 86.1244 5.4618 86.6264 5.68177C87.0531 5.87472 87.6401 5.76667 88.148 5.71265C89.7236 5.54671 91.5348 7.51096 90.7277 9.49451C90.3415 10.4438 88.9512 11.2311 87.8043 11.1925C86.9122 11.1558 86.0163 11.1925 85.1223 11.1925V11.1249Z" fill="#075066"/>
<path d="M76.8061 102.702C78.7968 102.702 80.7876 102.702 82.7783 102.702C84.0354 102.702 85.2171 103.808 85.2885 105.187C85.3522 106.331 84.1589 107.914 83.1085 107.908C82.0002 107.908 80.8919 107.889 79.7855 107.908C76.9702 107.96 74.153 108.087 71.3378 108.06C70.3105 108.051 69.3316 107.642 68.7503 106.627C68.117 105.523 68.312 104.437 69.0323 103.559C69.4184 103.094 70.2063 102.77 70.8319 102.737C72.8226 102.636 74.8153 102.702 76.8061 102.702Z" fill="#075066"/>
<path d="M142.314 102.702C143.242 102.702 144.187 102.804 145.1 102.679C146.809 102.444 147.882 103.929 147.929 105.537C147.981 107.318 147.855 109.104 147.828 110.889C147.805 112.452 146.622 113.691 145.125 113.691C143.629 113.691 142.435 112.431 142.422 110.86C142.422 110.507 142.422 110.154 142.422 109.803C142.406 108.624 141.705 107.921 140.528 107.908C139.435 107.893 138.305 108.101 137.438 107.096C136.834 106.389 136.529 105.041 137.052 104.087C137.492 103.267 138.133 102.621 139.234 102.689C140.257 102.75 141.286 102.702 142.314 102.702Z" fill="#075066"/>
<path d="M68.3602 11.2467C68.3602 10.1874 68.2578 9.12425 68.3853 8.07073C68.5571 6.63903 69.847 5.67041 71.2681 5.72829C72.6526 5.78425 73.8883 7.023 73.9308 8.52803C73.9868 10.3881 74.0119 12.2559 73.9308 14.114C73.8935 14.8331 73.5933 15.5136 73.0872 16.0261C72.581 16.5387 71.9041 16.8477 71.1851 16.8944C69.8064 16.989 68.4181 15.5438 68.364 14.0407C68.3312 13.1106 68.364 12.1768 68.364 11.2467H68.3602Z" fill="#075066"/>
<path d="M159.408 79.5996C160.719 79.7675 162.036 79.8948 163.337 80.1186C164.602 80.3347 164.83 81.4944 164.917 82.4341C165.004 83.3737 164.566 84.2266 163.643 84.8035C162.677 85.4113 161.613 85.2435 160.592 85.338C159.598 85.4461 158.595 85.4461 157.601 85.338C156.575 85.2087 155.44 85.338 154.637 84.3732C154.009 83.6285 153.596 82.8798 153.913 81.8745C154.314 80.5972 155.145 79.8408 156.5 79.7771C157.466 79.7327 158.431 79.7771 159.396 79.7771L159.408 79.5996Z" fill="#075066"/>
<path d="M51.1445 96.5311C50.0883 96.5311 49.0205 96.562 47.972 96.5311C46.4524 96.4751 45.8596 95.4911 45.6163 94.15C45.3923 92.9055 46.3481 91.4275 47.4912 91.3716C49.8932 91.2355 52.3011 91.2355 54.7031 91.3716C56.0779 91.4603 56.9082 92.8149 56.7769 94.1887C56.6552 95.4525 55.4368 96.5311 54.1277 96.533C53.1333 96.533 52.1389 96.5311 51.1445 96.5311Z" fill="#075066"/>
<path d="M17.0038 119.281C15.9785 119.281 14.9532 119.281 13.926 119.281C12.6767 119.271 11.773 118.509 11.4718 117.208C11.2266 116.151 11.7672 114.864 12.7655 114.416C13.3851 114.127 14.0528 113.955 14.735 113.909C16.3338 113.836 17.9403 113.909 19.541 113.876C20.7343 113.853 21.5878 114.403 22.2076 115.346C22.8776 116.369 22.6633 117.453 22.0145 118.324C21.6496 118.804 20.8984 119.157 20.2767 119.242C19.1973 119.389 18.0928 119.281 17.0038 119.281Z" fill="#075066"/>
<path d="M147.979 51.0336C147.048 51.0336 146.118 51.0046 145.189 51.0336C143.687 51.0914 142.563 49.8469 142.435 48.3535C142.321 47.0028 143.577 45.6772 145.036 45.6405C147.089 45.5904 149.141 45.6 151.194 45.6405C152.393 45.6656 153.617 47.0356 153.611 48.2415C153.611 49.6501 152.453 50.9544 151.153 51.0278H147.979V51.0336Z" fill="#075066"/>
<path d="M159.215 159.388C159.215 160.252 159.149 161.124 159.23 161.981C159.268 162.351 159.228 162.726 159.114 163.08C159.001 163.434 158.815 163.762 158.568 164.041C158.322 164.32 158.02 164.545 157.683 164.702C157.345 164.86 156.978 164.946 156.606 164.955C155.154 164.955 153.93 164.169 153.833 162.137C153.744 160.25 153.789 158.356 153.824 156.467C153.849 155.102 155.314 153.715 156.606 153.804C157.898 153.893 159.346 154.983 159.228 156.602C159.151 157.52 159.215 158.452 159.215 159.388Z" fill="#075066"/>
<path d="M107.895 22.6802C107.895 23.6103 107.839 24.5441 107.909 25.4684C108.013 26.8306 107.233 27.807 105.727 28.2199C104.804 28.4707 103.433 27.8166 102.912 26.7843C102.675 26.3424 102.539 25.8534 102.514 25.3526C102.493 23.5022 102.524 21.6518 102.585 19.8014C102.636 18.2269 103.893 16.9901 105.351 17.1174C106.808 17.2448 108.017 18.1304 107.905 19.8901C107.853 20.8163 107.895 21.7502 107.895 22.6802Z" fill="#075066"/>
<path d="M159.601 51.1225V48.3285C159.601 46.9779 160.206 46.1617 161.503 45.7546C162.581 45.415 163.969 45.8124 164.496 46.8293C164.842 47.495 164.911 48.3343 164.985 49.1061C165.036 49.9413 165.041 50.7787 165 51.6145C164.985 52.4635 164.957 53.3131 164.917 54.1634C164.851 55.6125 163.438 56.913 162.048 56.8184C160.735 56.7297 159.607 55.4388 159.603 54.0168C159.59 53.0481 159.601 52.0853 159.601 51.1225Z" fill="#075066"/>
<path d="M5.46709 116.746C5.45468 117.458 5.16588 118.138 4.66159 118.642C4.15729 119.146 3.4769 119.435 2.76383 119.447C1.37937 119.424 0.0953342 118.048 0.0721634 116.595C0.0431999 114.795 1.6497 113.906 2.90864 113.917C4.22359 113.934 5.41495 114.897 5.46709 116.746Z" fill="#075066"/>
<path d="M82.4096 22.5014C80.9827 22.5014 79.6948 21.1797 79.7353 19.7673C79.7712 19.0526 80.0792 18.3785 80.596 17.8832C81.1129 17.3878 81.7997 17.1086 82.5158 17.1026C83.8481 17.091 85.2596 18.3819 85.3175 19.667C85.389 21.2337 84.0779 22.5014 82.4096 22.5014Z" fill="#075066"/>
<path d="M136.444 156.611C136.507 158.26 135.036 159.285 133.74 159.345C132.582 159.401 130.931 157.946 131.037 156.553C131.166 154.774 132.288 153.923 133.829 153.811C135.214 153.709 136.448 155.102 136.444 156.611Z" fill="#075066"/>
<path d="M51.376 71.2081C51.376 69.6876 52.5577 68.3871 53.9595 68.3775C54.3234 68.3703 54.685 68.435 55.0238 68.5679C55.3625 68.7008 55.6716 68.8993 55.9334 69.1519C56.1951 69.4046 56.4044 69.7064 56.5491 70.04C56.6938 70.3737 56.7712 70.7326 56.7767 71.0962C56.7583 71.7934 56.4757 72.4576 55.9861 72.9547C55.4965 73.4518 54.8364 73.7448 54.1391 73.7744C52.4727 73.8014 51.3818 72.7864 51.376 71.2081Z" fill="#075066"/>
<path d="M62.3725 36.9636C62.3725 38.4204 61.1213 39.6283 59.6693 39.665C58.0743 39.7074 57.0606 38.1522 56.9988 36.9772C56.9313 35.7288 58.1188 34.1813 59.6789 34.243C61.3685 34.3125 62.3725 35.2618 62.3725 36.9636Z" fill="#075066"/>
<path d="M50.99 145.172C50.99 146.741 49.9569 147.81 48.4199 147.814C46.8829 147.818 45.5757 146.635 45.5969 145.244C45.622 143.609 46.7671 142.473 48.3002 142.444C49.6866 142.417 51.0614 143.443 50.99 145.172Z" fill="#075066"/>
<path d="M136.83 162.229C136.83 160.556 137.865 159.561 139.578 159.574C140.887 159.584 142.298 160.844 142.208 162.069C142.098 163.572 141.204 165.019 139.371 164.977C137.958 164.944 136.826 163.744 136.83 162.229Z" fill="#075066"/>
<path d="M2.88747 102.703C4.43219 102.703 5.46715 103.743 5.46715 105.307C5.46715 106.872 4.41481 107.908 2.76389 107.906C1.15738 107.906 0.0799403 106.886 0.0606313 105.386C0.0490459 103.791 1.23076 102.512 2.88747 102.703Z" fill="#075066"/>
<path d="M39.9957 65.3714C40.0208 63.519 41.2739 62.807 42.6642 62.6276C43.8787 62.4713 45.4003 64.1094 45.3964 65.4022C45.3926 66.695 43.954 68.2386 42.6932 68.1788C41.2759 68.1094 39.874 66.9632 39.9957 65.3714Z" fill="#075066"/>
<path d="M65.3345 17.1027C66.0516 17.094 66.7447 17.3611 67.2702 17.8489C67.7957 18.3367 68.1134 19.0077 68.1574 19.7231C68.2134 21.122 66.8657 22.6347 65.4291 22.5787C64.1508 22.5286 62.7895 21.5908 62.7567 20.0704C62.7219 18.355 63.7801 17.1336 65.3345 17.1027Z" fill="#075066"/>
<path d="M39.6091 93.84C39.8311 95.2369 38.3772 96.6802 36.8865 96.5548C35.5349 96.4429 34.1833 95.2659 34.2084 94.0001C34.2016 93.2505 34.4918 92.5285 35.0155 91.9918C35.5393 91.455 36.2542 91.147 37.0043 91.1348C38.3501 91.1348 39.611 92.443 39.6091 93.84Z" fill="#075066"/>
<path d="M65.3732 0.136802C67.1477 -0.0291374 68.1112 1.33117 68.1421 2.87672C68.1672 4.12898 66.8291 5.5626 65.6532 5.497C63.9154 5.40052 62.7125 4.38174 62.7453 2.70885C62.7839 1.16716 63.815 0.136802 65.3732 0.136802Z" fill="#075066"/>
<path d="M50.9899 76.723C51.1135 78.2667 50.0244 79.4495 48.3252 79.5093C46.7091 79.5691 45.5467 78.1027 45.5834 76.8678C45.6258 75.4341 46.6801 74.1163 48.333 74.1664C49.9124 74.1973 50.9841 75.1891 50.9899 76.723Z" fill="#075066"/>
<path d="M93.8772 39.6586C92.039 39.4502 91.2918 38.5009 91.1547 36.7797C91.0523 35.4735 92.4638 34.2559 93.9197 34.2598C95.3003 34.2598 96.762 35.5718 96.6983 36.745C96.6114 38.2732 95.2559 39.674 93.8772 39.6586Z" fill="#075066"/>
<path d="M88.3199 159.581C89.7005 159.581 90.9247 160.858 90.9209 162.294C90.9012 162.996 90.615 163.663 90.1204 164.161C89.6258 164.66 88.96 164.951 88.2582 164.976C87.0089 164.988 85.4429 163.853 85.5047 162.294C85.5269 161.564 85.8337 160.872 86.3597 160.365C86.8857 159.858 87.5892 159.577 88.3199 159.581Z" fill="#075066"/>
<path d="M39.6091 59.7492C39.6125 60.1013 39.5453 60.4505 39.4113 60.7761C39.2774 61.1018 39.0794 61.3973 38.8292 61.6452C38.579 61.893 38.2815 62.0883 37.9545 62.2193C37.6275 62.3503 37.2775 62.4145 36.9252 62.4081C35.4423 62.4177 34.1717 61.0941 34.2103 59.5775C34.2432 58.2422 35.5233 57.0151 36.8885 57.0112C37.2492 57.0046 37.6076 57.071 37.9419 57.2065C38.2763 57.342 38.5797 57.5437 38.834 57.7996C39.0882 58.0554 39.2879 58.3601 39.4211 58.6951C39.5544 59.0302 39.6183 59.3888 39.6091 59.7492Z" fill="#075066"/>
<path d="M110.998 79.3741C109.382 79.3741 108.295 78.3958 108.295 76.9023C108.283 76.5438 108.344 76.1865 108.474 75.8522C108.604 75.5178 108.801 75.2134 109.053 74.9574C109.304 74.7013 109.605 74.4991 109.937 74.3627C110.269 74.2264 110.626 74.1589 110.985 74.1644C112.699 74.2223 113.603 75.0886 113.678 76.8657C113.73 78.3572 112.591 79.3741 110.998 79.3741Z" fill="#075066"/>
<path d="M130.85 128.034C130.868 129.364 129.421 130.794 128.004 130.846C126.873 130.886 125.26 129.346 125.262 128.225C125.262 126.772 126.695 125.256 128.058 125.263C129.348 125.269 130.831 126.743 130.85 128.034Z" fill="#075066"/>
<path d="M20.7057 153.684C18.9235 153.589 17.122 153.618 15.361 153.369C13.6869 153.13 11.7888 151.606 11.6923 149.466C11.5262 146.002 11.5532 142.519 11.6923 139.058C11.7695 137.115 13.9669 135.332 15.9209 135.282C18.4118 135.218 20.9027 135.131 23.3955 135.102C24.285 135.068 25.1756 135.138 26.0485 135.313C28.0335 135.772 29.6072 137.279 29.7481 139.425C29.9412 142.386 30.1053 145.375 29.9238 148.331C29.7153 151.708 27.9929 153.388 24.3802 153.587C23.1637 153.655 21.9395 153.587 20.7115 153.587L20.7057 153.684Z" fill="#075066"/>
<path d="M144.469 29.9168C142.684 29.8223 140.881 29.8609 139.122 29.6004C136.805 29.2589 135.453 27.5763 135.308 25.4345C135.152 22.9474 135.067 20.4467 135.133 17.9576C135.17 16.6498 135.422 15.357 135.88 14.1314C136.625 12.1613 138.411 11.5767 140.321 11.5284C143.217 11.4551 146.114 11.405 148.997 11.5439C151.229 11.65 153.245 13.3325 153.386 15.7252C153.559 18.4998 153.606 21.288 153.579 24.0684C153.563 25.3014 153.418 26.5479 152.629 27.6612C151.599 29.1161 150.184 29.7103 148.52 29.8087C147.168 29.8879 145.816 29.8242 144.465 29.8242L144.469 29.9168Z" fill="#075066"/>
<path d="M20.7384 11.4209C22.5515 11.5154 24.3859 11.4769 26.1739 11.7431C28.182 12.0441 29.692 13.9235 29.7654 15.9379C29.86 18.62 29.9971 21.3058 29.9218 23.984C29.8745 25.2055 29.574 26.404 29.0393 27.5035C28.2168 29.1841 26.589 29.7784 24.7914 29.8189C23.1771 29.8575 21.561 29.8517 19.9467 29.8189C18.3325 29.7861 16.753 29.7321 15.16 29.6259C13.567 29.5198 11.7173 27.3838 11.6555 25.6222C11.5551 22.7819 11.4276 19.9359 11.4759 17.0956C11.5319 13.7421 13.4493 11.4363 17.0755 11.5C18.2958 11.5251 19.5161 11.5 20.7442 11.5L20.7384 11.4209Z" fill="#075066"/>
</svg>
