<svg width="121" height="100" viewBox="0 0 121 100" fill="none" xmlns="http://www.w3.org/2000/svg">
<path d="M52.9677 48.5735C52.7448 48.4023 52.4891 48.2789 52.2164 48.211C51.9716 48.145 51.7187 48.114 51.4652 48.119C51.1864 48.1195 50.9097 48.0732 50.6463 47.9819C50.3064 47.8682 49.9887 47.6967 49.7073 47.4748C49.4723 47.2986 49.2723 47.0802 49.1175 46.8306C48.9843 46.6227 48.8831 46.3961 48.817 46.1582C48.7658 45.9515 48.7356 45.7401 48.7269 45.5272C48.7146 45.3822 48.7146 45.2365 48.7269 45.0915C48.7387 45.035 48.7474 44.9779 48.7532 44.9205L49.6922 44.9638L49.649 45.2567C49.6209 45.503 49.6532 45.7525 49.7429 45.9836C49.8399 46.2805 50.027 46.5398 50.2782 46.7254C50.5001 46.8981 50.7562 47.0216 51.0295 47.0879C51.2751 47.149 51.5276 47.1787 51.7807 47.1762C52.059 47.1788 52.335 47.2271 52.5977 47.3189C52.9378 47.4311 53.2557 47.6021 53.5367 47.8242C53.7713 48.0015 53.9712 48.2205 54.1265 48.4702C54.2603 48.6789 54.3628 48.9061 54.4307 49.1445C54.483 49.3498 54.5138 49.56 54.5228 49.7717C54.5328 49.9164 54.529 50.0617 54.5115 50.2056C54.4983 50.2625 54.4889 50.3202 54.4833 50.3784L53.5537 50.3295L53.6006 50.0497C53.6239 49.8004 53.5892 49.549 53.4992 49.3154C53.4039 49.015 53.2167 48.7522 52.9639 48.5641M51.2079 50.8573C50.9345 50.6497 50.61 50.5199 50.2688 50.4817C49.9176 50.4422 49.5382 50.384 49.1325 50.3108C48.7009 50.228 48.296 50.041 47.9531 49.7661C47.7181 49.5892 47.5181 49.3701 47.3634 49.12C47.2302 48.9122 47.1289 48.6855 47.0628 48.4477C47.0113 48.241 46.9817 48.0295 46.9746 47.8166C46.9616 47.6717 46.9616 47.5258 46.9746 47.3809C46.9865 47.3245 46.9953 47.2674 47.0009 47.21L47.9399 47.2532L47.8967 47.5462C47.8608 47.7945 47.8913 48.0478 47.985 48.2805C48.0872 48.5747 48.2757 48.8313 48.5259 49.0167C48.8011 49.2302 49.13 49.3635 49.4763 49.4018C49.8268 49.4431 50.2025 49.4994 50.6031 49.5708C51.034 49.6532 51.4382 49.8396 51.7807 50.1136C52.0157 50.2904 52.2157 50.5095 52.3704 50.7596C52.5039 50.9685 52.6064 51.1956 52.6747 51.4339C52.727 51.6393 52.7578 51.8494 52.7667 52.0612C52.7768 52.2058 52.7731 52.3511 52.7555 52.495C52.7415 52.5518 52.732 52.6095 52.7273 52.6678L51.7882 52.6265L51.8408 52.3391C51.871 52.0883 51.8381 51.834 51.745 51.5992C51.6433 51.3047 51.4547 51.048 51.2041 50.8629" fill="#F4A276"/>
<path d="M97.9301 78.327L95.0641 74.0186L96.7863 72.871L110.566 68.217L112.728 71.4681L101.029 79.251L101.39 79.7919L99.6674 80.9376L99.3067 80.3967L96.1139 82.5265L94.7373 80.4606L97.9301 78.327ZM109.103 70.8258L98.0653 74.7924L99.6542 77.1813L109.135 70.8746L109.103 70.8258Z" fill="white"/>
<path d="M93.1655 86.0875L97.3218 89.1807L96.0841 90.8429L84.6727 99.8767L81.5381 97.544L89.9352 86.2659L89.4112 85.8771L90.6489 84.215L91.171 84.6037L93.4698 81.5161L95.4644 83.0017L93.1655 86.0875ZM85.1722 96.928L94.2323 89.4643L91.9298 87.7496L85.1234 96.8923L85.1722 96.928Z" fill="white"/>
<path d="M89.0654 63.1965L90.012 64.8211L101.668 64.0004L102.969 63.2416L99.0608 56.5386L97.5658 57.41L100.469 62.3946L89.0654 63.1965Z" fill="white"/>
<path d="M30.9298 34.3892L27.3633 31.3298L34.6429 3.0377L37.0976 0.179199L51.8202 12.8152L48.9974 16.1019L38.0517 6.70756L30.9298 34.3892Z" fill="white"/>
<path d="M74.3015 11.1123C69.0502 12.4978 63.9834 14.5059 59.2089 17.0941C54.4682 19.659 50.0376 22.7594 46.0038 26.3345C41.9759 29.9054 38.7768 33.323 36.4066 36.5872C34.0364 39.8514 31.9949 42.919 30.2821 45.79C28.5692 48.661 27.376 50.9724 26.7023 52.724L25.782 55.3027L21.3516 52.8311C21.6082 52.1362 21.9839 51.1884 22.4784 49.9876C22.973 48.7869 24.2057 46.4749 26.1765 43.0517C28.1579 39.607 30.3809 36.307 32.8288 33.1765C35.2954 30.0163 38.6704 26.5223 42.9537 22.6947C47.2091 18.8875 51.8941 15.5897 56.9138 12.8684C61.8955 10.163 67.1646 8.02429 72.6225 6.49213C78.0728 4.96333 82.9133 4.06306 87.1441 3.79136C91.3749 3.51966 95.2563 3.43768 98.7885 3.54536C102.313 3.65429 105.024 3.8878 106.923 4.2459L109.821 4.87504L109.473 9.93662C108.812 9.74005 107.873 9.52528 106.656 9.29239C105.439 9.05951 102.945 8.80909 99.1735 8.54114C95.4104 8.26849 91.6322 8.28046 87.8709 8.57686C84.1109 8.8686 79.5878 9.71375 74.3015 11.1123Z" fill="white"/>
<path d="M77.8699 47.4403C79.0375 48.4034 80.3162 49.2231 81.6787 49.8819C83.0305 50.5356 84.4528 51.0321 85.9177 51.3618C87.1895 51.6659 88.4904 51.8321 89.7979 51.8577C90.9247 51.8577 91.9502 51.8195 92.8742 51.7431C93.5985 51.6938 94.3176 51.5864 95.0247 51.4219L95.7572 51.2097L95.9206 52.6127C95.7215 52.669 95.4454 52.7366 95.0923 52.8211C94.3746 52.9557 93.6506 53.0541 92.9231 53.116C91.822 53.2292 90.7142 53.2644 89.6082 53.2212C88.2546 53.1465 86.9103 52.9523 85.5909 52.6408C84.038 52.3001 82.5302 51.7788 81.0984 51.0876C79.6751 50.4038 78.3332 49.5622 77.098 48.5785C76.0102 47.7367 75.0126 46.7844 74.1212 45.7369C73.3699 44.8253 72.7201 43.9626 72.1717 43.1488C71.7356 42.5275 71.3451 41.8753 71.0035 41.1974L70.6748 40.4462L71.875 39.6949C71.9369 39.8828 72.0421 40.1231 72.1867 40.4349C72.3313 40.7467 72.6825 41.3514 73.2347 42.2492C73.787 43.143 74.4053 43.9943 75.0846 44.7959C75.9334 45.7577 76.8655 46.6426 77.8699 47.4403Z" fill="white"/>
<path d="M73.3627 64.9147C75.807 64.7524 78.2232 64.2984 80.5597 63.5624C82.8785 62.834 85.106 61.8422 87.1988 60.6063C89.2898 59.3705 91.0002 58.1316 92.3299 56.8895C93.6596 55.6474 94.8265 54.4648 95.8307 53.3417C96.6299 52.4798 97.3597 51.5561 98.0131 50.579L98.6404 49.516L100.391 50.9903C100.217 51.2758 99.9663 51.6633 99.6395 52.1528C98.9418 53.1075 98.1966 54.0265 97.4065 54.9062C96.2327 56.2609 94.965 57.5311 93.6127 58.7075C92.2491 59.8945 90.4543 61.1516 88.228 62.4788C86.0173 63.799 83.6599 64.8567 81.2039 65.6303C78.7626 66.4005 76.2427 66.895 73.6914 67.1046C71.1472 67.3125 68.9266 67.2949 67.0297 67.052C65.1328 66.8091 63.4087 66.5124 61.8573 66.1618C60.6538 65.9117 59.4699 65.5746 58.3152 65.1533L57.0869 64.6255L57.6766 62.4149C57.9508 62.5577 58.349 62.7342 58.8674 62.9408C59.3857 63.1474 60.4675 63.4742 62.1147 63.9193C63.7574 64.3629 65.4311 64.6825 67.1217 64.8753C68.822 65.0669 70.9024 65.08 73.3627 64.9147Z" fill="white"/>
<path d="M72.4756 23.8809L68.9541 24.6021L69.7054 22.7127L74.3011 21.7962L74.6411 21.7192C74.9423 21.6563 75.2508 21.6361 75.5576 21.6591C75.9346 21.671 76.3068 21.7472 76.6582 21.8844C77.058 22.0354 77.4213 22.2695 77.724 22.5713C78.0267 22.873 78.2619 23.2355 78.4142 23.6349C78.5806 24.0585 78.6618 24.5108 78.6531 24.9659C78.6444 25.4209 78.546 25.8698 78.3635 26.2867C78.2111 26.7157 77.9756 27.1104 77.6704 27.4481C77.3652 27.7859 76.9963 28.0601 76.5849 28.255C76.2008 28.4433 75.781 28.5473 75.3535 28.5603C74.9259 28.5733 74.5006 28.4948 74.1058 28.3302C73.7169 28.1766 73.3631 27.946 73.0656 27.6523C72.768 27.3586 72.5328 27.0079 72.3742 26.6211C72.1945 26.2509 72.0932 25.8477 72.0768 25.4366C72.0603 25.0255 72.1289 24.6154 72.2784 24.2321C72.3225 24.1041 72.3893 23.9852 72.4756 23.8809ZM76.7708 25.652C76.8535 25.4623 76.8971 25.258 76.899 25.0512C76.9009 24.8443 76.8612 24.6392 76.7821 24.4481C76.7077 24.2631 76.5953 24.0956 76.4524 23.9566C76.3094 23.8175 76.139 23.7098 75.952 23.6405C75.7675 23.563 75.5689 23.5247 75.3687 23.5279C75.1686 23.5311 74.9714 23.5758 74.7894 23.6593C74.601 23.7445 74.4316 23.8668 74.2913 24.0187C74.1509 24.1707 74.0425 24.3492 73.9724 24.5438C73.8896 24.7338 73.8461 24.9386 73.8445 25.1458C73.8429 25.353 73.8832 25.5584 73.963 25.7496C74.0382 25.9348 74.1512 26.1023 74.2948 26.2414C74.4384 26.3805 74.6094 26.488 74.7969 26.5572C74.9807 26.6352 75.1787 26.6738 75.3783 26.6705C75.5779 26.6673 75.7746 26.6223 75.9558 26.5384C76.144 26.4526 76.3131 26.33 76.4531 26.1777C76.5931 26.0254 76.7011 25.8467 76.7708 25.652Z" fill="white"/>
<path d="M17.128 75.828C18.2913 75.7598 19.4443 75.571 20.5687 75.2646C21.6872 74.9573 22.7719 74.5383 23.8065 74.0138C24.7415 73.5568 25.6319 73.0135 26.466 72.3911C27.1797 71.8426 27.8182 71.3199 28.3817 70.8229C28.8251 70.4425 29.2406 70.0307 29.625 69.5908L30.0269 69.1194L32.213 71.3055C32.1154 71.4533 31.9708 71.6505 31.7792 71.8971C31.5876 72.1438 31.1582 72.6102 30.4908 73.2963C29.8231 73.9822 29.1076 74.6199 28.3498 75.2045C27.4013 75.9086 26.3962 76.5331 25.3448 77.0714C24.1161 77.7226 22.8192 78.2359 21.4777 78.602C20.144 78.9676 18.7754 79.1904 17.3946 79.2669C16.1957 79.3478 14.9918 79.3113 13.7999 79.1579C12.8727 79.0269 11.953 78.847 11.0447 78.6189C10.4093 78.4688 9.78549 78.2736 9.17785 78.0348L8.52051 77.7606L9.41826 74.7331L10.0211 74.951C10.2878 75.0468 10.8269 75.1857 11.6363 75.3717C12.4467 75.5574 13.2668 75.6973 14.0929 75.7905C15.1017 75.8877 16.117 75.9003 17.128 75.828Z" fill="white"/>
<path d="M5.07185 73.024L8.82809 74.6598L6.16305 76.538L2.4068 74.904L0.416016 72.0755L22.6192 56.4458L24.61 59.2743L5.07185 73.024Z" fill="white"/>
<path d="M78.5406 19.5005L77.7743 18.0844L79.0533 18.1482L79.8214 19.5643L79.7538 20.9222L69.0898 20.3869L69.1575 19.0291L78.5406 19.5005Z" fill="white"/>
<path d="M92.4253 79.5974L92.5567 79.3739C92.6336 79.2508 92.6837 79.113 92.7038 78.9693C92.7238 78.8256 92.7134 78.6793 92.6732 78.5399C92.6262 78.3892 92.5498 78.2493 92.4486 78.1281C92.3474 78.007 92.2233 77.9069 92.0834 77.8338L78.052 69.5701C77.922 69.4832 77.7758 69.4235 77.6221 69.3948C77.4685 69.366 77.3106 69.3688 77.158 69.4029C77.0187 69.4389 76.8882 69.503 76.7746 69.5911C76.6609 69.6793 76.5664 69.7897 76.4969 69.9156L76.3654 70.1372L74.8047 69.2188L74.9343 68.9954C75.4264 68.164 76.0599 67.6156 76.835 67.3501C77.61 67.0847 78.3925 67.1848 79.1826 67.6506L93.2141 75.9143C93.577 76.108 93.892 76.3804 94.136 76.7115C94.3801 77.0427 94.547 77.4242 94.6245 77.8282C94.7773 78.6395 94.6089 79.4615 94.1193 80.2941L93.9879 80.5157L92.4253 79.5974Z" fill="white"/>
<path d="M81.7293 47.5378L81.2204 44.6775L76.2377 45.5639L76.0029 44.2398L82.1707 43.1411L82.9219 47.3256L81.7293 47.5378Z" fill="white"/>
<path d="M76.2881 43.6322L76.521 41.5325L72.8643 41.1287L72.9713 40.1577L77.4995 40.6573L77.1595 43.7299L76.2881 43.6322Z" fill="white"/>
<path d="M88.4045 49.7582L87.1574 47.1288L82.5861 49.2999L82.002 48.0904L87.6607 45.4028L89.4863 49.2436L88.4045 49.7582Z" fill="white"/>
<path d="M111.231 5.57056L120.136 9.45074L114.417 22.5751L111.6 21.3468L116.218 10.7485L110.131 8.09662L111.231 5.57056Z" fill="white"/>
<path d="M95.3608 51.505L94.1137 48.8757L89.5443 51.0468L88.9658 49.8316L94.6265 47.144L96.4501 50.9829L95.3608 51.505Z" fill="white"/>
<path d="M101.29 50.1984L100.252 48.0142L96.4466 49.8209L95.9658 48.8105L100.678 46.5718L102.196 49.7646L101.29 50.1984Z" fill="white"/>
<path d="M101.867 46.6392L101.286 45.4185L99.1602 46.4289L98.8916 45.8654L101.521 44.6146L102.37 46.4007L101.867 46.6392Z" fill="white"/>
<path d="M98.7417 45.5318L98.1482 44.2829L95.9715 45.3159L95.6973 44.7374L98.3924 43.4565L99.2601 45.2858L98.7417 45.5318Z" fill="white"/>
<path d="M95.8412 44.3629L95.2478 43.114L93.071 44.1469L92.7949 43.5684L95.49 42.2876L96.3596 44.1169L95.8412 44.3629Z" fill="white"/>
<path d="M93.083 43.0807L92.6773 42.228L91.1917 42.9342L91.0039 42.5379L92.8426 41.6646L93.4361 42.9135L93.083 43.0807Z" fill="white"/>
<path d="M57.2258 87.4563L56.8633 85.4467L92.0199 79.0874L92.4725 81.5872L61.8591 87.1258C62.0845 87.251 62.3756 87.4388 62.7324 87.6892C63.0893 87.9396 63.6321 88.6057 64.3608 89.6875C65.1052 90.8165 65.6066 92.088 65.8332 93.4213L63.8217 93.7856C63.5588 92.3623 62.8443 91.0616 61.784 90.0763C60.6797 89.0108 59.6504 88.3109 58.6963 87.9766L57.2258 87.4563Z" fill="white"/>
<path d="M54.0799 87.7055C53.3549 87.822 52.5292 88.1901 51.6026 88.8099C50.7192 89.3787 50.0418 90.2161 49.6701 91.1988L48.2784 90.6824C48.6111 89.7578 49.1331 88.9128 49.8109 88.2014C50.4708 87.519 50.944 87.1127 51.2308 86.9825C51.5181 86.851 51.7492 86.7533 51.9276 86.6914L30.7461 78.8032L31.3884 77.0735L55.7101 86.1279L55.1917 87.5177L54.0799 87.7055Z" fill="white"/>
<path d="M111.19 24.1534L110.668 24.3318L108.628 22.2415L109.379 21.9842L110.591 23.2538L110.778 21.509L111.53 21.2517L111.19 24.1534Z" fill="white"/>
<path d="M109.422 26.2184L109.028 26.4269L107.125 25.0108L107.698 24.7084L108.825 25.5742L108.75 24.1506L109.313 23.8501L109.422 26.2184Z" fill="white"/>
<path d="M108.008 28.5142L107.614 28.7227L105.713 27.3066L106.276 27.0042L107.403 27.87L107.33 26.4464L107.893 26.1459L108.008 28.5142Z" fill="white"/>
<path d="M105.925 30.6522L105.529 30.8606L103.628 29.4445L104.191 29.1422L105.318 30.0061L105.243 28.5843L105.807 28.282L105.925 30.6522Z" fill="white"/>
<path d="M103.801 33.0173L103.406 33.2258L101.506 31.8096L102.069 31.5072L103.196 32.3731L103.123 30.9494L103.686 30.6489L103.801 33.0173Z" fill="white"/>
<path d="M101.742 34.9761L101.348 35.1846L99.4453 33.7666L100.009 33.4661L101.136 34.3301L101.061 32.9083L101.624 32.606L101.742 34.9761Z" fill="white"/>
<path d="M99.6563 36.8212L99.26 37.0297L97.3594 35.6136L97.9228 35.3112L99.0497 36.1752L98.9746 34.7534L99.5474 34.4529L99.6563 36.8212Z" fill="white"/>
<path d="M97.4532 38.9968L97.0569 39.2071L95.1562 37.7891L95.7197 37.4886L96.8466 38.3525L96.7714 36.9308L97.3348 36.6284L97.4532 38.9968Z" fill="white"/>
<path d="M95.3809 40.9957L94.9846 41.2041L93.084 39.788L93.6474 39.4856L94.7743 40.3496L94.6992 38.9278L95.2626 38.6255L95.3809 40.9957Z" fill="white"/>
<path d="M108.295 22.479L107.469 22.6029L104.98 18.935L106.175 18.7471L107.644 20.969L108.385 18.411L109.58 18.2231L108.295 22.479Z" fill="white"/>
<path d="M103.368 24.2681L102.541 24.394L100.055 20.726L101.249 20.5382L102.718 22.76L103.458 20.202L104.652 20.0142L103.368 24.2681Z" fill="white"/>
<path d="M98.4712 25.9595L97.6448 26.0854L95.1582 22.4155L96.3527 22.2277L97.8195 24.4495L98.5707 21.8934L99.7652 21.7056L98.4712 25.9595Z" fill="white"/>
<path d="M94.0445 28.1519L93.2181 28.2777L90.7314 24.6098L91.926 24.422L93.3927 26.6419L94.1346 24.0858L95.3291 23.8979L94.0445 28.1519Z" fill="white"/>
<path d="M89.0874 30.3128L88.261 30.4386L85.7744 26.7707L86.9689 26.5828L88.4357 28.8028L89.1776 26.2467L90.3721 26.0588L89.0874 30.3128Z" fill="white"/>
<path d="M84.6871 33.2281L83.825 33.3596L81.2275 29.5282L82.4746 29.3403L84.0072 31.6598L84.781 28.991L86.028 28.8032L84.6871 33.2281Z" fill="white"/>
<path d="M79.9362 36.8739L79.061 37.0072L76.4316 33.1158L77.6994 32.9279L79.2563 35.2831L80.0414 32.5711L81.3091 32.3833L79.9362 36.8739Z" fill="white"/>
<path d="M75.6537 39.6382L74.9362 39.749L72.7764 36.5562L73.8131 36.4003L75.0883 38.3273L75.7326 36.1073L76.7693 35.9496L75.6537 39.6382Z" fill="white"/>
</svg>
