<svg width="99" height="116" viewBox="0 0 99 116" fill="none" xmlns="http://www.w3.org/2000/svg">
<path d="M95.3318 74.2356L94.8289 76.9198L96.2768 77.1921L97.1448 72.5635L96.3489 72.4146L84.8046 72.5571L84.457 74.4117L95.3318 74.2356Z" fill="white"/>
<path d="M92.6159 80.5976L91.5525 83.1137L92.9106 83.6871L94.7428 79.3516L93.9981 79.036L82.6892 76.7153L81.9541 78.4531L92.6159 80.5976Z" fill="white"/>
<path d="M88.4828 87.0936L87.0782 89.4367L88.3419 90.1943L90.7619 86.1551L90.0684 85.7403L79.1936 81.8628L78.2246 83.4804L88.4828 87.0936Z" fill="white"/>
<path d="M82.4924 93.0251L80.5785 94.9726L81.6292 96.0056L84.9285 92.6487L84.3519 92.0817L74.6911 85.7603L73.3682 87.1072L82.4924 93.0251Z" fill="white"/>
<path d="M75.6809 98.2115L73.4723 99.8163L74.3372 101.009L78.1474 98.2419L77.6717 97.5885L69.1865 89.7583L67.6602 90.8666L75.6809 98.2115Z" fill="white"/>
<path d="M68.1793 102.54L65.7401 103.77L66.4031 105.085L70.6073 102.967L70.2438 102.245L63.1279 93.1528L61.4414 94.0017L68.1793 102.54Z" fill="white"/>
<path d="M60.3874 105.148L58.3742 105.436L58.5295 106.522L62.0002 106.025L61.9153 105.43L59.0533 97.3208L57.6631 97.5194L60.3874 105.148Z" fill="white"/>
<path d="M61.8234 70.4172L69.5703 69.0638C69.8275 69.0087 70.0939 69.0133 70.349 69.0771C70.6041 69.141 70.8413 69.2625 71.0422 69.4322C71.469 69.8078 71.7459 70.3247 71.8221 70.888C71.9419 71.4437 71.8566 72.024 71.5819 72.5217C71.4503 72.7495 71.2683 72.9442 71.0498 73.0907C70.8313 73.2373 70.5822 73.3319 70.3215 73.3673L62.5729 74.719C62.3146 74.7739 62.0472 74.7695 61.7908 74.7059C61.5344 74.6424 61.2959 74.5215 61.0931 74.3523C60.6618 73.9801 60.382 73.4627 60.3067 72.898C60.186 72.3417 60.2738 71.7604 60.5534 71.2644C60.6869 71.0361 60.8706 70.8411 61.0906 70.6943C61.3107 70.5475 61.5613 70.4527 61.8234 70.4172ZM62.283 73.0534L70.03 71.7017C70.127 71.6931 70.2198 71.6579 70.298 71.6C70.3763 71.5421 70.4371 71.4636 70.4736 71.3733C70.5082 71.2915 70.5185 71.2014 70.5031 71.1139C70.4878 71.0264 70.4475 70.9452 70.3871 70.88C70.3226 70.8069 70.2389 70.7532 70.1456 70.7249C70.0522 70.6966 69.9529 70.6949 69.8586 70.7199L62.1101 72.0716C62.0109 72.0797 61.9159 72.1147 61.8351 72.1728C61.7544 72.231 61.6911 72.31 61.652 72.4015C61.6172 72.4833 61.6068 72.5735 61.6222 72.661C61.6375 72.7486 61.678 72.8298 61.7385 72.8948C61.8052 72.9698 61.8916 73.0245 61.9879 73.0528C62.0841 73.0811 62.1864 73.0819 62.283 73.055" fill="white"/>
<path d="M5.8449 58.8919C6.13028 62.6915 6.85144 66.4457 7.99422 70.0806C9.12824 73.6871 10.649 77.1603 12.5299 80.4398C14.4166 83.7316 16.314 86.4356 18.222 88.5518C20.13 90.668 21.9393 92.5318 23.6498 94.143C25.3582 95.7445 26.751 96.8876 27.8284 97.572L29.43 98.6755L26.1307 102.149C25.5103 101.807 24.9079 101.432 24.3257 101.028C23.5612 100.511 22.1315 99.3343 20.0366 97.4967C17.9323 95.6478 15.9612 93.6526 14.1379 91.526C12.2993 89.3841 10.3352 86.5108 8.24568 82.9062C6.16735 79.3247 4.491 75.5245 3.24712 71.5749C2.01161 67.6592 1.19451 63.6237 0.809498 59.5358C0.429386 55.457 0.429386 51.9207 0.809498 48.9268C1.18961 45.9329 1.63911 43.2289 2.15803 40.8147C2.68015 38.4006 3.19638 36.5508 3.70675 35.2652L4.49476 33.4058L9.189 34.3667C9.00802 34.7911 8.76782 35.4158 8.46352 36.239C8.15921 37.0622 7.69154 38.7727 7.05411 41.3529C6.41594 43.9222 5.98001 46.5376 5.75039 49.175C5.51976 51.8113 5.55234 55.0513 5.8481 58.8951" fill="white"/>
<path d="M42.6747 108.021C44.7594 106.817 46.6993 105.378 48.4565 103.732C50.1991 102.098 51.7601 100.28 53.1123 98.3105C54.4694 96.3341 55.4891 94.5132 56.1714 92.8475C56.8536 91.1818 57.4195 89.6411 57.8691 88.2253C58.3143 86.8127 58.5812 85.706 58.6699 84.9052L58.8588 83.6912L61.7417 84.6185C61.7289 84.9388 61.6825 85.3761 61.5976 85.9526C61.5127 86.5292 61.2324 87.6679 60.7615 89.364C60.2846 91.0684 59.6885 92.7371 58.9773 94.3578C58.263 95.9914 57.1654 97.8973 55.6845 100.075C54.2141 102.24 52.5093 104.235 50.601 106.025C48.71 107.802 46.6361 109.372 44.4141 110.712C42.1964 112.045 40.1832 113.015 38.3745 113.62C36.5657 114.226 34.9027 114.71 33.3855 115.074C31.8683 115.44 30.6735 115.653 29.8012 115.715L28.5199 115.776L27.7783 112.84C28.0682 112.827 28.4895 112.792 29.0436 112.741C29.5978 112.69 30.6964 112.486 32.3413 112.142C33.9769 111.801 35.5834 111.332 37.146 110.74C38.7092 110.151 40.5452 109.243 42.6539 108.018" fill="white"/>
<path d="M35.8126 93.5972L35.4058 93.996C35.2527 94.1173 35.0867 94.2215 34.9109 94.3067C34.6442 94.4449 34.3626 94.5524 34.0716 94.627C33.6958 94.716 33.308 94.7436 32.9233 94.7087C32.4258 94.6686 31.9385 94.5452 31.4819 94.3435L31.0991 94.1833L30.2566 96.0172L33.3365 97.4314L27.2393 110.712L29.8018 111.887L37.7809 94.5069L35.8126 93.5972Z" fill="white"/>
<path d="M92.7021 66.5588L92.526 69.7059C89.8817 69.4289 86.3582 69.8053 84.0375 71.6743C81.8289 73.4521 80.8552 75.4636 79.9951 77.2414C79.8029 77.6338 79.6235 78.007 79.441 78.3529C79.1911 78.7918 78.9605 79.2514 78.7074 79.7383C77.7689 81.5737 76.7054 83.6558 74.287 85.6018C71.0246 88.2236 66.4681 88.5487 63.4395 88.0201L63.4939 84.9147C65.1339 85.0748 69.2596 85.2142 72.1201 82.9111C74.2358 81.2118 75.2176 79.2482 76.0824 77.5169C76.3179 77.046 76.5404 76.6024 76.7759 76.1812C76.9537 75.8432 77.1266 75.4909 77.3092 75.1177C78.2702 73.1494 79.3641 70.9183 81.885 68.8939C85.1875 66.2289 89.7136 65.9646 92.7021 66.5588Z" fill="white"/>
<path d="M19.3797 27.2394L15.1963 24.057C15.7676 23.3096 16.0036 22.5446 15.9043 21.7619C15.805 20.9793 15.3725 20.2997 14.607 19.7231L8.16537 14.8238C6.09291 13.2479 4.91413 11.4947 4.62904 9.56423C4.34396 7.63378 4.96165 5.66862 6.4821 3.66876L8.63623 0.837158L13.1896 4.29978L11.7482 6.18807C11.5108 6.48181 11.3352 6.82049 11.232 7.18378C11.1288 7.54708 11.1001 7.92749 11.1476 8.30216C11.2458 9.05811 11.6526 9.70839 12.3679 10.2529L18.5309 14.9408C19.1791 15.4193 19.7542 15.9895 20.2382 16.6336C20.6738 17.2262 20.9407 17.7601 21.039 18.2352C21.1298 18.6619 21.1913 19.0943 21.2232 19.5293C21.2582 19.8388 21.2242 20.1522 21.1238 20.447L21.0294 20.7257C21.1111 20.6713 21.2071 20.6072 21.3192 20.5367C21.579 20.4053 21.8502 20.2981 22.1296 20.2164C22.5545 20.0758 23.0004 20.0098 23.4478 20.021C24.0345 20.0603 24.6119 20.1888 25.1599 20.4022C25.92 20.6844 26.6316 21.0832 27.2692 21.5842L33.3969 26.2432C34.0994 26.7771 34.8372 26.9976 35.6103 26.9047C35.9884 26.8605 36.3532 26.738 36.6814 26.545C37.0095 26.352 37.2938 26.0926 37.5162 25.7836L38.9576 23.8953L43.5109 27.3595L41.3568 30.1912C39.8374 32.1899 38.1093 33.3111 36.1724 33.5545C34.2356 33.7979 32.2309 33.1301 30.1584 31.5509L23.7169 26.6532C22.9694 26.0798 22.2017 25.8465 21.4137 25.9533C20.6258 26.0601 19.9488 26.4872 19.3829 27.2346" fill="white"/>
<path d="M75.9625 55.4321L76.0874 60.0575L30.0992 61.3051C24.3559 61.4599 19.5442 59.7372 15.6641 56.1368C11.784 52.5364 9.76811 47.9387 9.6165 42.3438C9.52145 39.5289 10.0418 36.7272 11.1412 34.1341C12.2367 31.5619 13.3284 29.7014 14.4165 28.5525L16.1398 26.8276L19.4935 30.0036C18.948 30.4384 18.4372 30.915 17.9656 31.429C17.3634 32.0696 16.5765 33.4454 15.6048 35.5563C14.6391 37.6411 14.1724 39.9223 14.2419 42.2189C14.3625 46.6639 15.851 50.2167 18.7071 52.8775C21.5633 55.5383 25.319 56.8057 29.9743 56.6797L75.9625 55.4321Z" fill="white"/>
<path d="M94.1214 69.5088V59.8287H77.2646V55.3442H98.135V69.5071L94.1214 69.5088Z" fill="white"/>
<path d="M52.0096 39.7194V49.6093H50.7539V39.7194C50.7539 38.0377 51.5328 37.1969 53.0906 37.1969C53.2787 37.1964 53.466 37.2201 53.648 37.2674C53.786 37.3003 53.9202 37.3475 54.0484 37.4083L54.1717 37.4708V38.6383C53.8751 38.4578 53.534 38.3635 53.1868 38.366C52.402 38.366 52.0096 38.8172 52.0096 39.7194Z" fill="white"/>
<path d="M47.6543 43.1472C47.3074 43.1437 46.9666 43.2381 46.6709 43.4195V42.2503L46.7942 42.1895C46.9213 42.1272 47.0551 42.0799 47.193 42.0485C47.3751 42.0014 47.5623 41.9778 47.7504 41.978C49.3093 41.978 50.0882 42.8183 50.0871 44.4989V54.3904H48.8314V44.4989C48.8314 43.5978 48.4391 43.1472 47.6543 43.1472Z" fill="white"/>
</svg>
