<svg width="70" height="86" viewBox="0 0 70 86" fill="none" xmlns="http://www.w3.org/2000/svg">
<path d="M69.4756 25.654C69.3671 26.3248 69.113 26.9636 68.7311 27.5257C68.3509 28.0808 68.007 28.4597 67.7101 28.6504L67.4796 28.8061L66.3175 27.183C66.5215 27.008 66.6994 26.8048 66.8461 26.5796C67.0778 26.2594 67.2331 25.8903 67.2998 25.5007C67.4289 24.7272 67.2998 24.0659 66.9269 23.5337C66.554 23.0015 65.9615 22.6624 65.1843 22.5308L55.5699 20.9174L55.9839 18.4531L65.5958 20.0666C67.0066 20.308 68.0444 20.9198 68.7685 21.9516C69.4925 22.9834 69.717 24.2203 69.4756 25.654Z" fill="#075066"/>
<path d="M28.4139 67.4597L32.1296 65.3936C32.5013 66.0622 32.9912 66.4854 33.5994 66.6632C34.2076 66.841 34.8513 66.7412 35.5303 66.3639L41.2516 63.1829C43.0923 62.1595 44.7742 61.8554 46.2971 62.2705C47.8201 62.6857 49.0747 63.7814 50.0611 65.5578L51.4597 68.0739L47.417 70.3221L46.4842 68.6459C46.3442 68.3743 46.1506 68.1338 45.9149 67.9392C45.6792 67.7447 45.4065 67.6 45.1133 67.514C44.5212 67.3418 43.9073 67.4319 43.2717 67.7843L37.7966 70.829C37.2303 71.1523 36.6208 71.3933 35.9864 71.5446C35.4064 71.6725 34.9237 71.6962 34.5383 71.6158C34.1925 71.5449 33.8522 71.4497 33.5198 71.331C33.2783 71.258 33.0567 71.1309 32.8717 70.9593L32.6955 70.8C32.7112 70.8784 32.7257 70.969 32.7414 71.0752C32.7547 71.3104 32.7454 71.5464 32.7137 71.7799C32.6803 72.14 32.5848 72.4915 32.4313 72.8189C32.2119 73.241 31.9295 73.6272 31.5938 73.9642C31.1376 74.4358 30.6107 74.8336 30.0322 75.1432L24.5909 78.1698C23.967 78.5161 23.5639 78.9928 23.3841 79.595C23.2936 79.8895 23.2658 80.1997 23.3023 80.5057C23.3389 80.8116 23.4391 81.1065 23.5965 81.3714L24.5293 83.0476L20.4842 85.297L19.0952 82.7821C18.108 81.0065 17.8397 79.3621 18.2903 77.8488C18.7408 76.3355 19.886 75.0672 21.726 74.0438L27.4473 70.8628C28.1158 70.4911 28.5374 69.9979 28.712 69.3833C28.8866 68.7686 28.7884 68.1274 28.4175 67.4597" fill="white"/>
<path d="M25.4137 44.6616L25.5742 42.4326L32.6133 42.9419C33.6697 43.0224 34.5027 43.4186 35.1126 44.1306C35.7224 44.8426 35.9883 45.7428 35.9102 46.8313C35.8765 47.3393 35.7315 47.8337 35.4854 48.2795C35.2441 48.7228 35.0108 49.0305 34.7855 49.2026L34.4524 49.4778L33.2107 48.049C33.271 48.0092 33.329 47.9661 33.3845 47.9199C33.5045 47.7994 33.6051 47.661 33.6825 47.5095C33.8043 47.3035 33.8774 47.0724 33.8961 46.8338C33.9299 46.351 33.8193 45.9612 33.5643 45.6644C33.3108 45.3675 32.9391 45.201 32.4528 45.166" fill="#075066"/>
<path d="M37.4382 39.8996C37.5777 40.9322 37.6084 41.9766 37.5299 43.0155C37.4482 44.0427 37.2601 45.0586 36.9687 46.047C36.7213 46.9336 36.3929 47.7957 35.9876 48.6222C35.6264 49.331 35.2768 49.9662 34.9389 50.5277C34.6819 50.9716 34.3935 51.3967 34.0761 51.7997L33.7141 52.2075L35.984 53.8693C36.0974 53.7582 36.2475 53.5973 36.4341 53.3866C36.7941 52.9507 37.1316 52.4967 37.4454 52.0265C37.9318 51.327 38.3693 50.5948 38.7548 49.835C39.2141 48.8872 39.5936 47.9027 39.8891 46.8917C40.2547 45.7075 40.4883 44.4864 40.5854 43.2508C40.682 42.0239 40.6493 40.7902 40.4877 39.5702C40.3633 38.505 40.1275 37.4558 39.7841 36.4398C39.4752 35.5782 39.1651 34.8042 38.8537 34.118C38.6249 33.5835 38.3517 33.0692 38.0367 32.5805L37.6868 32.0508L35.1948 33.2298C35.2611 33.3384 35.3577 33.5013 35.4856 33.7125C35.723 34.1571 35.9369 34.6139 36.1264 35.081C36.4259 35.7754 36.6838 36.487 36.8987 37.2121C37.1456 38.0908 37.3239 38.9874 37.4321 39.8936" fill="#075066"/>
<path d="M47.1007 39.0372C47.0349 39.656 46.9046 40.2664 46.7122 40.8582C46.52 41.4429 46.2672 42.0059 45.9579 42.538C45.6895 43.0176 45.3772 43.4713 45.0251 43.8932C44.7146 44.2545 44.4217 44.5739 44.1466 44.8514C43.9349 45.0728 43.7074 45.2785 43.4659 45.4669L43.2017 45.6539L44.2878 46.9391C44.3686 46.8909 44.4784 46.8185 44.6172 46.7243C44.8874 46.5224 45.1472 46.307 45.3956 46.0787C45.7771 45.742 46.1348 45.3791 46.466 44.9926C46.8662 44.5075 47.2254 43.9901 47.54 43.4455C47.92 42.8102 48.2284 42.1347 48.4596 41.4314C48.6887 40.7332 48.844 40.0128 48.923 39.2822C49.0023 38.6464 49.0136 38.004 48.9568 37.3658C48.9005 36.8219 48.8305 36.3288 48.7468 35.8863C48.689 35.5439 48.603 35.2069 48.4897 34.8786L48.3606 34.5166L46.7484 34.8473C46.7713 34.9197 46.8051 35.0283 46.8485 35.1707C46.924 35.4621 46.9837 35.7574 47.0271 36.0552C47.1026 36.5005 47.1518 36.9498 47.1744 37.4008C47.1926 37.9456 47.1692 38.4911 47.1044 39.0323" fill="#075066"/>
<path d="M27.9046 57.8944C27.7623 56.9579 27.7186 56.009 27.7743 55.0634C27.8331 54.1286 27.9888 53.2024 28.2389 52.2998C28.4502 51.49 28.7358 50.7015 29.0921 49.9442C29.409 49.2949 29.7168 48.7125 30.0153 48.1968C30.2424 47.7892 30.4985 47.3984 30.7816 47.0274L31.0989 46.6509L29.01 45.1738C28.9086 45.2776 28.7686 45.4236 28.6081 45.6167C28.2876 46.0189 27.9876 46.4369 27.7091 46.8693C27.2775 47.5122 26.8912 48.1844 26.553 48.881C26.1492 49.7489 25.819 50.649 25.5659 51.5721C25.2514 52.654 25.0575 53.7674 24.9878 54.892C24.9186 56.009 24.9667 57.1302 25.1314 58.2372C25.261 59.2035 25.4915 60.1536 25.8193 61.0719C26.1129 61.8507 26.4062 62.5498 26.699 63.1693C26.9155 63.6511 27.1719 64.1141 27.4653 64.5534L27.7924 65.0361L30.0382 63.9271C29.9778 63.8282 29.8861 63.6857 29.7667 63.4902C29.5444 63.0894 29.343 62.6774 29.1633 62.2557C28.8811 61.627 28.6361 60.9823 28.4295 60.3249C28.192 59.5299 28.0165 58.7178 27.9046 57.8957" fill="white"/>
<path d="M44.7729 2.65214C43.067 2.23694 41.3177 2.02709 39.562 2.02703C37.819 2.02526 36.0815 2.22365 34.3837 2.61834C32.6894 3.01336 31.2534 3.49207 30.0756 4.05442C28.8977 4.61678 27.845 5.1743 26.9174 5.727C26.1849 6.14321 25.4872 6.61781 24.8309 7.14617L24.172 7.73748L23.2935 6.3521C23.4737 6.1912 23.7271 5.98001 24.0537 5.71854C24.3804 5.45708 25.0872 4.98967 26.1741 4.31628C27.268 3.64212 28.4085 3.04648 29.5868 2.53387C30.7743 2.01657 32.2719 1.54351 34.0797 1.1147C35.8759 0.687829 37.7158 0.472357 39.562 0.472692C41.3947 0.469572 43.2219 0.671966 45.0094 1.07608C46.7954 1.47834 48.3104 1.96831 49.5541 2.54595C50.7979 3.1236 51.913 3.698 52.8993 4.2692C53.6682 4.6981 54.4051 5.18207 55.1041 5.71734L55.8282 6.34247L54.9496 7.72784C54.7887 7.56694 54.555 7.36137 54.2485 7.11117C53.942 6.86096 53.2718 6.40482 52.238 5.7427C51.2104 5.08503 50.1345 4.50612 49.0195 4.01097C47.9061 3.52182 46.4905 3.06888 44.7729 2.65214Z" fill="#075066"/>
<path d="M12.8512 36.5478C12.8143 39.1766 13.0927 41.8004 13.6803 44.3629C14.2597 46.9078 15.1294 49.3778 16.2724 51.7242C17.414 54.0662 18.5923 56.0023 19.8071 57.5325C21.0219 59.0627 22.1885 60.4135 23.3067 61.5848C24.4218 62.757 25.3442 63.6142 26.0739 64.1564L27.16 64.9203L25.4319 66.6653C25.1406 66.4546 24.7476 66.1553 24.2528 65.7675C23.7581 65.3797 22.8397 64.504 21.4978 63.1404C20.149 61.7685 18.8989 60.303 17.7568 58.7549C16.6039 57.195 15.4132 55.1668 14.1847 52.6704C12.9622 50.1916 12.0335 47.5785 11.4176 44.8842C10.8031 42.2091 10.4902 39.4736 10.4847 36.7288C10.4847 33.9879 10.6939 31.6145 11.1123 29.6089C11.5306 27.6032 11.9968 25.7842 12.5109 24.1518C13.0202 22.5219 13.4816 21.2874 13.8951 20.4482L14.5648 19.1787L16.8794 19.9993C16.7016 20.2817 16.4796 20.6912 16.2133 21.2278C15.947 21.7644 15.5045 22.8948 14.8858 24.6189C14.2711 26.3386 13.787 28.1023 13.4377 29.8949C13.0813 31.6833 12.8858 33.901 12.8512 36.5478Z" fill="#075066"/>
<path d="M22.1724 6.46935H22.1628C21.5247 6.32071 20.8765 6.2195 20.2235 6.16647C19.3956 6.08441 18.47 6.04579 17.472 6.03613C16.2947 6.05155 15.122 6.1874 13.9724 6.44159C12.6496 6.71832 11.3617 7.1413 10.1324 7.7027C8.89375 8.26964 7.72503 8.97833 6.64965 9.81455C5.72539 10.5135 4.86372 11.2916 4.0744 12.14C3.44315 12.8438 2.86207 13.591 2.33543 14.3761C1.97615 14.8912 1.64384 15.4245 1.33984 15.9739C1.20347 16.2491 1.09848 16.4699 1.02366 16.6316L0.902985 16.8923L2.47179 17.9108L2.8821 16.9695C3.14733 16.4418 3.45443 15.9361 3.80045 15.4574C4.23851 14.8263 4.76588 14.1445 5.35961 13.4301C6.06333 12.6182 6.85181 11.8839 7.71162 11.2397C8.69086 10.4859 9.75284 9.84626 10.877 9.33305C12.009 8.81698 13.1984 8.43738 14.4201 8.20229C15.4571 7.98671 16.511 7.86273 17.5698 7.8318C18.4356 7.82235 19.301 7.87885 20.1583 8.00077C21.0187 8.12144 21.5895 8.21918 21.855 8.28917C22.1205 8.35917 22.3305 8.42192 22.4705 8.47381L22.8615 8.61983L23.1185 6.74449L22.1724 6.46935Z" fill="#075066"/>
<path d="M11.8919 21.2968L13.4076 20.014L9.35403 15.2255C8.74742 14.5063 8.02697 14.1153 7.19269 14.0525C6.3584 13.9898 5.57238 14.2714 4.83464 14.8973C4.48597 15.1882 4.20579 15.5524 4.01404 15.9641C3.8536 16.271 3.75285 16.6055 3.71717 16.95L3.69424 17.3325L5.37046 17.4762C5.36701 17.4122 5.36701 17.3482 5.37046 17.2843C5.39416 17.1349 5.44055 16.99 5.50803 16.8547C5.59249 16.6594 5.72045 16.4861 5.88213 16.3478C6.21037 16.0719 6.54827 15.9472 6.89582 15.9737C7.24338 16.0002 7.55672 16.1793 7.83589 16.5107" fill="#075066"/>
<path d="M59.3193 14.2527C59.2406 13.6891 59.1027 13.1353 58.9078 12.6006C58.7137 12.0725 58.465 11.5662 58.1657 11.0898C57.9046 10.6611 57.6048 10.2571 57.2702 9.88298C56.9758 9.56117 56.6982 9.27959 56.4376 9.03824C56.2371 8.84211 56.0226 8.66101 55.7956 8.49639L55.5542 8.33471L56.5015 7.12793C56.5775 7.17017 56.6801 7.23169 56.8092 7.31375C56.9384 7.39581 57.1833 7.58409 57.5418 7.87975C57.9008 8.17561 58.2387 8.49618 58.553 8.83913C58.935 9.2689 59.2798 9.73033 59.5836 10.2185C59.9511 10.7865 60.2543 11.3936 60.4875 12.0286C60.719 12.6598 60.884 13.3134 60.9799 13.9788C61.0713 14.5569 61.102 15.1429 61.0716 15.7274C61.0354 16.2254 60.9867 16.6784 60.9256 17.0862C60.8838 17.4008 60.8156 17.7112 60.7216 18.0143L60.6166 18.3449L59.1323 18.0927C59.1516 18.0251 59.1781 17.9261 59.2143 17.7946C59.2734 17.526 59.3185 17.2545 59.3495 16.9812C59.4037 16.5719 59.434 16.1596 59.44 15.7467C59.439 15.2463 59.3987 14.7468 59.3193 14.2527Z" fill="#075066"/>
<path d="M66.6155 28.6643L65.4365 29.5296C64.7546 28.5014 63.5804 27.3574 62.224 27.0714C60.9364 26.8071 59.9311 27.0521 59.0393 27.2693C58.8426 27.3163 58.6556 27.3622 58.4782 27.3996C58.2477 27.4394 58.0136 27.4901 57.7662 27.5456C56.8321 27.752 55.7726 27.9861 54.3631 27.6953C52.4612 27.3019 50.9998 25.7644 50.295 24.5275L51.4222 23.6309C51.847 24.2656 53.0163 25.7825 54.6805 26.1253C55.9138 26.3811 56.9058 26.1518 57.7807 25.9503C58.022 25.896 58.2429 25.8441 58.4637 25.8043C58.6363 25.7681 58.8137 25.7258 59.0007 25.6836C59.9891 25.4422 61.1102 25.1791 62.5788 25.4832C64.5145 25.8827 65.9445 27.4189 66.6155 28.6643Z" fill="#075066"/>
<path d="M50.4809 28.6938L50.4664 28.8398C50.46 28.91 50.4705 28.9807 50.4969 29.0459C50.5234 29.1112 50.565 29.1693 50.6185 29.2151C50.7679 29.339 50.9543 29.4095 51.1483 29.4155L64.3021 30.7308C64.4835 30.7575 64.6686 30.7245 64.8295 30.6367C64.8934 30.6041 64.9482 30.5562 64.989 30.4972C65.0299 30.4382 65.0555 30.3701 65.0636 30.2988L65.0781 30.1528L66.7941 30.3242L66.7784 30.4702C66.758 30.7618 66.6748 31.0456 66.5344 31.302C66.394 31.5584 66.1998 31.7815 65.9651 31.9557C65.4823 32.3162 64.8729 32.4597 64.1368 32.3865L50.9829 31.0712C50.2444 30.9979 49.672 30.7361 49.2657 30.2855C49.0675 30.0696 48.9188 29.8131 48.83 29.5338C48.7413 29.2545 48.7145 28.9592 48.7516 28.6685L48.7661 28.5225L50.4809 28.6938Z" fill="#075066"/>
<path d="M41.1248 36.8251L40.7169 35.29L49.8558 31.082L50.2637 32.617L41.1248 36.8251Z" fill="white"/>
<path d="M48.5404 20.637L50.6015 18.3682L51.0372 20.0444L48.3425 22.9914L48.147 23.2158C47.9701 23.4107 47.7671 23.5801 47.5436 23.7191C47.2781 23.8997 46.9839 24.0339 46.6735 24.1161C46.3225 24.214 45.9548 24.2361 45.5946 24.1809C45.2345 24.1258 44.8902 23.9947 44.5846 23.7963C43.9329 23.39 43.4993 22.773 43.2836 21.9451C43.068 21.1173 43.1461 20.367 43.5178 19.6945C43.6884 19.3731 43.9252 19.0916 44.2127 18.8685C44.5002 18.6455 44.8318 18.4861 45.1855 18.4008C45.5303 18.3104 45.8898 18.2907 46.2424 18.343C46.595 18.3953 46.9333 18.5184 47.237 18.7049C47.9056 19.0911 48.328 19.6229 48.5042 20.3003C48.5364 20.4094 48.5486 20.5235 48.5404 20.637ZM44.6932 21.5795C44.733 21.7518 44.8069 21.9145 44.9105 22.0579C45.0142 22.2013 45.1454 22.3226 45.2966 22.4145C45.4412 22.5042 45.603 22.5626 45.7715 22.5861C45.94 22.6096 46.1116 22.5976 46.2752 22.5509C46.441 22.5114 46.5968 22.438 46.7328 22.3355C46.8688 22.2329 46.9822 22.1032 47.0657 21.9547C47.1528 21.801 47.2084 21.6314 47.2291 21.4559C47.2498 21.2803 47.2353 21.1024 47.1864 20.9326C47.1469 20.7602 47.0731 20.5976 46.9695 20.4543C46.8658 20.3111 46.7344 20.1901 46.583 20.0987C46.4379 20.0092 46.2757 19.9507 46.1068 19.9273C45.9379 19.9038 45.7659 19.9157 45.6019 19.9624C45.4363 20.0016 45.2808 20.0748 45.1451 20.1775C45.0094 20.2801 44.8966 20.4099 44.8138 20.5585C44.7263 20.7118 44.6702 20.8811 44.6488 21.0564C44.6275 21.2317 44.6413 21.4096 44.6895 21.5795H44.6932Z" fill="white"/>
<path d="M41.6618 5.11072L39.7309 4.99004C39.6182 4.98684 39.5078 4.95732 39.4085 4.90389C39.3092 4.85047 39.2237 4.7746 39.1589 4.68231C39.018 4.47769 38.9547 4.2295 38.9803 3.98237C38.9851 3.73528 39.0775 3.49791 39.241 3.31261C39.3175 3.22924 39.4125 3.16496 39.5183 3.12493C39.6241 3.0849 39.7379 3.07025 39.8504 3.08212L41.7812 3.2028C41.8948 3.2055 42.0063 3.23432 42.107 3.28706C42.2076 3.3398 42.2948 3.41504 42.3617 3.50691C42.5024 3.71074 42.5657 3.95808 42.5403 4.20443C42.5344 4.45267 42.4407 4.69078 42.276 4.87658C42.1988 4.96061 42.1031 5.02551 41.9965 5.06614C41.8899 5.10678 41.7753 5.12206 41.6618 5.11072ZM41.7294 4.03546L39.7985 3.91479C39.6971 3.90835 39.644 3.94457 39.6392 4.02341C39.6344 4.10226 39.6826 4.14689 39.784 4.15735L41.7149 4.27803C41.8211 4.28406 41.8778 4.24544 41.8826 4.15735C41.8874 4.06925 41.8295 4.0403 41.7233 4.0403L41.7294 4.03546Z" fill="#F4A276"/>
</svg>
