<svg width="80" height="67" viewBox="0 0 80 67" fill="none" xmlns="http://www.w3.org/2000/svg">
<path d="M35.4783 32.5105C35.3314 32.3976 35.1627 32.3162 34.9829 32.2714C34.8215 32.2279 34.6547 32.2074 34.4875 32.2107C34.3038 32.2111 34.1212 32.1805 33.9476 32.1203C33.7234 32.0454 33.5139 31.9322 33.3283 31.7859C33.1734 31.6697 33.0415 31.5257 32.9394 31.3611C32.8516 31.2241 32.7848 31.0746 32.7413 30.9177C32.7075 30.7814 32.6876 30.642 32.6818 30.5016C32.6737 30.406 32.6737 30.3099 32.6818 30.2143C32.6896 30.1771 32.6954 30.1394 32.6992 30.1016L33.3184 30.1301L33.2899 30.3233C33.2714 30.4857 33.2927 30.6502 33.3519 30.8026C33.4158 30.9984 33.5392 31.1694 33.7048 31.2918C33.8512 31.4056 34.02 31.4871 34.2002 31.5308C34.3622 31.5711 34.5287 31.5907 34.6956 31.589C34.8791 31.5908 35.0611 31.6226 35.2344 31.6831C35.4587 31.7571 35.6683 31.8699 35.8536 32.0163C36.0083 32.1333 36.1401 32.2777 36.2425 32.4423C36.3307 32.5799 36.3983 32.7297 36.4431 32.887C36.4776 33.0224 36.4979 33.161 36.5038 33.3006C36.5104 33.396 36.5079 33.4918 36.4964 33.5867C36.4877 33.6242 36.4815 33.6623 36.4778 33.7006L35.8648 33.6684L35.8957 33.4839C35.9111 33.3195 35.8882 33.1537 35.8288 32.9997C35.766 32.8016 35.6425 32.6283 35.4759 32.5043M34.3179 34.0164C34.1376 33.8795 33.9236 33.7939 33.6986 33.7687C33.467 33.7427 33.2169 33.7044 32.9493 33.6561C32.6647 33.6015 32.3977 33.4781 32.1716 33.2969C32.0166 33.1802 31.8847 33.0358 31.7827 32.8708C31.6949 32.7338 31.6281 32.5843 31.5845 32.4275C31.5505 32.2912 31.531 32.1517 31.5263 32.0113C31.5178 31.9158 31.5178 31.8196 31.5263 31.724C31.5342 31.6868 31.54 31.6492 31.5436 31.6113L32.1629 31.6398L32.1344 31.833C32.1107 31.9967 32.1308 32.1638 32.1926 32.3172C32.26 32.5112 32.3843 32.6804 32.5493 32.8027C32.7308 32.9435 32.9477 33.0314 33.176 33.0566C33.4072 33.0839 33.6549 33.121 33.9191 33.1681C34.2032 33.2225 34.4697 33.3453 34.6956 33.526C34.8506 33.6426 34.9825 33.7871 35.0845 33.952C35.1725 34.0898 35.2401 34.2395 35.2852 34.3967C35.3196 34.5321 35.34 34.6707 35.3458 34.8103C35.3525 34.9057 35.35 35.0015 35.3384 35.0964C35.3292 35.1338 35.323 35.1719 35.3198 35.2103L34.7006 35.1831L34.7352 34.9936C34.7552 34.8282 34.7335 34.6605 34.6721 34.5056C34.605 34.3115 34.4807 34.1422 34.3154 34.0202" fill="#F4A276"/>
<path d="M65.1278 52.1307L63.2378 49.2896L64.3735 48.5329L73.4603 45.4639L74.8859 47.6077L67.1713 52.74L67.4091 53.0967L66.2734 53.8522L66.0356 53.4955L63.9301 54.9L63.0223 53.5376L65.1278 52.1307ZM72.4956 47.1841L65.2169 49.7998L66.2647 51.3752L72.5166 47.2164L72.4956 47.1841Z" fill="#075066"/>
<path d="M61.9857 57.2489L64.7265 59.2887L63.9103 60.3847L56.3853 66.3419L54.3182 64.8037L59.8555 57.3665L59.51 57.1101L60.3262 56.0141L60.6705 56.2704L62.1864 54.2344L63.5016 55.214L61.9857 57.2489ZM56.7147 64.3974L62.6892 59.4757L61.1708 58.3449L56.6825 64.3739L56.7147 64.3974Z" fill="#075066"/>
<path d="M59.2821 42.1522L59.9063 43.2235L67.5924 42.6823L68.4507 42.1819L65.8734 37.7617L64.8875 38.3364L66.8022 41.6233L59.2821 42.1522Z" fill="#075066"/>
<path d="M20.9459 23.1568L18.594 21.1393L23.3944 2.48264L25.0131 0.597656L34.7216 8.93023L32.8602 11.0976L25.6422 4.90265L20.9459 23.1568Z" fill="#075066"/>
<path d="M49.5463 7.80723C46.0835 8.72082 42.7422 10.0451 39.5938 11.7518C36.4676 13.4432 33.546 15.4877 30.886 17.8452C28.2298 20.2 26.1202 22.4536 24.5573 24.6061C22.9943 26.7586 21.6481 28.7815 20.5185 30.6747C19.389 32.568 18.6022 34.0921 18.158 35.2472L17.5511 36.9477L14.6295 35.3178C14.7988 34.8596 15.0465 34.2346 15.3726 33.4428C15.6987 32.6509 16.5116 31.1263 17.8112 28.869C19.1178 26.5975 20.5837 24.4214 22.1979 22.357C23.8245 20.2731 26.0501 17.969 28.8746 15.445C31.6808 12.9344 34.7702 10.7597 38.0803 8.9652C41.3654 7.18123 44.84 5.77088 48.4391 4.76053C52.0332 3.7524 55.2252 3.15873 58.0151 2.97956C60.805 2.8004 63.3645 2.74634 65.6937 2.81734C68.018 2.88918 69.8059 3.04316 71.0576 3.2793L72.9687 3.69418L72.7395 7.03193C72.3036 6.90231 71.6843 6.76068 70.8818 6.60711C70.0792 6.45354 68.4345 6.2884 65.9476 6.11171C63.4662 5.93192 60.9747 5.93981 58.4944 6.13527C56.0149 6.32765 53.0322 6.88497 49.5463 7.80723Z" fill="#075066"/>
<path d="M51.8995 31.7628C52.6694 32.3979 53.5126 32.9384 54.4111 33.3728C55.3025 33.8039 56.2404 34.1313 57.2064 34.3488C58.0451 34.5493 58.9029 34.6589 59.7651 34.6757C60.5082 34.6757 61.1844 34.6505 61.7937 34.6002C62.2713 34.5677 62.7456 34.4969 63.2118 34.3884L63.6948 34.2485L63.8026 35.1736C63.6713 35.2108 63.4893 35.2553 63.2564 35.3111C62.7831 35.3998 62.3057 35.4647 61.8259 35.5055C61.0999 35.5802 60.3694 35.6034 59.64 35.5749C58.7474 35.5256 57.861 35.3975 56.9909 35.1922C55.9669 34.9675 54.9726 34.6237 54.0284 34.168C53.0898 33.717 52.205 33.162 51.3904 32.5133C50.6731 31.9583 50.0152 31.3303 49.4274 30.6395C48.932 30.0384 48.5035 29.4695 48.1419 28.9328C47.8543 28.5231 47.5968 28.0931 47.3715 27.6461L47.1548 27.1507L47.9462 26.6553C47.9871 26.7791 48.0564 26.9376 48.1518 27.1432C48.2471 27.3488 48.4787 27.7476 48.8429 28.3396C49.2071 28.929 49.6148 29.4904 50.0628 30.019C50.6225 30.6532 51.2371 31.2367 51.8995 31.7628Z" fill="#075066"/>
<path d="M48.9271 43.2852C50.5389 43.1782 52.1322 42.8788 53.673 42.3935C55.2021 41.9132 56.671 41.2591 58.051 40.4441C59.4299 39.6292 60.5578 38.8122 61.4346 37.9932C62.3115 37.1741 63.081 36.3943 63.7432 35.6537C64.2702 35.0853 64.7514 34.4761 65.1823 33.8318L65.596 33.1309L66.7502 34.1031C66.6354 34.2913 66.4703 34.5468 66.2548 34.8697C65.7947 35.4992 65.3033 36.1052 64.7823 36.6853C64.0083 37.5786 63.1723 38.4163 62.2805 39.192C61.3814 39.9748 60.1978 40.8037 58.7297 41.6789C57.2719 42.5495 55.7174 43.247 54.0978 43.7571C52.4879 44.265 50.8263 44.5911 49.1438 44.7293C47.4661 44.8664 46.0018 44.8548 44.7509 44.6946C43.5 44.5345 42.3631 44.3388 41.3401 44.1076C40.5464 43.9427 39.7658 43.7204 39.0043 43.4425L38.1943 43.0945L38.5832 41.6368C38.764 41.7309 39.0266 41.8474 39.3684 41.9836C39.7102 42.1198 40.4236 42.3353 41.5098 42.6288C42.593 42.9214 43.6967 43.1321 44.8116 43.2592C45.9328 43.3856 47.3047 43.3942 48.9271 43.2852Z" fill="#00B5A5"/>
<path d="M48.3424 16.227L46.0203 16.7026L46.5157 15.4567L49.5462 14.8523L49.7704 14.8015C49.969 14.7601 50.1725 14.7468 50.3748 14.7619C50.6234 14.7697 50.8689 14.82 51.1006 14.9105C51.3642 15.0101 51.6038 15.1645 51.8034 15.3634C52.003 15.5624 52.1581 15.8015 52.2585 16.0648C52.3683 16.3442 52.4218 16.6424 52.4161 16.9425C52.4103 17.2426 52.3454 17.5386 52.2251 17.8135C52.1246 18.0964 51.9693 18.3567 51.768 18.5794C51.5668 18.8021 51.3235 18.9829 51.0522 19.1115C50.799 19.2356 50.5221 19.3042 50.2402 19.3128C49.9583 19.3213 49.6778 19.2696 49.4174 19.161C49.161 19.0597 48.9277 18.9077 48.7315 18.714C48.5353 18.5204 48.3802 18.2891 48.2756 18.034C48.1571 17.7899 48.0903 17.524 48.0794 17.2529C48.0686 16.9818 48.1138 16.7114 48.2124 16.4586C48.2415 16.3742 48.2855 16.2958 48.3424 16.227ZM51.1748 17.3949C51.2293 17.2699 51.2581 17.1351 51.2594 16.9987C51.2606 16.8624 51.2344 16.7271 51.1823 16.6011C51.1332 16.4791 51.0591 16.3686 50.9649 16.2769C50.8706 16.1852 50.7582 16.1142 50.6349 16.0685C50.5132 16.0174 50.3822 15.9921 50.2503 15.9943C50.1183 15.9964 49.9882 16.0259 49.8683 16.0809C49.744 16.1371 49.6323 16.2177 49.5397 16.3179C49.4472 16.4181 49.3757 16.5359 49.3295 16.6642C49.2749 16.7895 49.2462 16.9245 49.2451 17.0612C49.2441 17.1978 49.2707 17.3332 49.3233 17.4593C49.3729 17.5815 49.4474 17.6919 49.5421 17.7836C49.6368 17.8753 49.7495 17.9463 49.8732 17.9919C49.9944 18.0433 50.125 18.0687 50.2566 18.0666C50.3882 18.0645 50.5179 18.0348 50.6374 17.9795C50.7615 17.9229 50.873 17.842 50.9653 17.7416C51.0576 17.6412 51.1289 17.5234 51.1748 17.3949Z" fill="white"/>
<path d="M11.8442 50.4825C12.6113 50.4375 13.3717 50.313 14.1131 50.1109C14.8506 49.9083 15.566 49.632 16.2482 49.2861C16.8648 48.9847 17.4519 48.6265 18.0019 48.216C18.4726 47.8544 18.8937 47.5097 19.2652 47.1819C19.5576 46.9311 19.8316 46.6596 20.0851 46.3695L20.3501 46.0586L21.7917 47.5002C21.7273 47.5976 21.632 47.7277 21.5056 47.8903C21.3793 48.053 21.0961 48.3605 20.656 48.813C20.2157 49.2653 19.7439 49.6858 19.2442 50.0713C18.6187 50.5356 17.9559 50.9474 17.2626 51.3024C16.4524 51.7318 15.5971 52.0703 14.7125 52.3117C13.8331 52.5528 12.9305 52.6997 12.02 52.7502C11.2294 52.8035 10.4355 52.7794 9.64956 52.6783C9.0381 52.5919 8.43161 52.4733 7.83268 52.3229C7.41371 52.2239 7.00232 52.0951 6.60162 51.9377L6.16815 51.7569L6.76015 49.7605L7.15771 49.9041C7.33357 49.9673 7.68903 50.0589 8.22282 50.1815C8.75717 50.304 9.29799 50.3962 9.84275 50.4577C10.508 50.5218 11.1775 50.5301 11.8442 50.4825Z" fill="#00B5A5"/>
<path d="M3.89429 48.6333L6.37127 49.7121L4.61386 50.9505L2.13688 49.8731L0.824097 48.0079L15.4655 37.7012L16.7783 39.5663L3.89429 48.6333Z" fill="#075066"/>
<path d="M52.3416 13.3391L51.8363 12.4053L52.6797 12.4474L53.1862 13.3812L53.1417 14.2766L46.1095 13.9237L46.1541 13.0282L52.3416 13.3391Z" fill="#075066"/>
<path d="M61.4978 52.9694L61.5845 52.822C61.6352 52.7409 61.6683 52.65 61.6815 52.5552C61.6947 52.4605 61.6879 52.364 61.6613 52.2721C61.6303 52.1727 61.58 52.0804 61.5133 52.0005C61.4465 51.9206 61.3647 51.8547 61.2724 51.8064L52.0197 46.3571C51.934 46.2998 51.8375 46.2604 51.7362 46.2415C51.6349 46.2225 51.5307 46.2244 51.4301 46.2468C51.3383 46.2706 51.2523 46.3128 51.1773 46.371C51.1023 46.4291 51.04 46.5019 50.9942 46.5849L50.9075 46.7311L49.8783 46.1255L49.9638 45.9781C50.2883 45.4299 50.706 45.0682 51.2171 44.8932C51.7282 44.7181 52.2442 44.7842 52.7652 45.0913L62.018 50.5407C62.2573 50.6684 62.465 50.848 62.626 51.0664C62.7869 51.2847 62.897 51.5363 62.9481 51.8027C63.0488 52.3377 62.9378 52.8798 62.615 53.4288L62.5283 53.575L61.4978 52.9694Z" fill="#075066"/>
<path d="M54.4446 31.8271L54.109 29.9408L50.8233 30.5254L50.6685 29.6523L54.7356 28.9277L55.231 31.6871L54.4446 31.8271Z" fill="white"/>
<path d="M50.8567 29.2512L51.0102 27.8665L48.5989 27.6003L48.6695 26.96L51.6555 27.2894L51.4313 29.3156L50.8567 29.2512Z" fill="white"/>
<path d="M58.8462 33.291L58.0238 31.5571L55.0093 32.9888L54.6241 32.1912L58.3557 30.4189L59.5595 32.9517L58.8462 33.291Z" fill="white"/>
<path d="M73.8988 4.15234L79.7705 6.71106L75.9993 15.3656L74.1416 14.5557L77.187 7.56684L73.1731 5.81811L73.8988 4.15234Z" fill="#075066"/>
<path d="M63.4336 34.4432L62.6112 32.7093L59.598 34.141L59.2166 33.3397L62.9494 31.5674L64.1519 34.0989L63.4336 34.4432Z" fill="white"/>
<path d="M67.3434 33.582L66.6585 32.1416L64.1493 33.333L63.8323 32.6667L66.9396 31.1904L67.9403 33.2959L67.3434 33.582Z" fill="white"/>
<path d="M67.7236 31.2335L67.3409 30.4285L65.939 31.0948L65.7618 30.7233L67.4957 29.8984L68.0555 31.0762L67.7236 31.2335Z" fill="white"/>
<path d="M65.6627 30.5043L65.2714 29.6807L63.836 30.3618L63.6552 29.9804L65.4324 29.1357L66.0046 30.342L65.6627 30.5043Z" fill="white"/>
<path d="M63.7505 29.7328L63.3592 28.9092L61.9238 29.5904L61.7417 29.2089L63.5189 28.3643L64.0924 29.5705L63.7505 29.7328Z" fill="white"/>
<path d="M61.9313 28.8879L61.6638 28.3256L60.6842 28.7913L60.5603 28.53L61.7728 27.9541L62.1641 28.7777L61.9313 28.8879Z" fill="white"/>
<path d="M38.2859 58.1506L38.0469 56.8254L61.2302 52.6318L61.5287 54.2803L41.3413 57.9326C41.4899 58.0152 41.6818 58.139 41.9172 58.3041C42.1525 58.4693 42.5104 58.9085 42.991 59.6219C43.4818 60.3664 43.8125 61.2049 43.9619 62.084L42.6355 62.3243C42.4621 61.3857 41.9909 60.528 41.2917 59.8782C40.5635 59.1756 39.8848 58.7141 39.2556 58.4936L38.2859 58.1506Z" fill="#075066"/>
<path d="M36.2115 58.3148C35.7334 58.3916 35.1889 58.6343 34.5779 59.043C33.9953 59.4181 33.5486 59.9704 33.3035 60.6184L32.3858 60.2778C32.6052 59.6681 32.9494 59.1109 33.3964 58.6418C33.8315 58.1918 34.1436 57.9239 34.3327 57.838C34.5222 57.7513 34.6745 57.6869 34.7922 57.646L20.8245 52.4444L21.248 51.3037L37.2865 57.2745L36.9447 58.1909L36.2115 58.3148Z" fill="#075066"/>
<path d="M73.8715 16.4066L73.5272 16.5243L72.1823 15.1459L72.6776 14.9762L73.4765 15.8134L73.6003 14.6628L74.0957 14.4932L73.8715 16.4066Z" fill="white"/>
<path d="M72.7061 17.7698L72.446 17.9072L71.1915 16.9734L71.5692 16.774L72.3123 17.345L72.2628 16.4062L72.6343 16.208L72.7061 17.7698Z" fill="white"/>
<path d="M71.7736 19.2825L71.5135 19.4199L70.2601 18.4861L70.6317 18.2867L71.3748 18.8577L71.3265 17.9189L71.698 17.7207L71.7736 19.2825Z" fill="white"/>
<path d="M70.4 20.6928L70.1387 20.8303L68.8854 19.8965L69.2569 19.6971L70 20.2668L69.9505 19.3293L70.322 19.1299L70.4 20.6928Z" fill="white"/>
<path d="M68.9993 22.2512L68.7392 22.3887L67.4858 21.4549L67.8574 21.2555L68.6005 21.8264L68.5522 20.8876L68.9237 20.6895L68.9993 22.2512Z" fill="white"/>
<path d="M67.6419 23.5434L67.3818 23.6809L66.1272 22.7458L66.4987 22.5477L67.2418 23.1174L67.1923 22.1798L67.5639 21.9805L67.6419 23.5434Z" fill="white"/>
<path d="M66.266 24.76L66.0047 24.8975L64.7513 23.9637L65.1229 23.7642L65.866 24.334L65.8165 23.3964L66.1942 23.1982L66.266 24.76Z" fill="white"/>
<path d="M64.8132 26.1946L64.5519 26.3333L63.2985 25.3982L63.6701 25.2001L64.4132 25.7697L64.3636 24.8322L64.7352 24.6328L64.8132 26.1946Z" fill="white"/>
<path d="M63.4472 27.5132L63.1859 27.6506L61.9325 26.7168L62.3041 26.5174L63.0472 27.0871L62.9976 26.1496L63.3692 25.9502L63.4472 27.5132Z" fill="white"/>
<path d="M71.9631 15.3035L71.4181 15.3852L69.7771 12.9665L70.5648 12.8426L71.5333 14.3078L72.0225 12.6209L72.8102 12.4971L71.9631 15.3035Z" fill="white"/>
<path d="M68.7132 16.4819L68.1683 16.5649L66.5286 14.1462L67.3162 14.0223L68.2847 15.4874L68.7727 13.8006L69.5604 13.6768L68.7132 16.4819Z" fill="white"/>
<path d="M65.4845 17.5981L64.9396 17.6811L63.2998 15.2611L64.0875 15.1373L65.0547 16.6024L65.5501 14.9168L66.3378 14.793L65.4845 17.5981Z" fill="white"/>
<path d="M62.5653 19.0435L62.0204 19.1265L60.3806 16.7077L61.1683 16.5838L62.1355 18.0477L62.6248 16.3621L63.4124 16.2383L62.5653 19.0435Z" fill="white"/>
<path d="M59.297 20.4693L58.7521 20.5522L57.1123 18.1335L57.9 18.0096L58.8672 19.4735L59.3564 17.7879L60.1441 17.6641L59.297 20.4693Z" fill="white"/>
<path d="M56.3952 22.3915L55.8267 22.4782L54.1139 19.9517L54.9363 19.8278L55.9469 21.3574L56.4571 19.5975L57.2795 19.4736L56.3952 22.3915Z" fill="white"/>
<path d="M53.2618 24.7952L52.6847 24.8831L50.9508 22.317L51.7868 22.1931L52.8135 23.7462L53.3312 21.9578L54.1672 21.834L53.2618 24.7952Z" fill="white"/>
<path d="M50.438 26.6179L49.9649 26.691L48.5406 24.5856L49.2243 24.4828L50.0652 25.7535L50.4901 24.2896L51.1737 24.1855L50.438 26.6179Z" fill="white"/>
</svg>
