<svg width="70" height="82" viewBox="0 0 70 82" fill="none" xmlns="http://www.w3.org/2000/svg">
<path d="M67.8409 52.2722L67.4858 54.1677L68.5082 54.36L69.1211 51.0915L68.5591 50.9863L60.4072 51.087L60.1617 52.3966L67.8409 52.2722Z" fill="white"/>
<path d="M65.9228 56.7649L65.1718 58.5416L66.1309 58.9465L67.4247 55.885L66.8988 55.6622L58.9132 54.0234L58.394 55.2505L65.9228 56.7649Z" fill="white"/>
<path d="M63.0039 61.3519L62.012 63.0065L62.9043 63.5414L64.6132 60.6892L64.1235 60.3962L56.4443 57.6582L55.7601 58.8005L63.0039 61.3519Z" fill="white"/>
<path d="M58.7741 65.5411L57.4226 66.9164L58.1645 67.6458L60.4943 65.2754L60.0871 64.875L53.2652 60.4111L52.3311 61.3623L58.7741 65.5411Z" fill="white"/>
<path d="M53.9641 69.2035L52.4045 70.3368L53.0152 71.1793L55.7058 69.225L55.3699 68.7636L49.3781 63.2344L48.3003 64.017L53.9641 69.2035Z" fill="white"/>
<path d="M48.6667 72.2596L46.9443 73.1282L47.4125 74.0567L50.3813 72.5616L50.1245 72.0515L45.0997 65.6311L43.9088 66.2305L48.6667 72.2596Z" fill="white"/>
<path d="M43.1647 74.1012L41.7431 74.3048L41.8528 75.0715L44.3036 74.7209L44.2436 74.3002L42.2226 68.5742L41.241 68.7145L43.1647 74.1012Z" fill="white"/>
<path d="M44.1791 49.5761L49.6495 48.6205C49.8311 48.5816 50.0192 48.5848 50.1994 48.6299C50.3796 48.675 50.547 48.7607 50.6889 48.8806C50.9903 49.1458 51.1858 49.5108 51.2396 49.9086C51.3242 50.301 51.264 50.7108 51.07 51.0622C50.9771 51.2231 50.8486 51.3605 50.6943 51.464C50.54 51.5676 50.3641 51.6344 50.18 51.6593L44.7084 52.6139C44.526 52.6526 44.3371 52.6495 44.1561 52.6046C43.9751 52.5597 43.8066 52.4744 43.6634 52.3549C43.3589 52.0921 43.1613 51.7267 43.1081 51.328C43.0229 50.9351 43.0849 50.5246 43.2823 50.1744C43.3766 50.0132 43.5063 49.8755 43.6617 49.7718C43.8171 49.6682 43.994 49.6012 44.1791 49.5761ZM44.5037 51.4377L49.9741 50.4832C50.0426 50.4771 50.1081 50.4523 50.1634 50.4114C50.2187 50.3705 50.2616 50.3151 50.2874 50.2513C50.3118 50.1935 50.3191 50.1299 50.3082 50.0681C50.2974 50.0063 50.269 49.949 50.2263 49.903C50.1807 49.8513 50.1217 49.8134 50.0558 49.7934C49.9898 49.7735 49.9197 49.7722 49.8531 49.7899L44.3816 50.7444C44.3115 50.7501 44.2444 50.7748 44.1874 50.8159C44.1304 50.8569 44.0857 50.9128 44.0581 50.9774C44.0335 51.0351 44.0262 51.0988 44.037 51.1606C44.0479 51.2224 44.0764 51.2798 44.1192 51.3257C44.1663 51.3786 44.2273 51.4173 44.2953 51.4373C44.3632 51.4573 44.4354 51.4578 44.5037 51.4388" fill="white"/>
<path d="M4.65008 41.4383C4.8516 44.1213 5.36085 46.7723 6.16781 49.3391C6.96859 51.8857 8.04246 54.3384 9.37068 56.6541C10.7029 58.9786 12.0427 60.888 13.3901 62.3824C14.7374 63.8767 16.015 65.1928 17.2229 66.3305C18.4292 67.4615 19.4128 68.2686 20.1735 68.7519L21.3045 69.5311L18.9747 71.9841C18.5367 71.7421 18.1112 71.4779 17.7001 71.1925C17.1603 70.8275 16.1507 69.9963 14.6715 68.6987C13.1855 67.3931 11.7936 65.9842 10.5062 64.4825C9.20782 62.9701 7.82089 60.9412 6.34538 58.3958C4.87778 55.8667 3.69404 53.1833 2.81568 50.3943C1.94324 47.6292 1.36625 44.7795 1.09438 41.8929C0.825963 39.0127 0.825963 36.5156 1.09438 34.4015C1.36279 32.2874 1.6802 30.3779 2.04663 28.6732C2.41532 26.9685 2.77985 25.6622 3.14025 24.7545L3.6967 23.4414L7.0115 24.12C6.8837 24.4197 6.71408 24.8608 6.4992 25.4421C6.28432 26.0234 5.95408 27.2312 5.50396 29.0532C5.05332 30.8675 4.7455 32.7144 4.58335 34.5768C4.42049 36.4383 4.4435 38.7262 4.65235 41.4405" fill="#F4A276"/>
<path d="M30.6574 76.1305C32.1295 75.28 33.4993 74.2639 34.7402 73.1018C35.9707 71.9478 37.073 70.6643 38.0278 69.2735C38.9861 67.8779 39.7062 66.5921 40.188 65.4159C40.6697 64.2397 41.0694 63.1517 41.3868 62.1519C41.7012 61.1544 41.8897 60.3729 41.9522 59.8075L42.0857 58.9502L44.1214 59.605C44.1124 59.8312 44.0796 60.14 44.0196 60.5471C43.9597 60.9543 43.7617 61.7584 43.4293 62.956C43.0925 64.1596 42.6715 65.3379 42.1694 66.4823C41.665 67.6359 40.8899 68.9817 39.8441 70.5198C38.8058 72.0482 37.602 73.4572 36.2545 74.7213C34.9192 75.9756 33.4547 77.0849 31.8856 78.0305C30.3196 78.9722 28.898 79.6568 27.6208 80.0843C26.3436 80.5118 25.1693 80.8541 24.0979 81.1112C23.0265 81.3691 22.1828 81.5198 21.5668 81.5636L20.6621 81.6066L20.1384 79.5336C20.3431 79.5245 20.6406 79.4996 21.0319 79.4634C21.4232 79.4272 22.199 79.2836 23.3605 79.0404C24.5155 78.7995 25.6499 78.4687 26.7534 78.0508C27.8572 77.6346 29.1536 76.9938 30.6427 76.1282" fill="#00B5A5"/>
<path d="M25.8113 65.9443L25.5241 66.2259C25.416 66.3116 25.2988 66.3852 25.1746 66.4453C24.9863 66.543 24.7875 66.6188 24.582 66.6715C24.3166 66.7344 24.0427 66.7539 23.7711 66.7292C23.4198 66.7009 23.0757 66.6138 22.7532 66.4713L22.4829 66.3583L21.8881 67.6532L24.0629 68.6518L19.7574 78.0297L21.5669 78.8598L27.2013 66.5867L25.8113 65.9443Z" fill="#00B5A5"/>
<path d="M65.9838 46.852L65.8594 49.0743C63.9922 48.8787 61.5041 49.1445 59.8653 50.4643C58.3058 51.7196 57.6181 53.1401 57.0108 54.3954C56.8751 54.6725 56.7485 54.9361 56.6195 55.1803C56.4431 55.4902 56.2802 55.8148 56.1015 56.1586C55.4388 57.4547 54.6879 58.9249 52.9801 60.299C50.6764 62.1504 47.4588 62.38 45.3202 62.0068L45.3586 59.8139C46.5167 59.927 49.4301 60.0253 51.4499 58.399C52.9439 57.1991 53.6372 55.8126 54.2479 54.59C54.4142 54.2575 54.5714 53.9442 54.7376 53.6468C54.8631 53.4081 54.9853 53.1593 55.1142 52.8958C55.7928 51.5059 56.5652 49.9305 58.3454 48.5009C60.6774 46.619 63.8735 46.4324 65.9838 46.852Z" fill="#F4A276"/>
<path d="M14.2077 19.0871L11.2537 16.8399C11.6571 16.3121 11.8237 15.7719 11.7536 15.2192C11.6835 14.6666 11.3781 14.1867 10.8375 13.7795L6.28882 10.3199C4.82537 9.20709 3.99298 7.96909 3.79167 6.60592C3.59036 5.24274 4.02653 3.85506 5.10019 2.44287L6.62131 0.443359L9.83663 2.88846L8.81877 4.22186C8.65114 4.42928 8.52716 4.66844 8.45428 4.92498C8.3814 5.18152 8.36113 5.45014 8.39466 5.71471C8.46403 6.24852 8.75128 6.70771 9.25643 7.09223L13.6083 10.4025C14.066 10.7404 14.4721 11.1431 14.8139 11.5979C15.1215 12.0164 15.31 12.3934 15.3794 12.7289C15.4435 13.0302 15.487 13.3355 15.5095 13.6427C15.5342 13.8612 15.5102 14.0825 15.4393 14.2907L15.3726 14.4875C15.4303 14.4491 15.4981 14.4038 15.5773 14.3541C15.7607 14.2613 15.9523 14.1855 16.1496 14.1279C16.4496 14.0286 16.7645 13.9819 17.0804 13.9899C17.4947 14.0176 17.9024 14.1084 18.2894 14.2591C18.8261 14.4583 19.3286 14.7399 19.7788 15.0937L24.1058 18.3836C24.6019 18.7606 25.1229 18.9163 25.6688 18.8507C25.9359 18.8196 26.1934 18.7331 26.4252 18.5967C26.6569 18.4604 26.8577 18.2773 27.0146 18.0591L28.0325 16.7257L31.2478 19.1719L29.7267 21.1715C28.6538 22.5829 27.4335 23.3745 26.0658 23.5464C24.6981 23.7184 23.2825 23.2467 21.8191 22.1316L17.2704 18.6732C16.7426 18.2683 16.2005 18.1035 15.644 18.1789C15.0876 18.2543 14.6096 18.5559 14.21 19.0837" fill="#00B5A5"/>
<path d="M54.1631 38.9947L54.2514 42.2609L21.7772 43.1419C17.7216 43.2512 14.3238 42.0347 11.5839 39.4923C8.84401 36.9499 7.42051 33.7033 7.31345 29.7525C7.24633 27.7648 7.61377 25.7864 8.39012 23.9553C9.16369 22.139 9.93462 20.8252 10.7029 20.0139L11.9198 18.7959L14.288 21.0386C13.9028 21.3456 13.5421 21.6822 13.2091 22.0451C12.7839 22.4975 12.2282 23.469 11.5421 24.9596C10.8601 26.4318 10.5306 28.0426 10.5796 29.6643C10.6648 32.8031 11.7159 35.3119 13.7327 37.1908C15.7496 39.0697 18.4017 39.9647 21.689 39.8757L54.1631 38.9947Z" fill="#00B5A5"/>
<path d="M66.9859 48.9358V42.1003H55.0826V38.9336H69.8201V48.9346L66.9859 48.9358Z" fill="#00B5A5"/>
<path d="M37.2454 27.8476V34.8538H36.3809V27.8476C36.3809 26.6562 36.9171 26.0606 37.9897 26.0606C38.1191 26.0602 38.2481 26.077 38.3734 26.1105C38.4684 26.1338 38.5608 26.1673 38.6491 26.2103L38.734 26.2546V27.0817C38.5297 26.9538 38.2949 26.887 38.0559 26.8888C37.5155 26.8888 37.2454 27.2084 37.2454 27.8476Z" fill="white"/>
<path d="M34.2097 30.3449C33.9708 30.3425 33.736 30.4084 33.5323 30.5351V29.7185L33.6173 29.676C33.7048 29.6325 33.797 29.5995 33.892 29.5775C34.0174 29.5447 34.1464 29.5281 34.2759 29.5283C35.3497 29.5283 35.8862 30.1152 35.8855 31.2891V38.1978H35.0206V31.2891C35.0206 30.6596 34.7503 30.3449 34.2097 30.3449Z" fill="white"/>
</svg>
