<svg width="30" height="29" viewBox="0 0 30 29" fill="none" xmlns="http://www.w3.org/2000/svg">
<path d="M20.6448 0H9.42876C6.9503 0.000576413 4.57349 0.955359 2.82081 2.65447C1.06813 4.35358 0.0830226 6.65795 0.0820315 9.06105V19.9353C0.0817369 21.1256 0.32328 22.3043 0.792865 23.4041C1.26245 24.5038 1.95088 25.5031 2.81883 26.3449C3.68679 27.1866 4.71726 27.8544 5.85141 28.3099C6.98555 28.7655 8.20115 29 9.42876 29H20.6448C22.4938 28.9995 24.3012 28.4676 25.8384 27.4713C27.3756 26.4751 28.5737 25.0593 29.2812 23.403C29.7502 22.3032 29.9916 21.1247 29.9916 19.9346V9.06178C29.9914 6.65838 29.0065 4.35348 27.2537 2.65409C25.5009 0.954697 23.1236 -7.69088e-09 20.6448 0V0ZM27.1883 19.9353C27.1884 20.7684 27.0192 21.5934 26.6905 22.3631C26.3617 23.1328 25.8798 23.8322 25.2722 24.4212C24.6646 25.0103 23.9433 25.4776 23.1495 25.7964C22.3557 26.1152 21.5048 26.2792 20.6456 26.2791H9.42876C7.69346 26.2791 6.02922 25.6107 4.8021 24.4211C3.57499 23.2314 2.8855 21.6179 2.8853 19.9353V9.06032C2.8853 8.22729 3.05454 7.40241 3.38335 6.63279C3.71216 5.86317 4.19411 5.16389 4.80167 4.57487C5.40922 3.98586 6.13049 3.51865 6.92429 3.19993C7.71808 2.8812 8.56885 2.7172 9.42802 2.7173H20.6448C22.3801 2.71749 24.0442 3.38589 25.2713 4.57551C26.4984 5.76513 27.1879 7.37858 27.1883 9.06105V19.9353Z" fill="#075066"/>
<path d="M15.0365 7.24992C13.9308 7.24989 12.8389 7.48754 11.8392 7.94578C10.8396 8.40402 9.95725 9.07144 9.2556 9.9C8.55394 10.7286 8.05047 11.6976 7.78143 12.7375C7.51239 13.7773 7.48448 14.8621 7.69969 15.9137C7.9153 16.9654 8.36883 17.9577 9.02761 18.8189C9.6864 19.6802 10.534 20.3891 11.5094 20.8945C12.4848 21.3999 13.5637 21.6892 14.6683 21.7416C15.7729 21.794 16.8757 21.6081 17.8974 21.1975C19.4952 20.5554 20.814 19.3961 21.6292 17.917C22.4444 16.4379 22.7056 14.7306 22.3682 13.0858C22.0308 11.4409 21.1158 9.9604 19.7789 8.89631C18.4421 7.83221 16.7661 7.25038 15.0365 7.24992ZM15.0365 19.0283C14.1123 19.0278 13.2089 18.7617 12.4407 18.2635C11.6724 17.7653 11.0738 17.0574 10.7204 16.2294C10.3671 15.4013 10.2749 14.4903 10.4555 13.6114C10.6361 12.7326 11.0815 11.9254 11.7352 11.2919C12.389 10.6585 13.2218 10.2272 14.1283 10.0526C15.0348 9.87801 15.9744 9.96797 16.8282 10.3111C17.682 10.6542 18.4117 11.2351 18.925 11.9803C19.4384 12.7256 19.7123 13.6016 19.7121 14.4977C19.7107 15.6995 19.2176 16.8516 18.341 17.7011C17.4644 18.5507 16.2759 19.0282 15.0365 19.029V19.0283ZM23.0747 7.67187C23.3389 7.67187 23.5924 7.57009 23.7792 7.38892C23.9661 7.20775 24.0711 6.96202 24.0711 6.70581C24.0711 6.44959 23.9661 6.20387 23.7792 6.0227C23.5924 5.84153 23.3389 5.73975 23.0747 5.73975C22.8104 5.73975 22.557 5.84153 22.3702 6.0227C22.1833 6.20387 22.0783 6.44959 22.0783 6.70581C22.0783 6.96202 22.1833 7.20775 22.3702 7.38892C22.557 7.57009 22.8104 7.67187 23.0747 7.67187Z" fill="#075066"/>
</svg>
