<svg width="32" height="29" viewBox="0 0 32 29" fill="none" xmlns="http://www.w3.org/2000/svg">
<path d="M27.111 0H5.00373C3.83326 0.00287061 2.7116 0.439943 1.88395 1.21568C1.0563 1.99141 0.589977 3.0427 0.586914 4.13975L0.586914 24.8603C0.589977 25.9573 1.0563 27.0086 1.88395 27.7843C2.7116 28.5601 3.83326 28.9971 5.00373 29H27.111C28.2815 28.9971 29.4031 28.5601 30.2308 27.7843C31.0584 27.0086 31.5248 25.9573 31.5278 24.8603V4.13975C31.5248 3.0427 31.0584 1.99141 30.2308 1.21568C29.4031 0.439943 28.2815 0.00287061 27.111 0ZM9.61083 24.1657H4.45376V10.8757H9.61161V24.1657H9.61083ZM7.03191 9.3032C5.48641 9.3032 4.45298 8.33533 4.45298 7.1282C4.45298 5.80145 5.48641 4.8343 7.03191 4.8343C8.57818 4.8343 9.61083 5.80218 9.61083 7.0093C9.61083 8.33605 8.57818 9.30393 7.03191 9.30393V9.3032ZM27.6602 24.1657H22.5024V16.9172C22.5024 14.9814 21.083 14.5 20.6985 14.5C20.3148 14.5 18.6355 14.7414 18.6355 16.9172V24.1657H13.4777V10.8757H18.6355V12.8093C19.4106 11.7204 20.6985 10.8757 23.1467 10.8757C25.5949 10.875 27.6602 12.6868 27.6602 16.9172V24.1657Z" fill="#075066"/>
</svg>
