<svg width="36" height="31" viewBox="0 0 36 31" fill="none" xmlns="http://www.w3.org/2000/svg">
<path d="M21.2071 0C19.6013 0 17.7292 1.21786 17.4477 6.64286C17.6912 6.64286 17.9195 6.64286 18.163 6.64286H18.9697C19.1523 3.39524 19.959 1.47619 21.2071 1.47619C21.7398 1.47619 22.0442 1.75667 22.6073 2.35452C23.4174 3.33737 24.5513 4.02015 25.8188 4.28833C25.792 4.09004 25.7767 3.89044 25.7732 3.69048C25.7726 3.38812 25.8032 3.08647 25.8645 2.79C25.016 2.53892 24.2688 2.0386 23.726 1.3581C23.4385 0.96259 23.0626 0.635081 22.6265 0.399945C22.1904 0.164809 21.7052 0.028102 21.2071 0ZM30.3392 0.738095C29.7372 0.738095 29.1486 0.911249 28.648 1.23566C28.1475 1.56007 27.7573 2.02117 27.5269 2.56065C27.2965 3.10013 27.2362 3.69375 27.3537 4.26646C27.4711 4.83916 27.761 5.36523 28.1868 5.77812C28.6125 6.19102 29.1549 6.47221 29.7454 6.58613C30.3359 6.70005 30.9479 6.64158 31.5041 6.41812C32.0604 6.19466 32.5358 5.81625 32.8703 5.33073C33.2048 4.84521 33.3833 4.2744 33.3833 3.69048C33.3833 2.90746 33.0626 2.15651 32.4917 1.60283C31.9208 1.04915 31.1466 0.738095 30.3392 0.738095ZM18.163 8.11905C8.93194 8.11905 1.42074 12.6805 1.42074 19.1905C1.42074 25.7005 8.93194 31 18.163 31C27.3941 31 34.9053 25.7005 34.9053 19.1905C34.9053 12.6805 27.3941 8.11905 18.163 8.11905ZM4.8453 8.81286C3.72643 8.82126 2.65655 9.25915 1.86974 10.0307C1.2523 10.6194 0.840316 11.3808 0.691557 12.2081C0.542798 13.0354 0.664722 13.8871 1.04023 14.6438C2.35291 12.3446 4.3392 10.4746 6.74783 9.27048C6.15913 8.97612 5.50759 8.81941 4.8453 8.81286ZM31.4808 8.81286C30.8262 8.82283 30.1829 8.97945 29.601 9.27048C32.0012 10.4782 33.9792 12.3478 35.2858 14.6438C35.6613 13.8871 35.7832 13.0354 35.6345 12.2081C35.4857 11.3808 35.0737 10.6194 34.4563 10.0307C33.6695 9.25915 32.5996 8.82126 31.4808 8.81286ZM12.0749 14.7619C12.5265 14.7619 12.9679 14.8918 13.3433 15.1351C13.7188 15.3784 14.0114 15.7242 14.1842 16.1288C14.357 16.5334 14.4022 16.9786 14.3141 17.4082C14.226 17.8377 14.0086 18.2323 13.6893 18.5419C13.37 18.8516 12.9632 19.0625 12.5203 19.1479C12.0775 19.2334 11.6184 19.1895 11.2012 19.0219C10.7841 18.8543 10.4275 18.5705 10.1766 18.2064C9.92578 17.8422 9.79188 17.4141 9.79188 16.9762C9.79188 16.3889 10.0324 15.8257 10.4606 15.4105C10.8887 14.9952 11.4694 14.7619 12.0749 14.7619ZM24.2511 14.7619C24.7027 14.7619 25.1441 14.8918 25.5195 15.1351C25.895 15.3784 26.1876 15.7242 26.3604 16.1288C26.5332 16.5334 26.5784 16.9786 26.4903 17.4082C26.4022 17.8377 26.1848 18.2323 25.8655 18.5419C25.5462 18.8516 25.1394 19.0625 24.6965 19.1479C24.2537 19.2334 23.7946 19.1895 23.3774 19.0219C22.9603 18.8543 22.6037 18.5705 22.3528 18.2064C22.102 17.8422 21.9681 17.4141 21.9681 16.9762C21.9681 16.3889 22.2086 15.8257 22.6368 15.4105C23.0649 14.9952 23.6456 14.7619 24.2511 14.7619ZM11.3596 22.881C11.4599 22.8963 11.556 22.931 11.6422 22.983C11.7285 23.035 11.8032 23.1032 11.8618 23.1836C11.9379 23.2869 13.7263 25.6045 18.163 25.6045C22.5997 25.6045 24.449 23.2279 24.4642 23.2057C24.5213 23.1243 24.5947 23.0547 24.6799 23.0012C24.7652 22.9477 24.8606 22.9112 24.9606 22.894C25.0606 22.8769 25.1632 22.8792 25.2622 22.9011C25.3612 22.9229 25.4547 22.9638 25.5372 23.0212C25.6946 23.136 25.8 23.3055 25.8312 23.494C25.8624 23.6826 25.8171 23.8756 25.7047 24.0324C25.6133 24.1579 23.4216 27.0807 18.163 27.0807C12.9044 27.0807 10.7127 24.1283 10.6214 24.0324C10.509 23.8756 10.4636 23.6826 10.4949 23.494C10.5261 23.3055 10.6314 23.136 10.7888 23.0212C10.8696 22.9622 10.9616 22.9194 11.0596 22.8954C11.1576 22.8713 11.2596 22.8664 11.3596 22.881Z" fill="#075066"/>
</svg>
