<svg width="33" height="28" viewBox="0 0 33 28" fill="none" xmlns="http://www.w3.org/2000/svg">
<path d="M31.8827 0.385334C31.5531 0.162162 31.167 0.0287579 30.7651 -0.000809248C30.3633 -0.0303764 29.9606 0.0449888 29.5995 0.217339C28.6615 0.581329 3.22621 11.081 2.1864 11.508C2.00462 11.571 0.354012 12.166 0.528525 13.482C0.62178 13.8819 0.820719 14.2518 1.10607 14.5559C1.39143 14.86 1.75353 15.0881 2.15732 15.2179L8.62885 17.3179C9.05786 18.7178 10.6358 23.7647 10.9848 24.8497C11.2029 25.5497 11.5592 26.4106 12.1846 26.5926C12.4276 26.6805 12.6907 26.7041 12.9464 26.661C13.2021 26.6179 13.4412 26.5097 13.6388 26.3476L17.5945 22.8477L23.9788 27.6356L24.1314 27.7266C24.5216 27.9002 24.9451 27.9932 25.3749 27.9996C25.676 27.9991 25.9744 27.9445 26.2547 27.8386C26.8757 27.5686 27.3687 27.0839 27.6363 26.4806L32.3845 2.62527C32.6753 1.35131 32.2681 0.700326 31.8827 0.385334ZM14.3296 18.1999L12.1482 23.7997L9.96679 16.7999L26.691 4.90021L14.3296 18.1999Z" fill="#075066"/>
</svg>
