<svg width="35" height="27" viewBox="0 0 35 27" fill="none" xmlns="http://www.w3.org/2000/svg">
<path d="M34.9178 3.1919C33.6423 3.74308 32.2896 4.1051 30.9045 4.26595C32.3653 3.41506 33.4588 2.07408 33.9807 0.493522C32.6075 1.28683 31.1055 1.84516 29.5396 2.14437C28.582 1.15186 27.3417 0.462275 25.9788 0.164582C24.616 -0.13311 23.193 -0.0252473 21.8935 0.474254C20.594 0.973754 19.4776 1.84197 18.6884 2.9669C17.8991 4.09182 17.4733 5.42183 17.4657 6.78533C17.4655 7.30725 17.5247 7.82758 17.6423 8.33673C14.8687 8.20391 12.1546 7.50381 9.67584 6.28176C7.19704 5.05971 5.00877 3.34297 3.25277 1.2427C2.36048 2.74383 2.08711 4.52035 2.48822 6.21119C2.88933 7.90203 3.93483 9.38032 5.41222 10.3456C4.31419 10.3057 3.24143 10.0127 2.2817 9.49034V9.57653C2.28198 11.1463 2.83564 12.6681 3.84967 13.8863C4.86369 15.1045 6.27628 15.9449 7.85008 16.2661C7.24994 16.4237 6.63126 16.504 6.0098 16.5048C5.56759 16.5033 5.12651 16.4611 4.6924 16.3788C5.14022 17.7329 6.00965 18.9167 7.17947 19.7653C8.3493 20.6138 9.76119 21.0848 11.2183 21.1126C8.74537 23.0084 5.69068 24.036 2.54654 24.0298C1.99062 24.0292 1.43518 23.9982 0.882812 23.937C4.0745 25.941 7.79019 27.0045 11.585 27C24.433 27 31.4817 16.6109 31.4817 7.60081C31.4817 7.30909 31.4817 7.01074 31.4817 6.71903C32.831 5.75017 33.9943 4.5561 34.9178 3.1919Z" fill="#075066"/>
</svg>
