<svg width="31" height="29" viewBox="0 0 31 29" fill="none" xmlns="http://www.w3.org/2000/svg">
<path d="M3.687 1.90606e-06C3.21902 -0.00028404 2.75557 0.0888773 2.32316 0.262387C1.89075 0.435897 1.49785 0.690352 1.16694 1.0112C0.836026 1.33205 0.573591 1.713 0.394639 2.13226C0.215687 2.55152 0.123729 3.00088 0.124024 3.45463V25.5454C0.123729 25.9991 0.215687 26.4485 0.394639 26.8677C0.573591 27.287 0.836026 27.668 1.16694 27.9888C1.49785 28.3096 1.89075 28.5641 2.32316 28.7376C2.75557 28.9111 3.21902 29.0003 3.687 29H26.4706C26.9386 29.0005 27.4022 28.9114 27.8347 28.738C28.2672 28.5646 28.6601 28.3101 28.9911 27.9892C29.322 27.6683 29.5845 27.2873 29.7634 26.868C29.9422 26.4486 30.0341 25.9992 30.0336 25.5454V3.45463C30.0341 3.00082 29.9422 2.55138 29.7634 2.13203C29.5845 1.71269 29.322 1.33166 28.9911 1.01077C28.6601 0.689888 28.2672 0.43544 27.8347 0.261998C27.4022 0.088556 26.9386 -0.000475027 26.4706 1.90606e-06H3.687ZM7.96107 2.76153H9.66965L10.8092 5.52233L11.948 2.76153H13.6588L11.5181 7.59438V10.3566H10.0936V7.58858C9.66592 6.4757 8.2482 3.45463 7.95659 2.76153H7.96107ZM15.0788 4.83358C15.388 4.81776 15.6971 4.86814 15.984 4.98116C16.2708 5.09419 16.5286 5.26706 16.7388 5.48753C17.0453 5.82755 17.2158 6.37203 17.2158 7.08978V8.0997C17.2158 8.81745 17.0738 9.3148 16.7747 9.65265C16.5607 9.87896 16.2996 10.0587 16.0087 10.1799C15.7178 10.3011 15.4036 10.3611 15.087 10.3559C14.7701 10.363 14.4554 10.3039 14.1642 10.1825C13.873 10.0612 13.6121 9.88045 13.3994 9.65265C13.0935 9.3148 12.9433 8.81745 12.9433 8.0997V7.09775C12.9433 6.38 13.1078 5.82755 13.4211 5.48825C13.8129 5.01918 14.3595 4.83358 15.0788 4.83358ZM17.9269 4.83358H19.3529V8.97768C19.3814 9.0643 19.4401 9.1386 19.519 9.18781C19.5979 9.23702 19.6919 9.25808 19.7851 9.24738C20.0782 9.24738 20.4476 8.91605 20.7766 8.54993V4.83358H22.201V10.3559H20.7743V9.40325C20.1963 9.9499 19.7051 10.3588 19.0575 10.3385C18.5864 10.324 18.2597 10.158 18.0952 9.82665C17.9658 9.52235 17.9076 9.19403 17.9247 8.8653L17.9269 4.8343V4.83358ZM15.0788 5.95008C14.9834 5.9503 14.8891 5.97007 14.8021 6.00808C14.6723 6.06358 14.5618 6.15429 14.4839 6.26929C14.4061 6.38428 14.3641 6.51866 14.3632 6.65623V8.59488C14.3636 8.7816 14.4396 8.96071 14.5748 9.09368C14.6397 9.15746 14.717 9.20822 14.8021 9.24303C14.8891 9.28096 14.9834 9.30058 15.0788 9.30058C15.1742 9.30058 15.2685 9.28096 15.3555 9.24303C15.4853 9.1878 15.5958 9.0971 15.6733 8.98199C15.7509 8.86689 15.7922 8.73237 15.7921 8.59488V6.6555C15.7931 6.47049 15.7188 6.29258 15.5852 6.16047C15.4516 6.02836 15.2696 5.95275 15.0788 5.95008ZM15.0788 12.4279C15.0788 12.4279 19.8568 12.4279 23.0489 12.6491C23.4961 12.6984 24.4667 12.7042 25.3355 13.5676C26.019 14.218 26.2388 15.7086 26.2388 15.7086C26.4063 16.6344 26.4841 17.5733 26.4706 18.5129V20.1492C26.4848 21.0889 26.4077 22.0278 26.2403 22.9535C26.2403 22.9535 26.0294 24.4448 25.3378 25.0951C24.4681 25.9579 23.4983 25.9651 23.0512 26.0137C19.8591 26.2348 15.0743 26.2407 15.0743 26.2407C15.0743 26.2407 9.14848 26.1855 7.32624 26.0195C6.82002 25.9296 5.68122 25.9586 4.8116 25.1017C4.12816 24.4448 3.90833 22.9535 3.90833 22.9535C3.7438 22.0271 3.66969 21.0877 3.687 20.1477V18.5107C3.67204 17.5711 3.74981 16.6329 3.9173 15.7071C3.9173 15.7071 4.12816 14.2158 4.81982 13.5655C5.68944 12.7027 6.65926 12.6955 7.10641 12.6469C10.294 12.4279 15.0788 12.4279 15.0788 12.4279ZM5.81955 15.1916V16.5575H7.24399V23.4777H8.66993V16.5575H10.0936V15.1916H5.81955ZM15.0788 15.1916V23.4777H16.5025V22.6142C16.9519 23.1521 17.5389 23.4769 18.0174 23.4769C18.2797 23.4858 18.5377 23.4104 18.7513 23.2625C18.965 23.1147 19.1223 22.9026 19.1988 22.6591C19.311 22.2792 19.3633 21.8848 19.3529 21.489V19.5931C19.3617 19.0916 19.2993 18.5912 19.1674 18.1061C19.0992 17.8618 18.9493 17.6463 18.7412 17.4934C18.5331 17.3406 18.2785 17.259 18.0174 17.2615C17.319 17.2615 17.0364 17.6066 16.5025 18.2127V15.1916H15.0788ZM10.0936 17.2615V21.8776C10.0787 22.2357 10.1347 22.5932 10.2581 22.931C10.3345 23.1053 10.4655 23.2519 10.6326 23.35C10.7997 23.4481 10.9944 23.4928 11.1891 23.4777C11.7095 23.4777 12.381 23.1217 12.9418 22.5344V23.4769H14.3655V17.2622H12.9418V21.5919C12.6292 22.0016 12.1716 22.2952 11.8874 22.2952C11.8013 22.3052 11.7145 22.2822 11.6456 22.2312C11.5766 22.1801 11.5309 22.1051 11.5181 22.0219V17.2622L10.0936 17.2615ZM22.2219 17.2615C21.9105 17.2463 21.5993 17.2949 21.3085 17.4041C21.0178 17.5133 20.754 17.6806 20.5343 17.8952C20.2367 18.1997 20.0617 18.6999 20.0617 19.3452V21.4549C20.0617 22.0987 20.2539 22.5489 20.5507 22.8491C20.9583 23.2587 21.5168 23.4632 22.2533 23.4632C22.9899 23.4632 23.5656 23.2457 23.9537 22.8063C24.1212 22.62 24.2349 22.3945 24.2827 22.1516C24.3159 21.8991 24.3334 21.6449 24.3351 21.3904H22.9114V21.9436C22.882 22.1062 22.7944 22.2537 22.664 22.3599C22.5336 22.4661 22.3687 22.5244 22.1984 22.5244C22.0281 22.5244 21.8632 22.4661 21.7328 22.3599C21.6024 22.2537 21.5148 22.1062 21.4854 21.9436V20.6987H24.3358V19.3038C24.3358 18.6579 24.1713 18.1852 23.8774 17.872C23.6618 17.6623 23.4028 17.4994 23.1174 17.394C22.832 17.2887 22.5268 17.244 22.2219 17.2615ZM22.201 18.262C22.3742 18.2491 22.5457 18.3024 22.6789 18.4105C22.8121 18.5186 22.8963 18.673 22.9136 18.8406V19.7591H21.4877V18.8406C21.5047 18.6727 21.589 18.518 21.7224 18.4097C21.8557 18.3014 22.0276 18.2489 22.201 18.262ZM17.3721 18.4657C17.7602 18.4657 17.9269 18.6977 17.9269 19.4169V21.3172C17.9269 22.0371 17.7602 22.2872 17.3721 22.2872C17.0488 22.2603 16.7435 22.1317 16.5025 21.9211V18.9007C16.7409 18.6749 17.0439 18.5238 17.3721 18.4672V18.4657Z" fill="#075066"/>
</svg>
